G04*
G04 #@! TF.GenerationSoftware,Altium Limited,Altium Designer,18.1.5 (160)*
G04*
G04 Layer_Physical_Order=2*
G04 Layer_Color=16711680*
%FSLAX25Y25*%
%MOIN*%
G70*
G01*
G75*
%ADD19R,0.01968X0.03543*%
%ADD47C,0.01181*%
%ADD50C,0.03937*%
%ADD56C,0.03543*%
%ADD57C,0.03937*%
%ADD58C,0.20472*%
%ADD59C,0.02362*%
%ADD60R,0.12480X0.04016*%
%ADD61R,0.23622X0.23622*%
G04:AMPARAMS|DCode=62|XSize=590.55mil|YSize=551.18mil|CornerRadius=137.8mil|HoleSize=0mil|Usage=FLASHONLY|Rotation=270.000|XOffset=0mil|YOffset=0mil|HoleType=Round|Shape=RoundedRectangle|*
%AMROUNDEDRECTD62*
21,1,0.59055,0.27559,0,0,270.0*
21,1,0.31496,0.55118,0,0,270.0*
1,1,0.27559,-0.13780,-0.15748*
1,1,0.27559,-0.13780,0.15748*
1,1,0.27559,0.13780,0.15748*
1,1,0.27559,0.13780,-0.15748*
%
%ADD62ROUNDEDRECTD62*%
%ADD63R,0.08911X0.03327*%
%ADD64R,0.03327X0.08911*%
G36*
X98425Y274169D02*
X156059D01*
X156059Y98425D01*
X156078Y98331D01*
X155904Y92567D01*
X155374Y86730D01*
X154492Y80936D01*
X153261Y75205D01*
X151688Y69560D01*
X149776Y64019D01*
X147533Y58605D01*
X144967Y53335D01*
X142088Y48230D01*
X138906Y43308D01*
X135432Y38588D01*
X131680Y34085D01*
X127663Y29818D01*
X123395Y25800D01*
X118893Y22048D01*
X114172Y18575D01*
X109250Y15392D01*
X104145Y12513D01*
X98876Y9947D01*
X93461Y7705D01*
X87921Y5793D01*
X82275Y4219D01*
X76544Y2989D01*
X70750Y2107D01*
X64913Y1577D01*
X59149Y1402D01*
X59055Y1421D01*
X1421D01*
Y177165D01*
X1402Y177259D01*
X1577Y183024D01*
X2107Y188860D01*
X2989Y194655D01*
X4219Y200385D01*
X5793Y206031D01*
X7705Y211571D01*
X9947Y216986D01*
X12513Y222255D01*
X15392Y227360D01*
X18575Y232282D01*
X22048Y237003D01*
X25800Y241505D01*
X29818Y245773D01*
X34085Y249790D01*
X38588Y253542D01*
X43308Y257016D01*
X48230Y260198D01*
X53335Y263077D01*
X58605Y265643D01*
X64019Y267886D01*
X69560Y269798D01*
X75205Y271372D01*
X80936Y272602D01*
X86730Y273484D01*
X92567Y274014D01*
X98331Y274188D01*
X98425Y274169D01*
D02*
G37*
%LPC*%
G36*
X109161Y250550D02*
Y248925D01*
X110786D01*
X110716Y249276D01*
X110234Y249998D01*
X109512Y250480D01*
X109161Y250550D01*
D02*
G37*
G36*
X108161D02*
X107810Y250480D01*
X107089Y249998D01*
X106607Y249276D01*
X106537Y248925D01*
X108161D01*
Y250550D01*
D02*
G37*
G36*
X65854D02*
Y248925D01*
X67479D01*
X67409Y249276D01*
X66927Y249998D01*
X66205Y250480D01*
X65854Y250550D01*
D02*
G37*
G36*
X64854D02*
X64503Y250480D01*
X63782Y249998D01*
X63300Y249276D01*
X63230Y248925D01*
X64854D01*
Y250550D01*
D02*
G37*
G36*
X110786Y247925D02*
X109161D01*
Y246301D01*
X109512Y246371D01*
X110234Y246853D01*
X110716Y247574D01*
X110786Y247925D01*
D02*
G37*
G36*
X108161D02*
X106537D01*
X106607Y247574D01*
X107089Y246853D01*
X107810Y246371D01*
X108161Y246301D01*
Y247925D01*
D02*
G37*
G36*
X67479D02*
X65854D01*
Y246301D01*
X66205Y246371D01*
X66927Y246853D01*
X67409Y247574D01*
X67479Y247925D01*
D02*
G37*
G36*
X64854D02*
X63230D01*
X63300Y247574D01*
X63782Y246853D01*
X64503Y246371D01*
X64854Y246301D01*
Y247925D01*
D02*
G37*
G36*
X137795Y267177D02*
X136032Y267038D01*
X134312Y266625D01*
X132678Y265948D01*
X131170Y265024D01*
X129825Y263875D01*
X128677Y262530D01*
X127753Y261022D01*
X127076Y259388D01*
X126663Y257669D01*
X126524Y255906D01*
X126663Y254142D01*
X127076Y252423D01*
X127753Y250789D01*
X128677Y249281D01*
X129825Y247936D01*
X131170Y246787D01*
X132678Y245863D01*
X134312Y245186D01*
X136032Y244773D01*
X137795Y244635D01*
X139558Y244773D01*
X141278Y245186D01*
X142912Y245863D01*
X144420Y246787D01*
X145765Y247936D01*
X146914Y249281D01*
X147838Y250789D01*
X148515Y252423D01*
X148927Y254142D01*
X149066Y255906D01*
X148927Y257669D01*
X148515Y259388D01*
X147838Y261022D01*
X146914Y262530D01*
X145765Y263875D01*
X144420Y265024D01*
X142912Y265948D01*
X141278Y266625D01*
X139558Y267038D01*
X137795Y267177D01*
D02*
G37*
G36*
X148925Y228121D02*
Y226497D01*
X150550D01*
X150480Y226848D01*
X149998Y227569D01*
X149276Y228051D01*
X148925Y228121D01*
D02*
G37*
G36*
X147925D02*
X147574Y228051D01*
X146853Y227569D01*
X146371Y226848D01*
X146301Y226497D01*
X147925D01*
Y228121D01*
D02*
G37*
G36*
X125878Y224959D02*
X125527Y224889D01*
X125218Y224683D01*
X124803Y224409D01*
X124388Y224683D01*
X124079Y224889D01*
X123728Y224959D01*
Y222835D01*
Y220710D01*
X124079Y220780D01*
X124388Y220987D01*
X124803Y221261D01*
X125218Y220987D01*
X125527Y220780D01*
X125878Y220710D01*
Y222835D01*
Y224959D01*
D02*
G37*
G36*
X122728D02*
X122377Y224889D01*
X121656Y224407D01*
X121651D01*
X120930Y224889D01*
X120579Y224959D01*
Y222835D01*
Y220710D01*
X120930Y220780D01*
X121651Y221262D01*
X121656D01*
X122377Y220780D01*
X122728Y220710D01*
Y222835D01*
Y224959D01*
D02*
G37*
G36*
X150550Y225497D02*
X148925D01*
Y223872D01*
X149276Y223942D01*
X149998Y224424D01*
X150480Y225146D01*
X150550Y225497D01*
D02*
G37*
G36*
X147925D02*
X146301D01*
X146371Y225146D01*
X146853Y224424D01*
X147574Y223942D01*
X147925Y223872D01*
Y225497D01*
D02*
G37*
G36*
X126878Y224959D02*
Y223335D01*
X128502D01*
X128433Y223686D01*
X127950Y224407D01*
X127229Y224889D01*
X126878Y224959D01*
D02*
G37*
G36*
X119579D02*
X119228Y224889D01*
X118506Y224407D01*
X118024Y223686D01*
X117954Y223335D01*
X119579D01*
Y224959D01*
D02*
G37*
G36*
X128502Y222335D02*
X126878D01*
Y220710D01*
X127229Y220780D01*
X127950Y221262D01*
X128433Y221984D01*
X128502Y222335D01*
D02*
G37*
G36*
X119579D02*
X117954D01*
X118024Y221984D01*
X118506Y221262D01*
X119228Y220780D01*
X119579Y220710D01*
Y222335D01*
D02*
G37*
G36*
X133465Y225041D02*
X132690Y224939D01*
X131967Y224640D01*
X131347Y224164D01*
X130872Y223544D01*
X130572Y222822D01*
X130471Y222047D01*
X130572Y221272D01*
X130872Y220550D01*
X131347Y219930D01*
X131967Y219454D01*
X132690Y219155D01*
X133465Y219053D01*
X134239Y219155D01*
X134962Y219454D01*
X135582Y219930D01*
X136057Y220550D01*
X136357Y221272D01*
X136459Y222047D01*
X136357Y222822D01*
X136057Y223544D01*
X135582Y224164D01*
X134962Y224640D01*
X134239Y224939D01*
X133465Y225041D01*
D02*
G37*
G36*
X107193Y206061D02*
Y204437D01*
X108817D01*
X108747Y204788D01*
X108265Y205509D01*
X107544Y205992D01*
X107193Y206061D01*
D02*
G37*
G36*
X106193D02*
X105842Y205992D01*
X105120Y205509D01*
X104638Y204788D01*
X104569Y204437D01*
X106193D01*
Y206061D01*
D02*
G37*
G36*
X101287D02*
Y204437D01*
X102912D01*
X102842Y204788D01*
X102360Y205509D01*
X101638Y205992D01*
X101287Y206061D01*
D02*
G37*
G36*
X100287D02*
X99936Y205992D01*
X99215Y205509D01*
X98733Y204788D01*
X98663Y204437D01*
X100287D01*
Y206061D01*
D02*
G37*
G36*
X92232Y205274D02*
Y203650D01*
X93857D01*
X93787Y204001D01*
X93305Y204722D01*
X92583Y205204D01*
X92232Y205274D01*
D02*
G37*
G36*
X91232D02*
X90881Y205204D01*
X90160Y204722D01*
X89678Y204001D01*
X89608Y203650D01*
X91232D01*
Y205274D01*
D02*
G37*
G36*
X84358Y205274D02*
Y203650D01*
X85983D01*
X85913Y204001D01*
X85431Y204722D01*
X84709Y205204D01*
X84358Y205274D01*
D02*
G37*
G36*
X83358D02*
X83007Y205204D01*
X82286Y204722D01*
X81804Y204001D01*
X81734Y203650D01*
X83358D01*
Y205274D01*
D02*
G37*
G36*
X148925Y204499D02*
Y202875D01*
X150550D01*
X150480Y203226D01*
X149998Y203947D01*
X149276Y204429D01*
X148925Y204499D01*
D02*
G37*
G36*
X147925D02*
X147574Y204429D01*
X146853Y203947D01*
X146371Y203226D01*
X146301Y202875D01*
X147925D01*
Y204499D01*
D02*
G37*
G36*
X133465Y207520D02*
X132741Y207425D01*
X132067Y207145D01*
X131488Y206701D01*
X131044Y206122D01*
X130764Y205448D01*
X130669Y204724D01*
X130764Y204001D01*
X131044Y203327D01*
X131488Y202748D01*
X132067Y202303D01*
X132741Y202024D01*
X133465Y201929D01*
X134188Y202024D01*
X134862Y202303D01*
X135441Y202748D01*
X135886Y203327D01*
X136165Y204001D01*
X136260Y204724D01*
X136165Y205448D01*
X135886Y206122D01*
X135441Y206701D01*
X134862Y207145D01*
X134188Y207425D01*
X133465Y207520D01*
D02*
G37*
G36*
X108817Y203437D02*
X107193D01*
Y201813D01*
X107544Y201883D01*
X108265Y202364D01*
X108747Y203086D01*
X108817Y203437D01*
D02*
G37*
G36*
X106193D02*
X104569D01*
X104638Y203086D01*
X105120Y202364D01*
X105842Y201883D01*
X106193Y201813D01*
Y203437D01*
D02*
G37*
G36*
X102912D02*
X101287D01*
Y201813D01*
X101638Y201883D01*
X102360Y202364D01*
X102842Y203086D01*
X102912Y203437D01*
D02*
G37*
G36*
X100287D02*
X98663D01*
X98733Y203086D01*
X99215Y202364D01*
X99936Y201883D01*
X100287Y201813D01*
Y203437D01*
D02*
G37*
G36*
X93857Y202650D02*
X92232D01*
Y201025D01*
X92583Y201095D01*
X93305Y201577D01*
X93787Y202299D01*
X93857Y202650D01*
D02*
G37*
G36*
X91232D02*
X89608D01*
X89678Y202299D01*
X90160Y201577D01*
X90881Y201095D01*
X91232Y201025D01*
Y202650D01*
D02*
G37*
G36*
X85983Y202650D02*
X84358D01*
Y201025D01*
X84709Y201095D01*
X85431Y201577D01*
X85913Y202299D01*
X85983Y202650D01*
D02*
G37*
G36*
X83358D02*
X81734D01*
X81804Y202299D01*
X82286Y201577D01*
X83007Y201095D01*
X83358Y201025D01*
Y202650D01*
D02*
G37*
G36*
X150550Y201875D02*
X148925D01*
Y200250D01*
X149276Y200320D01*
X149998Y200802D01*
X150480Y201524D01*
X150550Y201875D01*
D02*
G37*
G36*
X147925D02*
X146301D01*
X146371Y201524D01*
X146853Y200802D01*
X147574Y200320D01*
X147925Y200250D01*
Y201875D01*
D02*
G37*
G36*
X65854Y199369D02*
Y197744D01*
X67479D01*
X67409Y198095D01*
X66927Y198817D01*
X66205Y199299D01*
X65854Y199369D01*
D02*
G37*
G36*
X64854D02*
X64503Y199299D01*
X63782Y198817D01*
X63300Y198095D01*
X63230Y197744D01*
X64854D01*
Y199369D01*
D02*
G37*
G36*
X67479Y196744D02*
X65854D01*
Y195120D01*
X66205Y195189D01*
X66927Y195672D01*
X67409Y196393D01*
X67479Y196744D01*
D02*
G37*
G36*
X64854D02*
X63230D01*
X63300Y196393D01*
X63782Y195672D01*
X64503Y195189D01*
X64854Y195120D01*
Y196744D01*
D02*
G37*
G36*
X137902Y186376D02*
Y184752D01*
X139526D01*
X139456Y185103D01*
X138974Y185825D01*
X138253Y186307D01*
X137902Y186376D01*
D02*
G37*
G36*
X136902D02*
X136550Y186307D01*
X135829Y185825D01*
X135347Y185103D01*
X135277Y184752D01*
X136902D01*
Y186376D01*
D02*
G37*
G36*
X31209D02*
Y184752D01*
X32833D01*
X32763Y185103D01*
X32281Y185825D01*
X31560Y186307D01*
X31209Y186376D01*
D02*
G37*
G36*
X30209D02*
X29858Y186307D01*
X29136Y185825D01*
X28654Y185103D01*
X28584Y184752D01*
X30209D01*
Y186376D01*
D02*
G37*
G36*
X32833Y183752D02*
X31209D01*
Y182128D01*
X31560Y182197D01*
X32281Y182679D01*
X32763Y183401D01*
X32833Y183752D01*
D02*
G37*
G36*
X30209D02*
X28584D01*
X28654Y183401D01*
X29136Y182679D01*
X29858Y182197D01*
X30209Y182128D01*
Y183752D01*
D02*
G37*
G36*
X139526D02*
X135277D01*
X135347Y183401D01*
X135829Y182679D01*
X136198Y182433D01*
X136046Y181933D01*
X126463D01*
Y180547D01*
X113947D01*
X113327Y180423D01*
X112800Y180072D01*
X105152Y172424D01*
X104801Y171898D01*
X104677Y171277D01*
Y161735D01*
X104245Y161087D01*
X104075Y160236D01*
X104245Y159385D01*
X104727Y158664D01*
X105448Y158182D01*
X106299Y158012D01*
X107150Y158182D01*
X107872Y158664D01*
X108354Y159385D01*
X108523Y160236D01*
X108354Y161087D01*
X107921Y161735D01*
Y170606D01*
X114619Y177304D01*
X126463D01*
Y175917D01*
X140944D01*
Y181933D01*
X138757D01*
X138605Y182433D01*
X138974Y182679D01*
X139456Y183401D01*
X139526Y183752D01*
D02*
G37*
G36*
X20579Y175746D02*
Y174122D01*
X22203D01*
X22133Y174473D01*
X21651Y175195D01*
X20930Y175677D01*
X20579Y175746D01*
D02*
G37*
G36*
X19579D02*
X19228Y175677D01*
X18506Y175195D01*
X18024Y174473D01*
X17954Y174122D01*
X19579D01*
Y175746D01*
D02*
G37*
G36*
X85146Y175353D02*
Y173728D01*
X86770D01*
X86700Y174079D01*
X86218Y174801D01*
X85497Y175283D01*
X85146Y175353D01*
D02*
G37*
G36*
X84146D02*
X83795Y175283D01*
X83073Y174801D01*
X82591Y174079D01*
X82521Y173728D01*
X84146D01*
Y175353D01*
D02*
G37*
G36*
X98158Y173778D02*
Y172153D01*
X99782D01*
X99712Y172505D01*
X99230Y173226D01*
X98509Y173708D01*
X98158Y173778D01*
D02*
G37*
G36*
X97158D02*
X96807Y173708D01*
X96085Y173226D01*
X95603Y172505D01*
X95533Y172153D01*
X97158D01*
Y173778D01*
D02*
G37*
G36*
X72154D02*
Y172153D01*
X73778D01*
X73708Y172505D01*
X73226Y173226D01*
X72505Y173708D01*
X72154Y173778D01*
D02*
G37*
G36*
X71153D02*
X70802Y173708D01*
X70081Y173226D01*
X69599Y172505D01*
X69529Y172153D01*
X71153D01*
Y173778D01*
D02*
G37*
G36*
X64299D02*
Y172153D01*
X65924D01*
X65854Y172505D01*
X65372Y173226D01*
X64650Y173708D01*
X64299Y173778D01*
D02*
G37*
G36*
X63300D02*
X62949Y173708D01*
X62227Y173226D01*
X61745Y172505D01*
X61675Y172153D01*
X63300D01*
Y173778D01*
D02*
G37*
G36*
X86770Y172728D02*
X85146D01*
Y171104D01*
X85497Y171174D01*
X86218Y171656D01*
X86700Y172377D01*
X86770Y172728D01*
D02*
G37*
G36*
X84146D02*
X82521D01*
X82591Y172377D01*
X83073Y171656D01*
X83795Y171174D01*
X84146Y171104D01*
Y172728D01*
D02*
G37*
G36*
X99782Y171153D02*
X98158D01*
Y169529D01*
X98509Y169599D01*
X99230Y170081D01*
X99712Y170802D01*
X99782Y171153D01*
D02*
G37*
G36*
X97158D02*
X95533D01*
X95603Y170802D01*
X96085Y170081D01*
X96807Y169599D01*
X97158Y169529D01*
Y171153D01*
D02*
G37*
G36*
X140944Y171933D02*
X134204D01*
Y169425D01*
X140944D01*
Y171933D01*
D02*
G37*
G36*
X133203D02*
X126463D01*
Y169425D01*
X133203D01*
Y171933D01*
D02*
G37*
G36*
X140944Y168425D02*
X134204D01*
Y165917D01*
X140944D01*
Y168425D01*
D02*
G37*
G36*
X133203D02*
X126463D01*
Y165917D01*
X133203D01*
Y168425D01*
D02*
G37*
G36*
X140944Y161933D02*
X126463D01*
Y160547D01*
X124612D01*
X123991Y160423D01*
X123465Y160072D01*
X108524Y145131D01*
X86749D01*
X86129Y145008D01*
X85602Y144656D01*
X83472Y142525D01*
X82707Y142373D01*
X81986Y141891D01*
X81504Y141169D01*
X81335Y140318D01*
X81504Y139467D01*
X81986Y138746D01*
X82707Y138264D01*
X83558Y138095D01*
X84380Y138258D01*
X84467Y138192D01*
X84724Y137873D01*
X84449Y137461D01*
X84280Y136610D01*
X84449Y135759D01*
X84931Y135038D01*
X85653Y134556D01*
X86504Y134386D01*
X87355Y134556D01*
X88003Y134988D01*
X120981D01*
X121602Y135112D01*
X122128Y135464D01*
X123968Y137303D01*
X126463D01*
Y135917D01*
X140944D01*
Y141933D01*
X126463D01*
Y140547D01*
X123296D01*
X122675Y140423D01*
X122149Y140072D01*
X120309Y138232D01*
X116245D01*
X116093Y138732D01*
X116316Y138881D01*
X124739Y147303D01*
X126463D01*
Y145917D01*
X140944D01*
Y151933D01*
X126463D01*
Y150547D01*
X124067D01*
X123446Y150423D01*
X122920Y150072D01*
X114497Y141649D01*
X110175D01*
X110023Y142149D01*
X110343Y142362D01*
X125133Y157153D01*
X125335Y157120D01*
X125424Y156971D01*
X125520Y156582D01*
X125111Y155969D01*
X125041Y155618D01*
X129379D01*
X129624Y155917D01*
X140944D01*
Y161933D01*
D02*
G37*
G36*
X107980Y156455D02*
Y154831D01*
X109605D01*
X109535Y155182D01*
X109053Y155903D01*
X108331Y156385D01*
X107980Y156455D01*
D02*
G37*
G36*
X106980D02*
X106629Y156385D01*
X105908Y155903D01*
X105426Y155182D01*
X105356Y154831D01*
X106980D01*
Y156455D01*
D02*
G37*
G36*
X129290Y154618D02*
X127665D01*
Y152994D01*
X128016Y153064D01*
X128738Y153546D01*
X129220Y154267D01*
X129290Y154618D01*
D02*
G37*
G36*
X126665D02*
X125041D01*
X125111Y154267D01*
X125593Y153546D01*
X126314Y153064D01*
X126665Y152994D01*
Y154618D01*
D02*
G37*
G36*
X109605Y153831D02*
X107980D01*
Y152206D01*
X108331Y152276D01*
X109053Y152758D01*
X109535Y153480D01*
X109605Y153831D01*
D02*
G37*
G36*
X106980D02*
X105356D01*
X105426Y153480D01*
X105908Y152758D01*
X106629Y152276D01*
X106980Y152206D01*
Y153831D01*
D02*
G37*
G36*
X90264Y150943D02*
Y149319D01*
X91888D01*
X91818Y149670D01*
X91336Y150391D01*
X90615Y150873D01*
X90264Y150943D01*
D02*
G37*
G36*
X91888Y148319D02*
X90264D01*
Y146695D01*
X90615Y146764D01*
X91336Y147246D01*
X91818Y147968D01*
X91888Y148319D01*
D02*
G37*
G36*
X22203Y173122D02*
X17954D01*
X18024Y172771D01*
X18506Y172050D01*
X19228Y171567D01*
X19690Y171476D01*
X20004Y171413D01*
X19955Y170913D01*
X18110D01*
X17490Y170790D01*
X16963Y170438D01*
X15769Y169244D01*
X15476Y168805D01*
X9676D01*
Y162789D01*
X17148D01*
X17356Y162289D01*
X15769Y160703D01*
X15418Y160177D01*
X15294Y159556D01*
Y158805D01*
X9676D01*
Y152789D01*
X24156D01*
Y158805D01*
X19165D01*
X18958Y159305D01*
X19476Y159822D01*
X24436D01*
X25057Y159946D01*
X25583Y160297D01*
X26333Y161048D01*
X26795Y160856D01*
Y160614D01*
X28735D01*
X29181Y160484D01*
X29181Y160114D01*
Y140917D01*
X20889D01*
X20114Y140815D01*
X19691Y140640D01*
X19392Y140516D01*
X18772Y140040D01*
X4956Y126224D01*
X4480Y125604D01*
X4181Y124882D01*
X4079Y124107D01*
Y60381D01*
X4181Y59606D01*
X4480Y58884D01*
X4956Y58264D01*
X21601Y41619D01*
X22221Y41143D01*
X22943Y40844D01*
X23718Y40742D01*
X29181D01*
Y30925D01*
X54803D01*
Y56547D01*
X29181D01*
Y46730D01*
X24958D01*
X10067Y61621D01*
Y94042D01*
X10567Y94194D01*
X10632Y94097D01*
X11354Y93615D01*
X11705Y93545D01*
Y95669D01*
Y97794D01*
X11354Y97724D01*
X10632Y97242D01*
X10567Y97145D01*
X10067Y97296D01*
Y122867D01*
X22129Y134929D01*
X29181D01*
Y134862D01*
X54803D01*
Y146052D01*
X67797D01*
X70507Y143342D01*
X71033Y142990D01*
X71653Y142867D01*
X81890D01*
X82510Y142990D01*
X83037Y143342D01*
X86974Y147278D01*
X87283Y147742D01*
X87592Y147795D01*
X87831Y147786D01*
X88191Y147246D01*
X88913Y146764D01*
X89264Y146695D01*
Y148819D01*
Y150943D01*
X88913Y150873D01*
X88191Y150391D01*
X87949Y150028D01*
X87449Y150180D01*
Y155112D01*
X92236Y159900D01*
X93001Y160052D01*
X93722Y160534D01*
X94204Y161255D01*
X94373Y162106D01*
X94204Y162957D01*
X93722Y163679D01*
X93001Y164161D01*
X92149Y164330D01*
X91298Y164161D01*
X90577Y163679D01*
X90095Y162957D01*
X89943Y162193D01*
X84680Y156930D01*
X84329Y156404D01*
X84205Y155783D01*
Y149097D01*
X82365Y147257D01*
X81976Y147574D01*
X82145Y148425D01*
X81976Y149276D01*
X81494Y149998D01*
X80772Y150480D01*
X79921Y150649D01*
X79256Y150517D01*
X79222Y150533D01*
X78879Y150876D01*
X78863Y150909D01*
X78996Y151575D01*
X78826Y152426D01*
X78393Y153074D01*
Y162598D01*
X78270Y163219D01*
X77918Y163745D01*
X72530Y169133D01*
X72665Y169706D01*
X73226Y170081D01*
X73708Y170802D01*
X73778Y171153D01*
X69390D01*
X69185Y170904D01*
X66268D01*
X66063Y171153D01*
X61536D01*
X61331Y170904D01*
X36984D01*
Y172063D01*
X33016D01*
Y166520D01*
X33016D01*
Y166157D01*
X33016D01*
X33016Y160614D01*
X32570Y160484D01*
X31210D01*
X30764Y160614D01*
X30764Y160984D01*
Y166157D01*
X30764D01*
Y166520D01*
X30764D01*
Y172063D01*
X26795D01*
Y170913D01*
X20203D01*
X20153Y171413D01*
X20468Y171476D01*
X20930Y171567D01*
X21651Y172050D01*
X22133Y172771D01*
X22203Y173122D01*
D02*
G37*
G36*
X24156Y148805D02*
X17416D01*
Y146297D01*
X24156D01*
Y148805D01*
D02*
G37*
G36*
X16416D02*
X9676D01*
Y146297D01*
X16416D01*
Y148805D01*
D02*
G37*
G36*
X24156Y145297D02*
X17416D01*
Y142789D01*
X24156D01*
Y145297D01*
D02*
G37*
G36*
X16416D02*
X9676D01*
Y142789D01*
X16416D01*
Y145297D01*
D02*
G37*
G36*
X69496Y143069D02*
Y141445D01*
X71120D01*
X71051Y141796D01*
X70569Y142517D01*
X69847Y142999D01*
X69496Y143069D01*
D02*
G37*
G36*
X68496D02*
X68145Y142999D01*
X67423Y142517D01*
X66941Y141796D01*
X66872Y141445D01*
X68496D01*
Y143069D01*
D02*
G37*
G36*
X71120Y140445D02*
X69496D01*
Y138821D01*
X69847Y138890D01*
X70569Y139372D01*
X71051Y140094D01*
X71120Y140445D01*
D02*
G37*
G36*
X68496D02*
X66872D01*
X66941Y140094D01*
X67423Y139372D01*
X68145Y138890D01*
X68496Y138821D01*
Y140445D01*
D02*
G37*
G36*
X127449Y134014D02*
Y132390D01*
X129073D01*
X129003Y132741D01*
X128521Y133462D01*
X127800Y133944D01*
X127449Y134014D01*
D02*
G37*
G36*
X126449D02*
X126098Y133944D01*
X125376Y133462D01*
X124894Y132741D01*
X124824Y132390D01*
X126449D01*
Y134014D01*
D02*
G37*
G36*
X129073Y131390D02*
X127449D01*
Y129765D01*
X127800Y129835D01*
X128521Y130317D01*
X129003Y131039D01*
X129073Y131390D01*
D02*
G37*
G36*
X126449D02*
X124824D01*
X124894Y131039D01*
X125376Y130317D01*
X126098Y129835D01*
X126449Y129765D01*
Y131390D01*
D02*
G37*
G36*
X21068Y130742D02*
Y129117D01*
X22692D01*
X22623Y129468D01*
X22141Y130190D01*
X21419Y130672D01*
X21068Y130742D01*
D02*
G37*
G36*
X20068D02*
X19717Y130672D01*
X18996Y130190D01*
X18514Y129468D01*
X18444Y129117D01*
X20068D01*
Y130742D01*
D02*
G37*
G36*
X22692Y128117D02*
X21068D01*
Y126493D01*
X21419Y126563D01*
X22141Y127045D01*
X22623Y127766D01*
X22692Y128117D01*
D02*
G37*
G36*
X20068D02*
X18444D01*
X18514Y127766D01*
X18996Y127045D01*
X19717Y126563D01*
X20068Y126493D01*
Y128117D01*
D02*
G37*
G36*
X90716Y120628D02*
Y119004D01*
X92340D01*
X92270Y119355D01*
X91788Y120076D01*
X91067Y120559D01*
X90716Y120628D01*
D02*
G37*
G36*
X89716D02*
X89365Y120559D01*
X88643Y120076D01*
X88161Y119355D01*
X88092Y119004D01*
X89716D01*
Y120628D01*
D02*
G37*
G36*
X92340Y118004D02*
X90716D01*
Y116380D01*
X91067Y116449D01*
X91788Y116931D01*
X92270Y117653D01*
X92340Y118004D01*
D02*
G37*
G36*
X89716D02*
X88092D01*
X88161Y117653D01*
X88643Y116931D01*
X89365Y116449D01*
X89716Y116380D01*
Y118004D01*
D02*
G37*
G36*
X113492Y117872D02*
Y116248D01*
X115117D01*
X115047Y116599D01*
X114565Y117321D01*
X113843Y117803D01*
X113492Y117872D01*
D02*
G37*
G36*
X112492D02*
X112141Y117803D01*
X111420Y117321D01*
X110938Y116599D01*
X110868Y116248D01*
X112492D01*
Y117872D01*
D02*
G37*
G36*
X78059D02*
Y116248D01*
X79683D01*
X79614Y116599D01*
X79132Y117321D01*
X78410Y117803D01*
X78059Y117872D01*
D02*
G37*
G36*
X77059D02*
X76708Y117803D01*
X75987Y117321D01*
X75504Y116599D01*
X75435Y116248D01*
X77059D01*
Y117872D01*
D02*
G37*
G36*
X115117Y115248D02*
X113492D01*
Y113624D01*
X113843Y113693D01*
X114565Y114175D01*
X115047Y114897D01*
X115117Y115248D01*
D02*
G37*
G36*
X112492D02*
X110868D01*
X110938Y114897D01*
X111420Y114175D01*
X112141Y113693D01*
X112492Y113624D01*
Y115248D01*
D02*
G37*
G36*
X79683D02*
X78059D01*
Y113624D01*
X78410Y113693D01*
X79132Y114175D01*
X79614Y114897D01*
X79683Y115248D01*
D02*
G37*
G36*
X77059D02*
X75435D01*
X75504Y114897D01*
X75987Y114175D01*
X76708Y113693D01*
X77059Y113624D01*
Y115248D01*
D02*
G37*
G36*
X148925Y108030D02*
Y106405D01*
X150550D01*
X150480Y106756D01*
X149998Y107478D01*
X149276Y107960D01*
X148925Y108030D01*
D02*
G37*
G36*
X147925D02*
X147574Y107960D01*
X146853Y107478D01*
X146371Y106756D01*
X146301Y106405D01*
X147925D01*
Y108030D01*
D02*
G37*
G36*
X113492D02*
Y106405D01*
X115117D01*
X115047Y106756D01*
X114565Y107478D01*
X113843Y107960D01*
X113492Y108030D01*
D02*
G37*
G36*
X112492D02*
X112141Y107960D01*
X111420Y107478D01*
X110938Y106756D01*
X110868Y106405D01*
X112492D01*
Y108030D01*
D02*
G37*
G36*
X78059D02*
Y106405D01*
X79683D01*
X79614Y106756D01*
X79132Y107478D01*
X78410Y107960D01*
X78059Y108030D01*
D02*
G37*
G36*
X77059D02*
X76708Y107960D01*
X75987Y107478D01*
X75504Y106756D01*
X75435Y106405D01*
X77059D01*
Y108030D01*
D02*
G37*
G36*
X150550Y105405D02*
X148925D01*
Y103781D01*
X149276Y103851D01*
X149998Y104333D01*
X150480Y105054D01*
X150550Y105405D01*
D02*
G37*
G36*
X147925D02*
X146301D01*
X146371Y105054D01*
X146853Y104333D01*
X147574Y103851D01*
X147925Y103781D01*
Y105405D01*
D02*
G37*
G36*
X115117D02*
X113492D01*
Y103781D01*
X113843Y103851D01*
X114565Y104333D01*
X115047Y105054D01*
X115117Y105405D01*
D02*
G37*
G36*
X112492D02*
X110868D01*
X110938Y105054D01*
X111420Y104333D01*
X112141Y103851D01*
X112492Y103781D01*
Y105405D01*
D02*
G37*
G36*
X79683D02*
X78059D01*
Y103781D01*
X78410Y103851D01*
X79132Y104333D01*
X79614Y105054D01*
X79683Y105405D01*
D02*
G37*
G36*
X77059D02*
X75435D01*
X75504Y105054D01*
X75987Y104333D01*
X76708Y103851D01*
X77059Y103781D01*
Y105405D01*
D02*
G37*
G36*
X55279Y126573D02*
X42000D01*
Y96500D01*
X70105D01*
Y111748D01*
X69922Y114067D01*
X69379Y116329D01*
X68489Y118479D01*
X67273Y120462D01*
X65763Y122231D01*
X63994Y123742D01*
X62010Y124957D01*
X59861Y125848D01*
X57599Y126391D01*
X55279Y126573D01*
D02*
G37*
G36*
X114672Y75538D02*
Y73913D01*
X116296D01*
X116227Y74264D01*
X115744Y74986D01*
X115023Y75468D01*
X114672Y75538D01*
D02*
G37*
G36*
X113672D02*
X113321Y75468D01*
X112600Y74986D01*
X112118Y74264D01*
X112048Y73913D01*
X113672D01*
Y75538D01*
D02*
G37*
G36*
X13409Y72990D02*
Y71366D01*
X15033D01*
X14964Y71717D01*
X14481Y72438D01*
X13760Y72920D01*
X13409Y72990D01*
D02*
G37*
G36*
X12409D02*
X12058Y72920D01*
X11337Y72438D01*
X10854Y71717D01*
X10785Y71366D01*
X12409D01*
Y72990D01*
D02*
G37*
G36*
X116296Y72913D02*
X114672D01*
Y71289D01*
X115023Y71359D01*
X115744Y71841D01*
X116227Y72562D01*
X116296Y72913D01*
D02*
G37*
G36*
X113672D02*
X112048D01*
X112118Y72562D01*
X112600Y71841D01*
X113321Y71359D01*
X113672Y71289D01*
Y72913D01*
D02*
G37*
G36*
X15033Y70366D02*
X13409D01*
Y68741D01*
X13760Y68811D01*
X14481Y69293D01*
X14964Y70015D01*
X15033Y70366D01*
D02*
G37*
G36*
X12409D02*
X10785D01*
X10854Y70015D01*
X11337Y69293D01*
X12058Y68811D01*
X12409Y68741D01*
Y70366D01*
D02*
G37*
G36*
X95777Y69683D02*
Y68059D01*
X97401D01*
X97331Y68410D01*
X96849Y69131D01*
X96128Y69614D01*
X95777Y69683D01*
D02*
G37*
G36*
X94777D02*
X94426Y69614D01*
X93704Y69131D01*
X93222Y68410D01*
X93152Y68059D01*
X94777D01*
Y69683D01*
D02*
G37*
G36*
X83231D02*
Y68059D01*
X84855D01*
X84785Y68410D01*
X84303Y69131D01*
X83582Y69614D01*
X83231Y69683D01*
D02*
G37*
G36*
X82231D02*
X81880Y69614D01*
X81158Y69131D01*
X80676Y68410D01*
X80606Y68059D01*
X82231D01*
Y69683D01*
D02*
G37*
G36*
X97401Y67059D02*
X95777D01*
Y65435D01*
X96128Y65504D01*
X96849Y65987D01*
X97331Y66708D01*
X97401Y67059D01*
D02*
G37*
G36*
X94777D02*
X93152D01*
X93222Y66708D01*
X93704Y65987D01*
X94426Y65504D01*
X94777Y65435D01*
Y67059D01*
D02*
G37*
G36*
X84855D02*
X83231D01*
Y65435D01*
X83582Y65504D01*
X84303Y65987D01*
X84785Y66708D01*
X84855Y67059D01*
D02*
G37*
G36*
X82231D02*
X80606D01*
X80676Y66708D01*
X81158Y65987D01*
X81880Y65504D01*
X82231Y65435D01*
Y67059D01*
D02*
G37*
G36*
X70105Y95500D02*
X42000D01*
Y65427D01*
X55279D01*
X57599Y65609D01*
X59861Y66152D01*
X62010Y67043D01*
X63994Y68258D01*
X65763Y69769D01*
X67273Y71538D01*
X68489Y73522D01*
X69379Y75671D01*
X69922Y77933D01*
X70105Y80252D01*
Y95500D01*
D02*
G37*
G36*
X41000Y126573D02*
X27720D01*
X25401Y126391D01*
X23139Y125848D01*
X20990Y124957D01*
X19006Y123742D01*
X17237Y122231D01*
X15727Y120462D01*
X14511Y118479D01*
X13621Y116329D01*
X13078Y114067D01*
X12895Y111748D01*
Y98150D01*
X12705Y97993D01*
Y95669D01*
Y93345D01*
X12895Y93189D01*
Y80252D01*
X13078Y77933D01*
X13621Y75671D01*
X14511Y73522D01*
X15727Y71538D01*
X17237Y69769D01*
X19006Y68258D01*
X19455Y67983D01*
X19599Y67259D01*
X20081Y66538D01*
X20802Y66056D01*
X21154Y65986D01*
Y68110D01*
X22153D01*
Y65986D01*
X22505Y66056D01*
X22837Y66278D01*
X23139Y66152D01*
X25401Y65609D01*
X27720Y65427D01*
X41000D01*
Y96000D01*
Y126573D01*
D02*
G37*
G36*
X19685Y30956D02*
X17922Y30817D01*
X16202Y30404D01*
X14568Y29728D01*
X13060Y28803D01*
X11715Y27655D01*
X10567Y26310D01*
X9642Y24802D01*
X8966Y23168D01*
X8553Y21448D01*
X8414Y19685D01*
X8553Y17922D01*
X8966Y16202D01*
X9642Y14568D01*
X10567Y13060D01*
X11715Y11715D01*
X13060Y10567D01*
X14568Y9642D01*
X16202Y8966D01*
X17922Y8553D01*
X19685Y8414D01*
X21448Y8553D01*
X23168Y8966D01*
X24802Y9642D01*
X26310Y10567D01*
X27655Y11715D01*
X28803Y13060D01*
X29728Y14568D01*
X30404Y16202D01*
X30817Y17922D01*
X30956Y19685D01*
X30817Y21448D01*
X30404Y23168D01*
X29728Y24802D01*
X28803Y26310D01*
X27655Y27655D01*
X26310Y28803D01*
X24802Y29728D01*
X23168Y30404D01*
X21448Y30817D01*
X19685Y30956D01*
D02*
G37*
%LPD*%
G36*
X70819Y158777D02*
Y154368D01*
X70319Y154101D01*
X69847Y154417D01*
X69496Y154487D01*
Y152362D01*
Y150238D01*
X69847Y150308D01*
X70319Y150623D01*
X70819Y150394D01*
X70943Y149773D01*
X71294Y149247D01*
X73263Y147278D01*
X73789Y146927D01*
X74409Y146803D01*
X78273D01*
X78451Y146610D01*
X78232Y146110D01*
X72325D01*
X69615Y148820D01*
X69089Y149171D01*
X68468Y149295D01*
X54803D01*
Y160484D01*
X37430D01*
X36984Y160614D01*
X36984Y160984D01*
Y161764D01*
X67832D01*
X70819Y158777D01*
D02*
G37*
G36*
X75150Y161927D02*
Y153074D01*
X74717Y152426D01*
X74563Y151649D01*
X74063Y151699D01*
Y159449D01*
X73939Y160069D01*
X73588Y160596D01*
X69651Y164532D01*
X69125Y164884D01*
X68504Y165007D01*
X36984D01*
Y166157D01*
X36984D01*
Y166520D01*
X36984D01*
Y167660D01*
X69416D01*
X75150Y161927D01*
D02*
G37*
%LPC*%
G36*
X68496Y154487D02*
X68145Y154417D01*
X67423Y153935D01*
X66941Y153213D01*
X66872Y152862D01*
X68496D01*
Y154487D01*
D02*
G37*
G36*
Y151862D02*
X66872D01*
X66941Y151511D01*
X67423Y150790D01*
X68145Y150308D01*
X68496Y150238D01*
Y151862D01*
D02*
G37*
%LPD*%
D19*
X35000Y169291D02*
D03*
X28780D02*
D03*
X35000Y163386D02*
D03*
X28780D02*
D03*
D47*
X123228Y222835D02*
X126378D01*
X120079D02*
X123228D01*
X85827Y155783D02*
X92149Y162106D01*
X85827Y148425D02*
Y155783D01*
X35000Y169291D02*
X35009Y169282D01*
X70088D01*
X76772Y162598D01*
Y151575D02*
Y162598D01*
X35000Y163386D02*
X68504D01*
X72441Y159449D01*
Y150394D02*
Y159449D01*
Y150394D02*
X74409Y148425D01*
X79921D01*
X81890Y144488D02*
X85827Y148425D01*
X71653Y144488D02*
X81890D01*
X68468Y147673D02*
X71653Y144488D01*
X41992Y147673D02*
X68468D01*
X18110Y169291D02*
X28780D01*
X16916Y168097D02*
X18110Y169291D01*
X16916Y165797D02*
Y168097D01*
X26378Y163386D02*
X28780D01*
X24436Y161444D02*
X26378Y163386D01*
X18804Y161444D02*
X24436D01*
X106299Y160236D02*
Y171277D01*
X113947Y178925D01*
X133703D01*
X124067Y148925D02*
X133703D01*
X89790Y140027D02*
X115169D01*
X124067Y148925D01*
X83558Y140318D02*
X86749Y143509D01*
X109196D01*
X124612Y158925D01*
X133703D01*
X16916Y155797D02*
Y159556D01*
X18804Y161444D01*
X16916Y165797D02*
X16932Y165781D01*
X86504Y136610D02*
X120981D01*
X123296Y138925D01*
X133703D01*
D50*
X7073Y60381D02*
X23718Y43736D01*
X7073Y124107D02*
X20889Y137923D01*
X7073Y60381D02*
Y124107D01*
X20889Y137923D02*
X39183D01*
X23718Y43736D02*
X41992D01*
D56*
X133465Y204724D02*
D03*
D57*
Y222047D02*
D03*
D58*
X137795Y255906D02*
D03*
X19685Y19685D02*
D03*
D59*
X148425Y202375D02*
D03*
Y225997D02*
D03*
X71653Y171653D02*
D03*
X84646Y173228D02*
D03*
X20472Y116535D02*
D03*
X108661Y248425D02*
D03*
X65354D02*
D03*
X92149Y162106D02*
D03*
X76772Y151575D02*
D03*
X79921Y148425D02*
D03*
X97658Y171653D02*
D03*
X107480Y154331D02*
D03*
X106299Y160236D02*
D03*
X89764Y148819D02*
D03*
X126378Y222835D02*
D03*
X123228D02*
D03*
X120079D02*
D03*
X89790Y140027D02*
D03*
X83558Y140318D02*
D03*
X86504Y136610D02*
D03*
X68996Y140945D02*
D03*
X126949Y131890D02*
D03*
X64739Y73413D02*
D03*
X114172D02*
D03*
X90216Y118504D02*
D03*
X95277Y67559D02*
D03*
X82731D02*
D03*
X20568Y128617D02*
D03*
X37413Y73647D02*
D03*
X12909Y70866D02*
D03*
X63800Y171653D02*
D03*
X21260Y70875D02*
D03*
X24185Y70854D02*
D03*
Y68170D02*
D03*
X27110Y70834D02*
D03*
Y68149D02*
D03*
X21654Y68110D02*
D03*
X12205Y95669D02*
D03*
X127165Y155118D02*
D03*
X77559Y115748D02*
D03*
Y105905D02*
D03*
X112992D02*
D03*
X42126D02*
D03*
Y115748D02*
D03*
X148425Y105905D02*
D03*
X112992Y115748D02*
D03*
X30709Y184252D02*
D03*
X137402D02*
D03*
Y148425D02*
D03*
X65354Y197244D02*
D03*
X83858Y203150D02*
D03*
X20079Y173622D02*
D03*
X68996Y152362D02*
D03*
X100787Y203937D02*
D03*
X106693D02*
D03*
X91732Y203150D02*
D03*
D60*
X133703Y138925D02*
D03*
Y148925D02*
D03*
Y158925D02*
D03*
Y178925D02*
D03*
Y168925D02*
D03*
X16916Y145797D02*
D03*
Y155797D02*
D03*
Y165797D02*
D03*
D61*
X41992Y43736D02*
D03*
Y147673D02*
D03*
D62*
X41500Y96000D02*
D03*
D63*
X70218Y95742D02*
D03*
D64*
X41758Y123718D02*
D03*
X42242Y67282D02*
D03*
M02*
