G04*
G04 #@! TF.GenerationSoftware,Altium Limited,Altium Designer,18.1.5 (160)*
G04*
G04 Layer_Color=8421504*
%FSLAX25Y25*%
%MOIN*%
G70*
G01*
G75*
%ADD16R,0.09843X0.07874*%
%ADD17R,0.09055X0.02165*%
%ADD18R,0.03937X0.07087*%
%ADD19R,0.01968X0.03543*%
%ADD20R,0.02362X0.04331*%
%ADD21R,0.05118X0.06102*%
%ADD22R,0.01181X0.04724*%
%ADD23R,0.04724X0.01181*%
%ADD24R,0.05315X0.01575*%
%ADD25R,0.07480X0.07087*%
%ADD26R,0.06299X0.08268*%
%ADD27R,0.03543X0.01968*%
%ADD28R,0.03347X0.03740*%
%ADD29R,0.05118X0.03937*%
D16*
X144882Y234842D02*
D03*
Y191929D02*
D03*
X123228Y234842D02*
D03*
Y191929D02*
D03*
D17*
Y213386D02*
D03*
Y216535D02*
D03*
Y219685D02*
D03*
Y210236D02*
D03*
Y207087D02*
D03*
D18*
X89567Y171653D02*
D03*
X79724D02*
D03*
D19*
X22610Y122587D02*
D03*
X16390D02*
D03*
X22610Y128740D02*
D03*
X16390D02*
D03*
X110197Y154331D02*
D03*
X103976D02*
D03*
X66102Y171653D02*
D03*
X59882D02*
D03*
X130276Y131890D02*
D03*
X124055D02*
D03*
X130276Y155512D02*
D03*
X124055D02*
D03*
X69331Y171653D02*
D03*
X75551D02*
D03*
X99961D02*
D03*
X93740D02*
D03*
X16390Y104500D02*
D03*
X22610D02*
D03*
Y110500D02*
D03*
X16390D02*
D03*
X22610Y116500D02*
D03*
X16390D02*
D03*
X104457Y213000D02*
D03*
X98236D02*
D03*
X103976Y160236D02*
D03*
X110197D02*
D03*
X87441Y118504D02*
D03*
X93661D02*
D03*
X23189Y155512D02*
D03*
X16969D02*
D03*
Y167323D02*
D03*
X23189D02*
D03*
X23189Y161417D02*
D03*
X16969D02*
D03*
D20*
X25591Y147638D02*
D03*
Y136614D02*
D03*
X21850D02*
D03*
X18110Y147638D02*
D03*
Y136614D02*
D03*
D21*
X56142Y89650D02*
D03*
X73858D02*
D03*
Y58350D02*
D03*
X56142D02*
D03*
X122358Y57850D02*
D03*
X104642D02*
D03*
Y89150D02*
D03*
X122358D02*
D03*
D22*
X89327Y160626D02*
D03*
X87358D02*
D03*
X85390D02*
D03*
X83421D02*
D03*
X81453D02*
D03*
X79484D02*
D03*
X77516D02*
D03*
X75547D02*
D03*
X73579D02*
D03*
X71610D02*
D03*
X69642D02*
D03*
X67673D02*
D03*
Y126374D02*
D03*
X69642D02*
D03*
X71610D02*
D03*
X73579D02*
D03*
X75547D02*
D03*
X77516D02*
D03*
X79484D02*
D03*
X85390D02*
D03*
X87358D02*
D03*
X89327D02*
D03*
X83421D02*
D03*
X81453D02*
D03*
D23*
X61374Y154327D02*
D03*
Y152358D02*
D03*
Y150390D02*
D03*
Y148421D02*
D03*
Y146453D02*
D03*
Y144484D02*
D03*
Y142516D02*
D03*
Y140547D02*
D03*
Y138579D02*
D03*
Y136610D02*
D03*
Y134642D02*
D03*
Y132673D02*
D03*
X95626D02*
D03*
Y134642D02*
D03*
Y136610D02*
D03*
Y138579D02*
D03*
Y140547D02*
D03*
Y142516D02*
D03*
Y144484D02*
D03*
Y146453D02*
D03*
Y148421D02*
D03*
Y150390D02*
D03*
Y152358D02*
D03*
Y154327D02*
D03*
D24*
X17031Y70854D02*
D03*
Y81090D02*
D03*
Y78531D02*
D03*
Y73413D02*
D03*
Y75972D02*
D03*
D25*
X6500Y90933D02*
D03*
Y61012D02*
D03*
Y80500D02*
D03*
Y71445D02*
D03*
D26*
X16539Y88374D02*
D03*
Y63571D02*
D03*
D27*
X100643Y200980D02*
D03*
Y207200D02*
D03*
X82731Y64780D02*
D03*
Y71000D02*
D03*
Y83610D02*
D03*
Y77390D02*
D03*
X95231Y64890D02*
D03*
Y71110D02*
D03*
Y83610D02*
D03*
Y77390D02*
D03*
X53150Y138937D02*
D03*
Y132717D02*
D03*
X106693Y200980D02*
D03*
Y207200D02*
D03*
D28*
X130181Y148067D02*
D03*
X124276D02*
D03*
X130181Y139370D02*
D03*
X124276D02*
D03*
D29*
X91732Y206968D02*
D03*
Y199331D02*
D03*
X83858Y206968D02*
D03*
Y199331D02*
D03*
M02*
