G04*
G04 #@! TF.GenerationSoftware,Altium Limited,Altium Designer,18.1.5 (160)*
G04*
G04 Layer_Color=65535*
%FSLAX25Y25*%
%MOIN*%
G70*
G01*
G75*
%ADD10C,0.00984*%
%ADD11C,0.02362*%
%ADD12C,0.00787*%
%ADD13C,0.00800*%
%ADD14C,0.00600*%
%ADD15C,0.01000*%
G36*
X74315Y217521D02*
Y216998D01*
X74054D01*
Y216476D01*
X73793D01*
Y216215D01*
X73532D01*
Y215692D01*
X73270D01*
Y215170D01*
X73009D01*
Y214648D01*
X72748D01*
Y214387D01*
X72487D01*
Y213864D01*
X72226D01*
Y213342D01*
X71965D01*
Y212820D01*
X71703D01*
Y212558D01*
X71442D01*
Y212036D01*
X71181D01*
Y211513D01*
X70920D01*
Y211252D01*
X70659D01*
Y210730D01*
X70397D01*
Y210208D01*
X70136D01*
Y209685D01*
X69875D01*
Y209424D01*
X69614D01*
Y208902D01*
X69353D01*
Y208379D01*
X69091D01*
Y207857D01*
X68830D01*
Y207596D01*
X68569D01*
Y207335D01*
X61256D01*
Y206812D01*
X60995D01*
Y206551D01*
X60734D01*
Y206029D01*
X60472D01*
Y205506D01*
X60211D01*
Y205245D01*
X59950D01*
Y204723D01*
X59689D01*
Y204200D01*
X59428D01*
Y203678D01*
X59167D01*
Y203417D01*
X58905D01*
Y202894D01*
X58644D01*
Y202372D01*
X58383D01*
Y201850D01*
X58122D01*
Y201589D01*
X57860D01*
Y201066D01*
X57599D01*
Y200805D01*
X45324D01*
Y201327D01*
X45063D01*
Y201850D01*
X44801D01*
Y202372D01*
X44540D01*
Y202633D01*
X44279D01*
Y203156D01*
X44018D01*
Y203678D01*
X43757D01*
Y204200D01*
X43495D01*
Y204462D01*
X43234D01*
Y204984D01*
X42973D01*
Y205506D01*
X42712D01*
Y205767D01*
X42451D01*
Y206290D01*
X42189D01*
Y206812D01*
X41928D01*
Y207335D01*
X41667D01*
Y207596D01*
X41406D01*
Y208118D01*
X41145D01*
Y208641D01*
X40884D01*
Y209163D01*
X40622D01*
Y209424D01*
X40361D01*
Y209946D01*
X40100D01*
Y210469D01*
X39839D01*
Y210991D01*
X39578D01*
Y211252D01*
X39839D01*
Y211775D01*
X40100D01*
Y212036D01*
X40361D01*
Y212558D01*
X40622D01*
Y213081D01*
X40884D01*
Y213342D01*
X41145D01*
Y213864D01*
X41406D01*
Y214387D01*
X41667D01*
Y214909D01*
X41928D01*
Y215170D01*
X42189D01*
Y215692D01*
X42451D01*
Y216215D01*
X42712D01*
Y216737D01*
X42973D01*
Y216998D01*
X43234D01*
Y217521D01*
X43495D01*
Y217782D01*
X43234D01*
Y218304D01*
X42973D01*
Y218566D01*
X42712D01*
Y219088D01*
X42451D01*
Y219610D01*
X42189D01*
Y220133D01*
X41928D01*
Y220394D01*
X41667D01*
Y220916D01*
X41406D01*
Y221439D01*
X41145D01*
Y221961D01*
X40884D01*
Y222222D01*
X40622D01*
Y222744D01*
X40361D01*
Y223267D01*
X40100D01*
Y223789D01*
X39839D01*
Y224050D01*
X39578D01*
Y224312D01*
X39839D01*
Y224834D01*
X40100D01*
Y225356D01*
X40361D01*
Y225879D01*
X40622D01*
Y226140D01*
X40884D01*
Y226662D01*
X41145D01*
Y227185D01*
X41406D01*
Y227707D01*
X41667D01*
Y227968D01*
X41928D01*
Y228490D01*
X42189D01*
Y229013D01*
X42451D01*
Y229535D01*
X42712D01*
Y229796D01*
X42973D01*
Y230319D01*
X43234D01*
Y230841D01*
X43495D01*
Y231102D01*
X43757D01*
Y231625D01*
X44018D01*
Y232147D01*
X44279D01*
Y232669D01*
X44540D01*
Y232931D01*
X44801D01*
Y233453D01*
X45063D01*
Y233975D01*
X45324D01*
Y234498D01*
X57599D01*
Y234237D01*
X57860D01*
Y233714D01*
X58122D01*
Y233453D01*
X58383D01*
Y232931D01*
X58644D01*
Y232408D01*
X58905D01*
Y231886D01*
X59167D01*
Y231625D01*
X59428D01*
Y231102D01*
X59689D01*
Y230580D01*
X59950D01*
Y230058D01*
X60211D01*
Y229796D01*
X60472D01*
Y229274D01*
X60734D01*
Y228752D01*
X60995D01*
Y228490D01*
X61256D01*
Y227968D01*
X68569D01*
Y227707D01*
X68830D01*
Y227185D01*
X69091D01*
Y226923D01*
X69353D01*
Y226401D01*
X69614D01*
Y225879D01*
X69875D01*
Y225618D01*
X70136D01*
Y225095D01*
X70397D01*
Y224573D01*
X70659D01*
Y224050D01*
X70920D01*
Y223789D01*
X71181D01*
Y223267D01*
X71442D01*
Y222744D01*
X71703D01*
Y222222D01*
X71965D01*
Y221961D01*
X72226D01*
Y221439D01*
X72487D01*
Y220916D01*
X72748D01*
Y220394D01*
X73009D01*
Y220133D01*
X73270D01*
Y219610D01*
X73532D01*
Y219088D01*
X73793D01*
Y218566D01*
X74054D01*
Y218304D01*
X74315D01*
Y217782D01*
X74576D01*
Y217521D01*
X74315D01*
D02*
G37*
G36*
X74753Y42465D02*
X55532D01*
Y50376D01*
X74753D01*
Y42465D01*
D02*
G37*
G36*
X125354D02*
X101532D01*
Y50309D01*
X125354D01*
Y42465D01*
D02*
G37*
G36*
X34142Y234146D02*
X34131Y234141D01*
X34120Y234124D01*
X34103Y234102D01*
X34064Y234041D01*
X34009Y233963D01*
X33953Y233869D01*
X33892Y233758D01*
X33837Y233636D01*
X33787Y233508D01*
Y233503D01*
X33781Y233492D01*
X33776Y233475D01*
X33770Y233447D01*
X33759Y233414D01*
X33748Y233381D01*
X33726Y233292D01*
X33704Y233186D01*
X33681Y233070D01*
X33670Y232948D01*
X33665Y232826D01*
Y232765D01*
X33670Y232737D01*
Y232654D01*
X33676Y232604D01*
Y232598D01*
X33681Y232581D01*
Y232554D01*
X33687Y232520D01*
X33704Y232448D01*
X33726Y232376D01*
Y232370D01*
X33731Y232359D01*
X33742Y232337D01*
X33759Y232315D01*
X33792Y232259D01*
X33837Y232204D01*
X33842Y232199D01*
X33848Y232193D01*
X33865Y232182D01*
X33887Y232165D01*
X33915Y232154D01*
X33948Y232143D01*
X33987Y232137D01*
X34031Y232132D01*
X34037D01*
X34053D01*
X34070Y232137D01*
X34098Y232143D01*
X34131Y232160D01*
X34164Y232176D01*
X34198Y232204D01*
X34231Y232237D01*
X34236Y232243D01*
X34247Y232254D01*
X34264Y232276D01*
X34281Y232310D01*
X34303Y232354D01*
X34325Y232398D01*
X34347Y232459D01*
X34364Y232526D01*
Y232537D01*
X34375Y232559D01*
X34381Y232604D01*
X34392Y232659D01*
X34408Y232720D01*
X34425Y232792D01*
X34436Y232876D01*
X34453Y232959D01*
Y232970D01*
X34458Y232998D01*
X34470Y233042D01*
X34486Y233092D01*
X34497Y233159D01*
X34519Y233231D01*
X34564Y233381D01*
Y233386D01*
X34569Y233403D01*
X34580Y233425D01*
X34592Y233453D01*
X34603Y233492D01*
X34625Y233536D01*
X34669Y233630D01*
X34725Y233741D01*
X34791Y233847D01*
X34869Y233952D01*
X34914Y233997D01*
X34958Y234035D01*
X34963D01*
X34969Y234041D01*
X34986Y234052D01*
X35002Y234063D01*
X35058Y234097D01*
X35135Y234130D01*
X35224Y234169D01*
X35335Y234196D01*
X35457Y234219D01*
X35591Y234230D01*
X35596D01*
X35613D01*
X35640Y234224D01*
X35674D01*
X35718Y234219D01*
X35768Y234208D01*
X35818Y234191D01*
X35879Y234174D01*
X35946Y234152D01*
X36007Y234119D01*
X36079Y234085D01*
X36146Y234041D01*
X36212Y233991D01*
X36279Y233930D01*
X36345Y233863D01*
X36406Y233786D01*
X36412Y233780D01*
X36423Y233764D01*
X36434Y233741D01*
X36456Y233702D01*
X36479Y233658D01*
X36506Y233608D01*
X36540Y233542D01*
X36567Y233469D01*
X36595Y233392D01*
X36628Y233303D01*
X36656Y233209D01*
X36678Y233109D01*
X36701Y232998D01*
X36717Y232881D01*
X36723Y232753D01*
X36728Y232626D01*
Y232531D01*
X36723Y232498D01*
X36717Y232409D01*
X36712Y232304D01*
X36701Y232187D01*
X36678Y232060D01*
X36656Y231932D01*
Y231926D01*
X36651Y231915D01*
Y231899D01*
X36645Y231871D01*
X36639Y231843D01*
X36628Y231810D01*
X36612Y231727D01*
X36584Y231632D01*
X36556Y231527D01*
X36523Y231427D01*
X36484Y231327D01*
X35663D01*
Y231427D01*
X35668Y231438D01*
X35691Y231466D01*
X35724Y231510D01*
X35763Y231577D01*
X35807Y231655D01*
X35857Y231743D01*
X35907Y231843D01*
X35951Y231960D01*
Y231965D01*
X35957Y231977D01*
X35962Y231993D01*
X35968Y232015D01*
X35979Y232043D01*
X35990Y232076D01*
X36012Y232160D01*
X36029Y232254D01*
X36051Y232365D01*
X36062Y232482D01*
X36068Y232604D01*
Y232676D01*
X36062Y232753D01*
X36051Y232837D01*
Y232842D01*
X36046Y232853D01*
Y232876D01*
X36040Y232903D01*
X36018Y232976D01*
X35990Y233053D01*
Y233059D01*
X35985Y233070D01*
X35974Y233086D01*
X35962Y233109D01*
X35929Y233159D01*
X35879Y233214D01*
X35874D01*
X35868Y233225D01*
X35851Y233236D01*
X35829Y233247D01*
X35779Y233270D01*
X35746Y233275D01*
X35713Y233281D01*
X35707D01*
X35691D01*
X35663Y233275D01*
X35629Y233270D01*
X35596Y233253D01*
X35557Y233236D01*
X35524Y233209D01*
X35491Y233175D01*
X35485Y233170D01*
X35480Y233153D01*
X35463Y233125D01*
X35446Y233081D01*
X35424Y233025D01*
X35402Y232953D01*
X35380Y232870D01*
X35357Y232765D01*
Y232753D01*
X35352Y232731D01*
X35341Y232692D01*
X35330Y232643D01*
X35319Y232587D01*
X35302Y232520D01*
X35274Y232387D01*
Y232376D01*
X35269Y232354D01*
X35258Y232321D01*
X35247Y232271D01*
X35230Y232210D01*
X35213Y232143D01*
X35191Y232071D01*
X35169Y231993D01*
Y231988D01*
X35163Y231977D01*
X35158Y231954D01*
X35147Y231926D01*
X35130Y231893D01*
X35113Y231849D01*
X35074Y231760D01*
X35019Y231660D01*
X34958Y231560D01*
X34886Y231466D01*
X34802Y231383D01*
X34791Y231371D01*
X34758Y231349D01*
X34708Y231322D01*
X34642Y231283D01*
X34553Y231244D01*
X34447Y231216D01*
X34331Y231194D01*
X34198Y231183D01*
X34192D01*
X34175D01*
X34148Y231188D01*
X34109D01*
X34064Y231194D01*
X34009Y231205D01*
X33953Y231222D01*
X33892Y231238D01*
X33820Y231266D01*
X33753Y231294D01*
X33681Y231333D01*
X33609Y231377D01*
X33537Y231427D01*
X33465Y231488D01*
X33398Y231560D01*
X33332Y231638D01*
X33326Y231644D01*
X33315Y231660D01*
X33304Y231682D01*
X33282Y231721D01*
X33254Y231766D01*
X33226Y231821D01*
X33198Y231888D01*
X33171Y231960D01*
X33138Y232043D01*
X33110Y232132D01*
X33082Y232232D01*
X33054Y232343D01*
X33032Y232459D01*
X33021Y232587D01*
X33010Y232720D01*
X33004Y232859D01*
Y232970D01*
X33010Y233014D01*
X33015Y233120D01*
X33021Y233242D01*
X33038Y233375D01*
X33054Y233508D01*
X33082Y233636D01*
Y233642D01*
X33088Y233653D01*
Y233669D01*
X33099Y233691D01*
X33115Y233752D01*
X33138Y233836D01*
X33165Y233930D01*
X33198Y234035D01*
X33276Y234252D01*
X34142D01*
Y234146D01*
D02*
G37*
G36*
X36656Y229629D02*
Y228558D01*
X33071Y227231D01*
Y228197D01*
X33792Y228447D01*
Y229768D01*
X33071Y230017D01*
Y230950D01*
X36656Y229629D01*
D02*
G37*
G36*
X34142Y226809D02*
X34131Y226804D01*
X34120Y226787D01*
X34103Y226765D01*
X34064Y226704D01*
X34009Y226626D01*
X33953Y226532D01*
X33892Y226421D01*
X33837Y226299D01*
X33787Y226171D01*
Y226166D01*
X33781Y226154D01*
X33776Y226138D01*
X33770Y226110D01*
X33759Y226077D01*
X33748Y226044D01*
X33726Y225955D01*
X33704Y225849D01*
X33681Y225733D01*
X33670Y225611D01*
X33665Y225488D01*
Y225428D01*
X33670Y225400D01*
Y225317D01*
X33676Y225267D01*
Y225261D01*
X33681Y225244D01*
Y225217D01*
X33687Y225183D01*
X33704Y225111D01*
X33726Y225039D01*
Y225033D01*
X33731Y225022D01*
X33742Y225000D01*
X33759Y224978D01*
X33792Y224922D01*
X33837Y224867D01*
X33842Y224861D01*
X33848Y224856D01*
X33865Y224845D01*
X33887Y224828D01*
X33915Y224817D01*
X33948Y224806D01*
X33987Y224800D01*
X34031Y224795D01*
X34037D01*
X34053D01*
X34070Y224800D01*
X34098Y224806D01*
X34131Y224822D01*
X34164Y224839D01*
X34198Y224867D01*
X34231Y224900D01*
X34236Y224906D01*
X34247Y224917D01*
X34264Y224939D01*
X34281Y224972D01*
X34303Y225017D01*
X34325Y225061D01*
X34347Y225122D01*
X34364Y225189D01*
Y225200D01*
X34375Y225222D01*
X34381Y225267D01*
X34392Y225322D01*
X34408Y225383D01*
X34425Y225455D01*
X34436Y225538D01*
X34453Y225622D01*
Y225633D01*
X34458Y225661D01*
X34470Y225705D01*
X34486Y225755D01*
X34497Y225821D01*
X34519Y225894D01*
X34564Y226044D01*
Y226049D01*
X34569Y226066D01*
X34580Y226088D01*
X34592Y226116D01*
X34603Y226154D01*
X34625Y226199D01*
X34669Y226293D01*
X34725Y226404D01*
X34791Y226510D01*
X34869Y226615D01*
X34914Y226660D01*
X34958Y226698D01*
X34963D01*
X34969Y226704D01*
X34986Y226715D01*
X35002Y226726D01*
X35058Y226760D01*
X35135Y226793D01*
X35224Y226832D01*
X35335Y226859D01*
X35457Y226882D01*
X35591Y226893D01*
X35596D01*
X35613D01*
X35640Y226887D01*
X35674D01*
X35718Y226882D01*
X35768Y226870D01*
X35818Y226854D01*
X35879Y226837D01*
X35946Y226815D01*
X36007Y226782D01*
X36079Y226748D01*
X36146Y226704D01*
X36212Y226654D01*
X36279Y226593D01*
X36345Y226526D01*
X36406Y226449D01*
X36412Y226443D01*
X36423Y226427D01*
X36434Y226404D01*
X36456Y226365D01*
X36479Y226321D01*
X36506Y226271D01*
X36540Y226204D01*
X36567Y226132D01*
X36595Y226055D01*
X36628Y225966D01*
X36656Y225871D01*
X36678Y225772D01*
X36701Y225661D01*
X36717Y225544D01*
X36723Y225416D01*
X36728Y225289D01*
Y225194D01*
X36723Y225161D01*
X36717Y225072D01*
X36712Y224967D01*
X36701Y224850D01*
X36678Y224723D01*
X36656Y224595D01*
Y224589D01*
X36651Y224578D01*
Y224562D01*
X36645Y224534D01*
X36639Y224506D01*
X36628Y224473D01*
X36612Y224390D01*
X36584Y224295D01*
X36556Y224190D01*
X36523Y224090D01*
X36484Y223990D01*
X35663D01*
Y224090D01*
X35668Y224101D01*
X35691Y224129D01*
X35724Y224173D01*
X35763Y224240D01*
X35807Y224318D01*
X35857Y224406D01*
X35907Y224506D01*
X35951Y224623D01*
Y224628D01*
X35957Y224639D01*
X35962Y224656D01*
X35968Y224678D01*
X35979Y224706D01*
X35990Y224739D01*
X36012Y224822D01*
X36029Y224917D01*
X36051Y225028D01*
X36062Y225144D01*
X36068Y225267D01*
Y225339D01*
X36062Y225416D01*
X36051Y225500D01*
Y225505D01*
X36046Y225516D01*
Y225538D01*
X36040Y225566D01*
X36018Y225638D01*
X35990Y225716D01*
Y225722D01*
X35985Y225733D01*
X35974Y225749D01*
X35962Y225772D01*
X35929Y225821D01*
X35879Y225877D01*
X35874D01*
X35868Y225888D01*
X35851Y225899D01*
X35829Y225910D01*
X35779Y225933D01*
X35746Y225938D01*
X35713Y225944D01*
X35707D01*
X35691D01*
X35663Y225938D01*
X35629Y225933D01*
X35596Y225916D01*
X35557Y225899D01*
X35524Y225871D01*
X35491Y225838D01*
X35485Y225833D01*
X35480Y225816D01*
X35463Y225788D01*
X35446Y225744D01*
X35424Y225688D01*
X35402Y225616D01*
X35380Y225533D01*
X35357Y225428D01*
Y225416D01*
X35352Y225394D01*
X35341Y225355D01*
X35330Y225305D01*
X35319Y225250D01*
X35302Y225183D01*
X35274Y225050D01*
Y225039D01*
X35269Y225017D01*
X35258Y224984D01*
X35247Y224934D01*
X35230Y224872D01*
X35213Y224806D01*
X35191Y224734D01*
X35169Y224656D01*
Y224651D01*
X35163Y224639D01*
X35158Y224617D01*
X35147Y224589D01*
X35130Y224556D01*
X35113Y224512D01*
X35074Y224423D01*
X35019Y224323D01*
X34958Y224223D01*
X34886Y224129D01*
X34802Y224045D01*
X34791Y224034D01*
X34758Y224012D01*
X34708Y223985D01*
X34642Y223946D01*
X34553Y223907D01*
X34447Y223879D01*
X34331Y223857D01*
X34198Y223846D01*
X34192D01*
X34175D01*
X34148Y223851D01*
X34109D01*
X34064Y223857D01*
X34009Y223868D01*
X33953Y223885D01*
X33892Y223901D01*
X33820Y223929D01*
X33753Y223957D01*
X33681Y223996D01*
X33609Y224040D01*
X33537Y224090D01*
X33465Y224151D01*
X33398Y224223D01*
X33332Y224301D01*
X33326Y224306D01*
X33315Y224323D01*
X33304Y224345D01*
X33282Y224384D01*
X33254Y224429D01*
X33226Y224484D01*
X33198Y224551D01*
X33171Y224623D01*
X33138Y224706D01*
X33110Y224795D01*
X33082Y224895D01*
X33054Y225006D01*
X33032Y225122D01*
X33021Y225250D01*
X33010Y225383D01*
X33004Y225522D01*
Y225633D01*
X33010Y225677D01*
X33015Y225783D01*
X33021Y225905D01*
X33038Y226038D01*
X33054Y226171D01*
X33082Y226299D01*
Y226304D01*
X33088Y226315D01*
Y226332D01*
X33099Y226354D01*
X33115Y226415D01*
X33138Y226499D01*
X33165Y226593D01*
X33198Y226698D01*
X33276Y226915D01*
X34142D01*
Y226809D01*
D02*
G37*
G36*
X36656Y222292D02*
Y221221D01*
X33071Y219894D01*
Y220860D01*
X33792Y221110D01*
Y222430D01*
X33071Y222680D01*
Y223613D01*
X36656Y222292D01*
D02*
G37*
G36*
Y218457D02*
X35036D01*
X36656Y217186D01*
Y216109D01*
X34997Y217508D01*
X33071Y216037D01*
Y217180D01*
X34503Y218246D01*
X34236Y218457D01*
X33071D01*
Y219384D01*
X36656D01*
Y218457D01*
D02*
G37*
G36*
Y214661D02*
Y213589D01*
X33071Y212263D01*
Y213229D01*
X33792Y213478D01*
Y214799D01*
X33071Y215049D01*
Y215981D01*
X36656Y214661D01*
D02*
G37*
G36*
Y210093D02*
X36651Y210015D01*
X36645Y209932D01*
X36639Y209843D01*
X36628Y209749D01*
X36617Y209660D01*
Y209649D01*
X36612Y209621D01*
X36601Y209577D01*
X36584Y209516D01*
X36562Y209449D01*
X36534Y209377D01*
X36501Y209305D01*
X36462Y209227D01*
X36456Y209216D01*
X36440Y209194D01*
X36412Y209155D01*
X36379Y209110D01*
X36329Y209061D01*
X36279Y209005D01*
X36218Y208949D01*
X36146Y208905D01*
X36134Y208900D01*
X36112Y208889D01*
X36073Y208866D01*
X36018Y208844D01*
X35946Y208822D01*
X35862Y208800D01*
X35774Y208789D01*
X35668Y208783D01*
X35663D01*
X35652D01*
X35629D01*
X35602D01*
X35568Y208789D01*
X35530Y208794D01*
X35441Y208805D01*
X35335Y208827D01*
X35230Y208861D01*
X35119Y208911D01*
X35019Y208972D01*
X35008Y208983D01*
X34980Y209005D01*
X34930Y209049D01*
X34875Y209105D01*
X34808Y209177D01*
X34736Y209271D01*
X34669Y209371D01*
X34603Y209493D01*
X33071Y208295D01*
X36656Y206974D01*
Y205903D01*
X33071Y204576D01*
Y205542D01*
X33792Y205792D01*
Y207113D01*
X33071Y207362D01*
Y208295D01*
Y209432D01*
X34386Y210409D01*
Y210825D01*
X33071D01*
Y211752D01*
X36656D01*
Y210093D01*
D02*
G37*
G36*
Y202961D02*
X34597Y201646D01*
X36656D01*
Y200797D01*
X33071D01*
Y201690D01*
X35530Y203216D01*
X33071D01*
Y204065D01*
X36656D01*
Y202961D01*
D02*
G37*
G36*
X34941Y200086D02*
X35002D01*
X35074Y200075D01*
X35158Y200064D01*
X35252Y200053D01*
X35352Y200031D01*
X35463Y200003D01*
X35574Y199970D01*
X35685Y199931D01*
X35802Y199886D01*
X35912Y199831D01*
X36024Y199764D01*
X36123Y199687D01*
X36223Y199603D01*
X36229Y199598D01*
X36246Y199581D01*
X36268Y199553D01*
X36301Y199514D01*
X36340Y199465D01*
X36384Y199404D01*
X36429Y199331D01*
X36479Y199248D01*
X36523Y199159D01*
X36567Y199054D01*
X36612Y198943D01*
X36651Y198821D01*
X36684Y198693D01*
X36706Y198554D01*
X36723Y198405D01*
X36728Y198249D01*
Y198210D01*
X36723Y198166D01*
Y198105D01*
X36712Y198033D01*
X36701Y197949D01*
X36684Y197855D01*
X36667Y197755D01*
X36639Y197650D01*
X36606Y197539D01*
X36562Y197422D01*
X36517Y197311D01*
X36456Y197200D01*
X36390Y197089D01*
X36312Y196984D01*
X36223Y196889D01*
X36218Y196884D01*
X36201Y196867D01*
X36173Y196845D01*
X36134Y196812D01*
X36079Y196773D01*
X36018Y196734D01*
X35946Y196690D01*
X35868Y196640D01*
X35774Y196595D01*
X35668Y196551D01*
X35557Y196512D01*
X35435Y196473D01*
X35307Y196440D01*
X35163Y196418D01*
X35019Y196401D01*
X34858Y196395D01*
X34847D01*
X34819D01*
X34775Y196401D01*
X34719D01*
X34647Y196412D01*
X34564Y196423D01*
X34470Y196434D01*
X34370Y196457D01*
X34259Y196484D01*
X34153Y196518D01*
X34037Y196556D01*
X33926Y196606D01*
X33809Y196662D01*
X33704Y196728D01*
X33598Y196801D01*
X33498Y196889D01*
X33493Y196895D01*
X33476Y196912D01*
X33454Y196939D01*
X33421Y196978D01*
X33382Y197028D01*
X33343Y197089D01*
X33293Y197161D01*
X33248Y197245D01*
X33204Y197339D01*
X33160Y197439D01*
X33115Y197550D01*
X33076Y197672D01*
X33043Y197800D01*
X33021Y197944D01*
X33004Y198094D01*
X32999Y198249D01*
Y198288D01*
X33004Y198332D01*
Y198393D01*
X33015Y198466D01*
X33026Y198549D01*
X33043Y198638D01*
X33060Y198743D01*
X33088Y198848D01*
X33121Y198960D01*
X33160Y199071D01*
X33210Y199181D01*
X33265Y199293D01*
X33332Y199404D01*
X33409Y199509D01*
X33498Y199603D01*
X33504Y199609D01*
X33520Y199626D01*
X33548Y199648D01*
X33593Y199681D01*
X33643Y199714D01*
X33704Y199759D01*
X33776Y199803D01*
X33859Y199847D01*
X33948Y199892D01*
X34053Y199936D01*
X34164Y199981D01*
X34286Y200014D01*
X34414Y200047D01*
X34553Y200069D01*
X34703Y200086D01*
X34858Y200092D01*
X34869D01*
X34897D01*
X34941Y200086D01*
D02*
G37*
G36*
X36656Y195124D02*
X34125Y194253D01*
X36656Y193382D01*
Y192433D01*
X33071Y193748D01*
Y194780D01*
X36656Y196090D01*
Y195124D01*
D02*
G37*
G36*
Y189980D02*
X36018D01*
Y190568D01*
X33709D01*
Y189980D01*
X33071D01*
Y192083D01*
X33709D01*
Y191495D01*
X36018D01*
Y192083D01*
X36656D01*
Y189980D01*
D02*
G37*
G36*
X34969Y189430D02*
X35013D01*
X35113Y189419D01*
X35235Y189408D01*
X35363Y189386D01*
X35496Y189353D01*
X35629Y189314D01*
X35635D01*
X35646Y189308D01*
X35663Y189303D01*
X35691Y189291D01*
X35718Y189275D01*
X35752Y189258D01*
X35835Y189219D01*
X35929Y189169D01*
X36029Y189103D01*
X36129Y189025D01*
X36229Y188942D01*
X36234Y188936D01*
X36240Y188931D01*
X36268Y188897D01*
X36312Y188847D01*
X36362Y188781D01*
X36423Y188698D01*
X36484Y188598D01*
X36545Y188487D01*
X36595Y188365D01*
Y188359D01*
X36601Y188348D01*
X36606Y188331D01*
X36617Y188303D01*
X36628Y188270D01*
X36639Y188231D01*
X36651Y188187D01*
X36662Y188137D01*
X36684Y188026D01*
X36706Y187898D01*
X36723Y187760D01*
X36728Y187610D01*
Y187527D01*
X36723Y187471D01*
Y187410D01*
X36717Y187338D01*
X36701Y187199D01*
Y187188D01*
X36695Y187166D01*
X36689Y187133D01*
X36684Y187088D01*
X36673Y187038D01*
X36662Y186983D01*
X36634Y186866D01*
Y186861D01*
X36628Y186838D01*
X36617Y186811D01*
X36606Y186766D01*
X36590Y186722D01*
X36573Y186672D01*
X36529Y186572D01*
Y186566D01*
X36517Y186550D01*
X36506Y186522D01*
X36495Y186494D01*
X36462Y186416D01*
X36429Y186339D01*
X35557D01*
Y186455D01*
X35568Y186461D01*
X35579Y186478D01*
X35596Y186494D01*
X35635Y186550D01*
X35691Y186622D01*
X35696Y186627D01*
X35707Y186638D01*
X35718Y186661D01*
X35740Y186688D01*
X35763Y186722D01*
X35790Y186761D01*
X35846Y186849D01*
X35851Y186855D01*
X35857Y186872D01*
X35874Y186899D01*
X35890Y186933D01*
X35912Y186977D01*
X35935Y187027D01*
X35979Y187138D01*
Y187144D01*
X35990Y187166D01*
X35996Y187194D01*
X36007Y187232D01*
X36018Y187282D01*
X36024Y187338D01*
X36035Y187466D01*
Y187499D01*
X36029Y187538D01*
Y187582D01*
X36018Y187643D01*
X36007Y187704D01*
X35990Y187771D01*
X35968Y187837D01*
Y187843D01*
X35957Y187865D01*
X35940Y187898D01*
X35918Y187943D01*
X35890Y187993D01*
X35857Y188048D01*
X35818Y188104D01*
X35768Y188159D01*
X35763Y188165D01*
X35740Y188181D01*
X35713Y188209D01*
X35668Y188242D01*
X35618Y188281D01*
X35557Y188320D01*
X35485Y188359D01*
X35402Y188392D01*
X35391Y188398D01*
X35363Y188403D01*
X35313Y188420D01*
X35252Y188431D01*
X35169Y188448D01*
X35074Y188464D01*
X34969Y188470D01*
X34852Y188476D01*
X34847D01*
X34836D01*
X34819D01*
X34797D01*
X34736Y188470D01*
X34658Y188464D01*
X34569Y188453D01*
X34475Y188437D01*
X34381Y188415D01*
X34292Y188381D01*
X34281Y188376D01*
X34253Y188365D01*
X34214Y188342D01*
X34164Y188315D01*
X34103Y188281D01*
X34048Y188242D01*
X33987Y188192D01*
X33937Y188143D01*
X33931Y188137D01*
X33915Y188115D01*
X33892Y188087D01*
X33865Y188048D01*
X33831Y187998D01*
X33803Y187948D01*
X33770Y187887D01*
X33748Y187821D01*
Y187810D01*
X33737Y187787D01*
X33731Y187754D01*
X33720Y187704D01*
X33709Y187654D01*
X33704Y187593D01*
X33692Y187460D01*
Y187432D01*
X33698Y187399D01*
Y187355D01*
X33704Y187304D01*
X33715Y187249D01*
X33742Y187127D01*
Y187121D01*
X33753Y187099D01*
X33765Y187066D01*
X33776Y187027D01*
X33798Y186977D01*
X33820Y186927D01*
X33876Y186822D01*
X33881Y186816D01*
X33887Y186800D01*
X33903Y186777D01*
X33920Y186749D01*
X33970Y186683D01*
X34025Y186605D01*
X34031Y186600D01*
X34037Y186589D01*
X34053Y186572D01*
X34070Y186544D01*
X34114Y186494D01*
X34164Y186439D01*
Y186339D01*
X33304D01*
Y186344D01*
X33293Y186361D01*
X33282Y186389D01*
X33265Y186422D01*
X33248Y186461D01*
X33232Y186505D01*
X33187Y186600D01*
Y186605D01*
X33182Y186622D01*
X33171Y186644D01*
X33160Y186677D01*
X33143Y186716D01*
X33126Y186761D01*
X33099Y186855D01*
Y186861D01*
X33093Y186883D01*
X33082Y186922D01*
X33071Y186960D01*
X33060Y187016D01*
X33049Y187071D01*
X33026Y187188D01*
Y187194D01*
X33021Y187216D01*
X33015Y187249D01*
Y187299D01*
X33010Y187355D01*
X33004Y187427D01*
X32999Y187515D01*
Y187676D01*
X33004Y187715D01*
Y187754D01*
X33015Y187854D01*
X33026Y187965D01*
X33049Y188087D01*
X33076Y188220D01*
X33115Y188348D01*
Y188354D01*
X33121Y188365D01*
X33126Y188381D01*
X33138Y188403D01*
X33165Y188470D01*
X33204Y188548D01*
X33254Y188637D01*
X33310Y188736D01*
X33382Y188836D01*
X33465Y188931D01*
X33470D01*
X33476Y188942D01*
X33509Y188970D01*
X33559Y189014D01*
X33626Y189064D01*
X33709Y189125D01*
X33809Y189186D01*
X33920Y189247D01*
X34048Y189303D01*
X34053D01*
X34064Y189308D01*
X34081Y189314D01*
X34109Y189325D01*
X34142Y189336D01*
X34181Y189347D01*
X34231Y189358D01*
X34281Y189369D01*
X34397Y189391D01*
X34536Y189413D01*
X34692Y189430D01*
X34858Y189436D01*
X34863D01*
X34875D01*
X34902D01*
X34930D01*
X34969Y189430D01*
D02*
G37*
G36*
X34020Y184779D02*
X33071D01*
Y185678D01*
X34020D01*
Y184779D01*
D02*
G37*
G36*
X34969Y184080D02*
X35013D01*
X35113Y184069D01*
X35235Y184058D01*
X35363Y184036D01*
X35496Y184002D01*
X35629Y183963D01*
X35635D01*
X35646Y183958D01*
X35663Y183952D01*
X35691Y183941D01*
X35718Y183925D01*
X35752Y183908D01*
X35835Y183869D01*
X35929Y183819D01*
X36029Y183753D01*
X36129Y183675D01*
X36229Y183592D01*
X36234Y183586D01*
X36240Y183581D01*
X36268Y183547D01*
X36312Y183497D01*
X36362Y183431D01*
X36423Y183347D01*
X36484Y183247D01*
X36545Y183136D01*
X36595Y183014D01*
Y183009D01*
X36601Y182998D01*
X36606Y182981D01*
X36617Y182953D01*
X36628Y182920D01*
X36639Y182881D01*
X36651Y182837D01*
X36662Y182787D01*
X36684Y182676D01*
X36706Y182548D01*
X36723Y182409D01*
X36728Y182260D01*
Y182176D01*
X36723Y182121D01*
Y182060D01*
X36717Y181988D01*
X36701Y181849D01*
Y181838D01*
X36695Y181816D01*
X36689Y181782D01*
X36684Y181738D01*
X36673Y181688D01*
X36662Y181632D01*
X36634Y181516D01*
Y181510D01*
X36628Y181488D01*
X36617Y181460D01*
X36606Y181416D01*
X36590Y181372D01*
X36573Y181322D01*
X36529Y181222D01*
Y181216D01*
X36517Y181200D01*
X36506Y181172D01*
X36495Y181144D01*
X36462Y181066D01*
X36429Y180989D01*
X35557D01*
Y181105D01*
X35568Y181111D01*
X35579Y181127D01*
X35596Y181144D01*
X35635Y181200D01*
X35691Y181272D01*
X35696Y181277D01*
X35707Y181288D01*
X35718Y181310D01*
X35740Y181338D01*
X35763Y181372D01*
X35790Y181410D01*
X35846Y181499D01*
X35851Y181505D01*
X35857Y181521D01*
X35874Y181549D01*
X35890Y181582D01*
X35912Y181627D01*
X35935Y181677D01*
X35979Y181788D01*
Y181793D01*
X35990Y181816D01*
X35996Y181843D01*
X36007Y181882D01*
X36018Y181932D01*
X36024Y181988D01*
X36035Y182115D01*
Y182149D01*
X36029Y182187D01*
Y182232D01*
X36018Y182293D01*
X36007Y182354D01*
X35990Y182421D01*
X35968Y182487D01*
Y182493D01*
X35957Y182515D01*
X35940Y182548D01*
X35918Y182593D01*
X35890Y182642D01*
X35857Y182698D01*
X35818Y182754D01*
X35768Y182809D01*
X35763Y182815D01*
X35740Y182831D01*
X35713Y182859D01*
X35668Y182892D01*
X35618Y182931D01*
X35557Y182970D01*
X35485Y183009D01*
X35402Y183042D01*
X35391Y183048D01*
X35363Y183053D01*
X35313Y183070D01*
X35252Y183081D01*
X35169Y183098D01*
X35074Y183114D01*
X34969Y183120D01*
X34852Y183125D01*
X34847D01*
X34836D01*
X34819D01*
X34797D01*
X34736Y183120D01*
X34658Y183114D01*
X34569Y183103D01*
X34475Y183087D01*
X34381Y183064D01*
X34292Y183031D01*
X34281Y183026D01*
X34253Y183014D01*
X34214Y182992D01*
X34164Y182964D01*
X34103Y182931D01*
X34048Y182892D01*
X33987Y182842D01*
X33937Y182792D01*
X33931Y182787D01*
X33915Y182765D01*
X33892Y182737D01*
X33865Y182698D01*
X33831Y182648D01*
X33803Y182598D01*
X33770Y182537D01*
X33748Y182471D01*
Y182459D01*
X33737Y182437D01*
X33731Y182404D01*
X33720Y182354D01*
X33709Y182304D01*
X33704Y182243D01*
X33692Y182110D01*
Y182082D01*
X33698Y182049D01*
Y182004D01*
X33704Y181954D01*
X33715Y181899D01*
X33742Y181777D01*
Y181771D01*
X33753Y181749D01*
X33765Y181716D01*
X33776Y181677D01*
X33798Y181627D01*
X33820Y181577D01*
X33876Y181472D01*
X33881Y181466D01*
X33887Y181449D01*
X33903Y181427D01*
X33920Y181399D01*
X33970Y181333D01*
X34025Y181255D01*
X34031Y181249D01*
X34037Y181238D01*
X34053Y181222D01*
X34070Y181194D01*
X34114Y181144D01*
X34164Y181088D01*
Y180989D01*
X33304D01*
Y180994D01*
X33293Y181011D01*
X33282Y181039D01*
X33265Y181072D01*
X33248Y181111D01*
X33232Y181155D01*
X33187Y181249D01*
Y181255D01*
X33182Y181272D01*
X33171Y181294D01*
X33160Y181327D01*
X33143Y181366D01*
X33126Y181410D01*
X33099Y181505D01*
Y181510D01*
X33093Y181533D01*
X33082Y181571D01*
X33071Y181610D01*
X33060Y181666D01*
X33049Y181721D01*
X33026Y181838D01*
Y181843D01*
X33021Y181866D01*
X33015Y181899D01*
Y181949D01*
X33010Y182004D01*
X33004Y182076D01*
X32999Y182165D01*
Y182326D01*
X33004Y182365D01*
Y182404D01*
X33015Y182504D01*
X33026Y182615D01*
X33049Y182737D01*
X33076Y182870D01*
X33115Y182998D01*
Y183003D01*
X33121Y183014D01*
X33126Y183031D01*
X33138Y183053D01*
X33165Y183120D01*
X33204Y183197D01*
X33254Y183286D01*
X33310Y183386D01*
X33382Y183486D01*
X33465Y183581D01*
X33470D01*
X33476Y183592D01*
X33509Y183619D01*
X33559Y183664D01*
X33626Y183714D01*
X33709Y183775D01*
X33809Y183836D01*
X33920Y183897D01*
X34048Y183952D01*
X34053D01*
X34064Y183958D01*
X34081Y183963D01*
X34109Y183975D01*
X34142Y183986D01*
X34181Y183997D01*
X34231Y184008D01*
X34281Y184019D01*
X34397Y184041D01*
X34536Y184063D01*
X34692Y184080D01*
X34858Y184086D01*
X34863D01*
X34875D01*
X34902D01*
X34930D01*
X34969Y184080D01*
D02*
G37*
G36*
X34941Y180511D02*
X35002D01*
X35074Y180500D01*
X35158Y180489D01*
X35252Y180478D01*
X35352Y180456D01*
X35463Y180428D01*
X35574Y180395D01*
X35685Y180356D01*
X35802Y180312D01*
X35912Y180256D01*
X36024Y180189D01*
X36123Y180112D01*
X36223Y180028D01*
X36229Y180023D01*
X36246Y180006D01*
X36268Y179979D01*
X36301Y179940D01*
X36340Y179890D01*
X36384Y179829D01*
X36429Y179756D01*
X36479Y179673D01*
X36523Y179585D01*
X36567Y179479D01*
X36612Y179368D01*
X36651Y179246D01*
X36684Y179118D01*
X36706Y178980D01*
X36723Y178830D01*
X36728Y178674D01*
Y178635D01*
X36723Y178591D01*
Y178530D01*
X36712Y178458D01*
X36701Y178375D01*
X36684Y178280D01*
X36667Y178180D01*
X36639Y178075D01*
X36606Y177964D01*
X36562Y177847D01*
X36517Y177736D01*
X36456Y177625D01*
X36390Y177514D01*
X36312Y177409D01*
X36223Y177314D01*
X36218Y177309D01*
X36201Y177292D01*
X36173Y177270D01*
X36134Y177237D01*
X36079Y177198D01*
X36018Y177159D01*
X35946Y177115D01*
X35868Y177065D01*
X35774Y177020D01*
X35668Y176976D01*
X35557Y176937D01*
X35435Y176898D01*
X35307Y176865D01*
X35163Y176843D01*
X35019Y176826D01*
X34858Y176821D01*
X34847D01*
X34819D01*
X34775Y176826D01*
X34719D01*
X34647Y176837D01*
X34564Y176848D01*
X34470Y176859D01*
X34370Y176882D01*
X34259Y176909D01*
X34153Y176943D01*
X34037Y176981D01*
X33926Y177032D01*
X33809Y177087D01*
X33704Y177154D01*
X33598Y177226D01*
X33498Y177314D01*
X33493Y177320D01*
X33476Y177337D01*
X33454Y177365D01*
X33421Y177403D01*
X33382Y177453D01*
X33343Y177514D01*
X33293Y177586D01*
X33248Y177670D01*
X33204Y177764D01*
X33160Y177864D01*
X33115Y177975D01*
X33076Y178097D01*
X33043Y178225D01*
X33021Y178369D01*
X33004Y178519D01*
X32999Y178674D01*
Y178713D01*
X33004Y178758D01*
Y178819D01*
X33015Y178891D01*
X33026Y178974D01*
X33043Y179063D01*
X33060Y179168D01*
X33088Y179274D01*
X33121Y179385D01*
X33160Y179496D01*
X33210Y179607D01*
X33265Y179718D01*
X33332Y179829D01*
X33409Y179934D01*
X33498Y180028D01*
X33504Y180034D01*
X33520Y180051D01*
X33548Y180073D01*
X33593Y180106D01*
X33643Y180140D01*
X33704Y180184D01*
X33776Y180228D01*
X33859Y180273D01*
X33948Y180317D01*
X34053Y180361D01*
X34164Y180406D01*
X34286Y180439D01*
X34414Y180473D01*
X34553Y180495D01*
X34703Y180511D01*
X34858Y180517D01*
X34869D01*
X34897D01*
X34941Y180511D01*
D02*
G37*
G36*
X36656Y175045D02*
X34858Y174234D01*
X36656Y173430D01*
Y172347D01*
X33071D01*
Y173274D01*
X35469D01*
X33915Y173940D01*
Y174584D01*
X35469Y175244D01*
X33071D01*
Y176116D01*
X36656D01*
Y175045D01*
D02*
G37*
G36*
X28782Y232931D02*
Y231860D01*
X25197Y230534D01*
Y231499D01*
X25918Y231749D01*
Y233070D01*
X25197Y233320D01*
Y234252D01*
X28782Y232931D01*
D02*
G37*
G36*
Y229146D02*
X26546D01*
X26540D01*
X26529D01*
X26512D01*
X26485D01*
X26418Y229135D01*
X26335Y229124D01*
X26240Y229107D01*
X26151Y229079D01*
X26063Y229041D01*
X25985Y228991D01*
X25979Y228985D01*
X25957Y228963D01*
X25929Y228924D01*
X25896Y228869D01*
X25863Y228796D01*
X25835Y228708D01*
X25813Y228602D01*
X25807Y228480D01*
Y228447D01*
X25813Y228425D01*
X25818Y228363D01*
X25830Y228286D01*
X25852Y228203D01*
X25879Y228119D01*
X25924Y228036D01*
X25979Y227969D01*
X25991Y227964D01*
X26013Y227942D01*
X26057Y227914D01*
X26118Y227886D01*
X26196Y227853D01*
X26296Y227831D01*
X26412Y227808D01*
X26546Y227803D01*
X28782D01*
Y226876D01*
X26496D01*
X26490D01*
X26468D01*
X26434D01*
X26385Y226882D01*
X26329Y226887D01*
X26268Y226898D01*
X26196Y226909D01*
X26118Y226926D01*
X26035Y226948D01*
X25952Y226976D01*
X25868Y227009D01*
X25785Y227048D01*
X25702Y227098D01*
X25619Y227153D01*
X25547Y227215D01*
X25474Y227287D01*
X25469Y227292D01*
X25458Y227303D01*
X25441Y227331D01*
X25419Y227364D01*
X25391Y227403D01*
X25363Y227459D01*
X25330Y227520D01*
X25302Y227586D01*
X25269Y227670D01*
X25236Y227759D01*
X25208Y227853D01*
X25180Y227958D01*
X25158Y228075D01*
X25141Y228203D01*
X25130Y228336D01*
X25125Y228480D01*
Y228558D01*
X25130Y228608D01*
X25136Y228674D01*
X25141Y228752D01*
X25153Y228835D01*
X25169Y228924D01*
X25208Y229118D01*
X25241Y229218D01*
X25275Y229318D01*
X25313Y229412D01*
X25358Y229507D01*
X25413Y229595D01*
X25474Y229673D01*
X25480Y229679D01*
X25491Y229690D01*
X25513Y229712D01*
X25541Y229734D01*
X25580Y229768D01*
X25624Y229801D01*
X25674Y229834D01*
X25735Y229873D01*
X25802Y229912D01*
X25879Y229945D01*
X25963Y229978D01*
X26052Y230012D01*
X26151Y230034D01*
X26257Y230056D01*
X26368Y230067D01*
X26490Y230073D01*
X28782D01*
Y229146D01*
D02*
G37*
G36*
X27073Y226216D02*
X27134Y226210D01*
X27206Y226204D01*
X27284Y226193D01*
X27378Y226177D01*
X27478Y226154D01*
X27578Y226127D01*
X27689Y226094D01*
X27800Y226049D01*
X27911Y225999D01*
X28027Y225944D01*
X28133Y225871D01*
X28238Y225794D01*
X28338Y225699D01*
X28344Y225694D01*
X28360Y225677D01*
X28388Y225644D01*
X28421Y225605D01*
X28460Y225550D01*
X28499Y225483D01*
X28549Y225411D01*
X28599Y225322D01*
X28643Y225222D01*
X28693Y225117D01*
X28732Y224995D01*
X28777Y224867D01*
X28804Y224728D01*
X28832Y224573D01*
X28849Y224417D01*
X28854Y224245D01*
Y224151D01*
X28849Y224118D01*
Y224029D01*
X28838Y223923D01*
X28827Y223812D01*
X28810Y223696D01*
X28788Y223574D01*
Y223568D01*
X28782Y223557D01*
Y223540D01*
X28777Y223518D01*
X28765Y223485D01*
X28754Y223452D01*
X28732Y223363D01*
X28699Y223257D01*
X28655Y223135D01*
X28599Y223002D01*
X28532Y222858D01*
X27694D01*
Y222969D01*
X27705Y222974D01*
X27717Y222991D01*
X27733Y223013D01*
X27750Y223041D01*
X27772Y223074D01*
X27800Y223119D01*
X27833Y223163D01*
X27839Y223169D01*
X27850Y223185D01*
X27866Y223207D01*
X27889Y223241D01*
X27916Y223280D01*
X27939Y223324D01*
X27994Y223413D01*
X28000Y223418D01*
X28005Y223435D01*
X28022Y223468D01*
X28038Y223507D01*
X28061Y223552D01*
X28083Y223607D01*
X28105Y223674D01*
X28127Y223740D01*
Y223746D01*
X28138Y223774D01*
X28144Y223807D01*
X28155Y223857D01*
X28166Y223918D01*
X28172Y223985D01*
X28183Y224057D01*
Y224173D01*
X28177Y224223D01*
X28172Y224279D01*
X28166Y224351D01*
X28155Y224423D01*
X28133Y224501D01*
X28111Y224578D01*
X28105Y224589D01*
X28100Y224612D01*
X28077Y224651D01*
X28055Y224700D01*
X28027Y224756D01*
X27988Y224817D01*
X27944Y224878D01*
X27889Y224939D01*
X27883Y224945D01*
X27861Y224961D01*
X27833Y224989D01*
X27789Y225022D01*
X27733Y225061D01*
X27672Y225100D01*
X27600Y225144D01*
X27517Y225178D01*
X27506Y225183D01*
X27478Y225189D01*
X27433Y225205D01*
X27373Y225217D01*
X27295Y225233D01*
X27206Y225250D01*
X27112Y225255D01*
X27006Y225261D01*
X27001D01*
X26978D01*
X26951D01*
X26906Y225255D01*
X26856Y225250D01*
X26801Y225244D01*
X26740Y225233D01*
X26668Y225222D01*
X26523Y225183D01*
X26373Y225128D01*
X26296Y225095D01*
X26224Y225050D01*
X26157Y225006D01*
X26096Y224950D01*
X26090Y224945D01*
X26085Y224934D01*
X26068Y224917D01*
X26046Y224889D01*
X26024Y224856D01*
X25996Y224817D01*
X25968Y224767D01*
X25941Y224717D01*
X25913Y224651D01*
X25885Y224584D01*
X25857Y224506D01*
X25835Y224423D01*
X25813Y224334D01*
X25796Y224234D01*
X25791Y224129D01*
X25785Y224018D01*
Y223823D01*
X25791Y223779D01*
X26496D01*
Y224495D01*
X27173D01*
Y222841D01*
X25402D01*
X25397Y222852D01*
X25386Y222886D01*
X25369Y222941D01*
X25341Y223013D01*
X25313Y223108D01*
X25286Y223213D01*
X25247Y223341D01*
X25214Y223485D01*
Y223491D01*
X25208Y223502D01*
Y223524D01*
X25202Y223552D01*
X25191Y223590D01*
X25186Y223629D01*
X25180Y223679D01*
X25169Y223729D01*
X25153Y223851D01*
X25141Y223985D01*
X25130Y224123D01*
X25125Y224273D01*
Y224312D01*
X25130Y224362D01*
Y224423D01*
X25141Y224501D01*
X25153Y224589D01*
X25164Y224689D01*
X25186Y224795D01*
X25214Y224906D01*
X25247Y225022D01*
X25286Y225144D01*
X25336Y225261D01*
X25391Y225383D01*
X25458Y225494D01*
X25530Y225605D01*
X25619Y225705D01*
X25624Y225711D01*
X25641Y225727D01*
X25669Y225755D01*
X25713Y225783D01*
X25763Y225827D01*
X25824Y225866D01*
X25896Y225916D01*
X25979Y225960D01*
X26074Y226010D01*
X26174Y226060D01*
X26285Y226099D01*
X26412Y226138D01*
X26540Y226171D01*
X26684Y226199D01*
X26834Y226216D01*
X26995Y226221D01*
X27006D01*
X27034D01*
X27073Y226216D01*
D02*
G37*
G36*
X27139Y220366D02*
X26446D01*
Y222203D01*
X27139D01*
Y220366D01*
D02*
G37*
G36*
X25796Y219650D02*
X25802Y219639D01*
X25813Y219622D01*
X25830Y219600D01*
X25852Y219572D01*
X25879Y219539D01*
X25941Y219456D01*
X26013Y219356D01*
X26096Y219250D01*
X26190Y219134D01*
X26285Y219012D01*
X26290Y219006D01*
X26296Y218995D01*
X26312Y218978D01*
X26329Y218956D01*
X26379Y218895D01*
X26440Y218823D01*
X26512Y218740D01*
X26584Y218651D01*
X26662Y218568D01*
X26740Y218490D01*
X26745Y218484D01*
X26751Y218479D01*
X26768Y218462D01*
X26790Y218440D01*
X26840Y218390D01*
X26906Y218329D01*
X26984Y218262D01*
X27067Y218196D01*
X27150Y218129D01*
X27228Y218079D01*
X27239Y218074D01*
X27267Y218057D01*
X27306Y218040D01*
X27361Y218013D01*
X27422Y217990D01*
X27495Y217974D01*
X27567Y217957D01*
X27644Y217952D01*
X27650D01*
X27656D01*
X27683D01*
X27728Y217957D01*
X27783Y217974D01*
X27844Y217990D01*
X27905Y218018D01*
X27966Y218057D01*
X28022Y218113D01*
X28027Y218118D01*
X28044Y218140D01*
X28066Y218179D01*
X28094Y218229D01*
X28116Y218290D01*
X28138Y218368D01*
X28155Y218462D01*
X28161Y218568D01*
Y218606D01*
X28155Y218651D01*
X28150Y218706D01*
X28138Y218779D01*
X28122Y218856D01*
X28100Y218945D01*
X28066Y219034D01*
X28061Y219045D01*
X28050Y219073D01*
X28027Y219123D01*
X28000Y219184D01*
X27966Y219250D01*
X27928Y219328D01*
X27833Y219489D01*
Y219561D01*
X28627D01*
X28632Y219556D01*
X28638Y219528D01*
X28655Y219489D01*
X28677Y219433D01*
X28699Y219367D01*
X28721Y219278D01*
X28749Y219178D01*
X28777Y219062D01*
Y219056D01*
X28782Y219045D01*
Y219028D01*
X28788Y219001D01*
X28793Y218973D01*
X28799Y218939D01*
X28815Y218851D01*
X28832Y218751D01*
X28843Y218634D01*
X28849Y218512D01*
X28854Y218390D01*
Y218323D01*
X28849Y218279D01*
X28843Y218224D01*
X28838Y218157D01*
X28832Y218085D01*
X28821Y218007D01*
X28788Y217841D01*
X28738Y217669D01*
X28705Y217585D01*
X28666Y217502D01*
X28621Y217430D01*
X28571Y217358D01*
X28566Y217352D01*
X28560Y217341D01*
X28543Y217324D01*
X28521Y217302D01*
X28488Y217274D01*
X28455Y217247D01*
X28410Y217214D01*
X28366Y217180D01*
X28310Y217147D01*
X28249Y217114D01*
X28183Y217086D01*
X28111Y217058D01*
X28033Y217036D01*
X27950Y217019D01*
X27861Y217008D01*
X27766Y217003D01*
X27761D01*
X27750D01*
X27733D01*
X27711D01*
X27678Y217008D01*
X27644Y217014D01*
X27561Y217025D01*
X27461Y217047D01*
X27350Y217075D01*
X27239Y217119D01*
X27123Y217175D01*
X27117D01*
X27112Y217180D01*
X27095Y217191D01*
X27073Y217208D01*
X27012Y217247D01*
X26928Y217302D01*
X26834Y217380D01*
X26729Y217469D01*
X26612Y217574D01*
X26490Y217696D01*
X26479Y217707D01*
X26457Y217735D01*
X26418Y217774D01*
X26368Y217829D01*
X26312Y217896D01*
X26251Y217974D01*
X26118Y218135D01*
X26113Y218146D01*
X26090Y218168D01*
X26063Y218213D01*
X26029Y218257D01*
X25952Y218362D01*
X25913Y218412D01*
X25885Y218451D01*
Y216836D01*
X25197D01*
Y219655D01*
X25791D01*
X25796Y219650D01*
D02*
G37*
G36*
X27156Y216314D02*
X27206D01*
X27267Y216309D01*
X27395Y216303D01*
X27528Y216287D01*
X27667Y216270D01*
X27800Y216242D01*
X27805D01*
X27817Y216237D01*
X27833Y216231D01*
X27855Y216226D01*
X27922Y216209D01*
X28000Y216176D01*
X28094Y216142D01*
X28188Y216098D01*
X28288Y216042D01*
X28383Y215981D01*
X28394Y215970D01*
X28421Y215948D01*
X28460Y215909D01*
X28516Y215859D01*
X28571Y215793D01*
X28627Y215709D01*
X28682Y215621D01*
X28732Y215521D01*
Y215515D01*
X28738Y215510D01*
X28743Y215493D01*
X28749Y215471D01*
X28760Y215443D01*
X28771Y215410D01*
X28793Y215326D01*
X28815Y215232D01*
X28838Y215116D01*
X28849Y214982D01*
X28854Y214838D01*
Y214772D01*
X28849Y214733D01*
Y214694D01*
X28838Y214599D01*
X28827Y214488D01*
X28804Y214372D01*
X28771Y214261D01*
X28732Y214150D01*
Y214144D01*
X28727Y214139D01*
X28710Y214106D01*
X28682Y214050D01*
X28643Y213989D01*
X28588Y213917D01*
X28527Y213839D01*
X28455Y213767D01*
X28366Y213695D01*
X28355Y213689D01*
X28321Y213667D01*
X28272Y213634D01*
X28205Y213595D01*
X28122Y213556D01*
X28022Y213512D01*
X27911Y213473D01*
X27783Y213439D01*
X27778D01*
X27766Y213434D01*
X27750D01*
X27722Y213428D01*
X27689Y213417D01*
X27650Y213412D01*
X27606Y213406D01*
X27556Y213395D01*
X27439Y213384D01*
X27306Y213367D01*
X27150Y213362D01*
X26989Y213356D01*
X26984D01*
X26967D01*
X26945D01*
X26912D01*
X26873D01*
X26829Y213362D01*
X26773D01*
X26718Y213367D01*
X26590Y213378D01*
X26457Y213389D01*
X26318Y213412D01*
X26179Y213439D01*
X26174D01*
X26163Y213445D01*
X26146Y213451D01*
X26118Y213456D01*
X26057Y213473D01*
X25974Y213500D01*
X25879Y213539D01*
X25780Y213584D01*
X25685Y213634D01*
X25591Y213695D01*
X25580Y213700D01*
X25552Y213728D01*
X25513Y213767D01*
X25458Y213817D01*
X25402Y213883D01*
X25347Y213961D01*
X25291Y214055D01*
X25241Y214155D01*
Y214161D01*
X25236Y214166D01*
X25230Y214183D01*
X25225Y214205D01*
X25214Y214233D01*
X25202Y214266D01*
X25186Y214344D01*
X25164Y214444D01*
X25141Y214561D01*
X25130Y214694D01*
X25125Y214838D01*
Y214905D01*
X25130Y214938D01*
Y214982D01*
X25141Y215077D01*
X25153Y215182D01*
X25175Y215299D01*
X25202Y215415D01*
X25241Y215526D01*
Y215532D01*
X25247Y215537D01*
X25264Y215571D01*
X25291Y215626D01*
X25330Y215687D01*
X25380Y215765D01*
X25441Y215837D01*
X25513Y215915D01*
X25596Y215987D01*
X25602D01*
X25608Y215992D01*
X25641Y216015D01*
X25691Y216048D01*
X25757Y216087D01*
X25846Y216126D01*
X25946Y216170D01*
X26057Y216209D01*
X26185Y216242D01*
X26190D01*
X26201Y216248D01*
X26218D01*
X26246Y216253D01*
X26279Y216259D01*
X26318Y216264D01*
X26368Y216276D01*
X26418Y216281D01*
X26534Y216298D01*
X26673Y216309D01*
X26823Y216314D01*
X26989Y216320D01*
X26995D01*
X27012D01*
X27034D01*
X27067D01*
X27106D01*
X27156Y216314D01*
D02*
G37*
G36*
X28305Y212335D02*
X28310Y212285D01*
Y212230D01*
X28321Y212113D01*
Y212107D01*
X28327Y212085D01*
X28333Y212057D01*
X28338Y212019D01*
X28360Y211930D01*
X28394Y211847D01*
X28399Y211841D01*
X28405Y211824D01*
X28416Y211802D01*
X28438Y211780D01*
X28482Y211719D01*
X28516Y211691D01*
X28549Y211664D01*
X28555Y211658D01*
X28566Y211652D01*
X28588Y211641D01*
X28616Y211630D01*
X28649Y211613D01*
X28693Y211602D01*
X28738Y211591D01*
X28793Y211586D01*
Y210787D01*
X25824D01*
Y210048D01*
X25197D01*
Y212440D01*
X25824D01*
Y211686D01*
X27722D01*
Y212440D01*
X28305D01*
Y212335D01*
D02*
G37*
G36*
X26257Y209327D02*
X26324Y209316D01*
X26396Y209299D01*
X26479Y209271D01*
X26557Y209233D01*
X26640Y209183D01*
X26651Y209177D01*
X26673Y209149D01*
X26718Y209110D01*
X26768Y209055D01*
X26823Y208983D01*
X26884Y208889D01*
X26945Y208772D01*
X27006Y208639D01*
X27017D01*
Y208644D01*
X27023Y208650D01*
X27034Y208666D01*
X27045Y208689D01*
X27073Y208744D01*
X27117Y208816D01*
X27167Y208889D01*
X27228Y208966D01*
X27300Y209038D01*
X27378Y209099D01*
X27389Y209105D01*
X27417Y209122D01*
X27461Y209144D01*
X27528Y209172D01*
X27600Y209199D01*
X27689Y209222D01*
X27789Y209238D01*
X27894Y209244D01*
X27900D01*
X27911D01*
X27933D01*
X27966Y209238D01*
X28000Y209233D01*
X28044Y209222D01*
X28138Y209194D01*
X28194Y209172D01*
X28249Y209149D01*
X28305Y209116D01*
X28366Y209077D01*
X28421Y209033D01*
X28482Y208977D01*
X28538Y208916D01*
X28588Y208850D01*
X28594Y208844D01*
X28599Y208833D01*
X28616Y208811D01*
X28632Y208777D01*
X28655Y208739D01*
X28677Y208689D01*
X28699Y208639D01*
X28727Y208572D01*
X28754Y208506D01*
X28777Y208428D01*
X28799Y208339D01*
X28821Y208250D01*
X28838Y208150D01*
X28854Y208050D01*
X28860Y207939D01*
X28865Y207823D01*
Y207756D01*
X28860Y207712D01*
Y207656D01*
X28854Y207590D01*
X28843Y207518D01*
X28832Y207440D01*
X28804Y207273D01*
X28760Y207101D01*
X28699Y206935D01*
X28660Y206852D01*
X28616Y206780D01*
Y206774D01*
X28605Y206763D01*
X28588Y206746D01*
X28571Y206718D01*
X28516Y206657D01*
X28444Y206585D01*
X28349Y206519D01*
X28233Y206458D01*
X28172Y206430D01*
X28105Y206413D01*
X28033Y206402D01*
X27955Y206397D01*
X27944D01*
X27911D01*
X27866Y206402D01*
X27805Y206419D01*
X27733Y206435D01*
X27656Y206463D01*
X27578Y206502D01*
X27500Y206557D01*
X27489Y206563D01*
X27467Y206585D01*
X27428Y206624D01*
X27384Y206680D01*
X27328Y206746D01*
X27273Y206829D01*
X27217Y206929D01*
X27162Y207046D01*
X27145D01*
Y207040D01*
X27139Y207029D01*
X27128Y207013D01*
X27117Y206985D01*
X27089Y206918D01*
X27045Y206835D01*
X26989Y206746D01*
X26923Y206657D01*
X26851Y206569D01*
X26762Y206491D01*
X26751Y206485D01*
X26718Y206463D01*
X26668Y206435D01*
X26601Y206397D01*
X26518Y206363D01*
X26423Y206335D01*
X26312Y206313D01*
X26196Y206308D01*
X26190D01*
X26174D01*
X26151D01*
X26118Y206313D01*
X26074Y206319D01*
X26029Y206330D01*
X25918Y206358D01*
X25857Y206380D01*
X25796Y206408D01*
X25730Y206441D01*
X25663Y206480D01*
X25596Y206530D01*
X25535Y206585D01*
X25474Y206646D01*
X25413Y206718D01*
X25408Y206724D01*
X25402Y206735D01*
X25386Y206763D01*
X25369Y206791D01*
X25347Y206835D01*
X25319Y206885D01*
X25291Y206940D01*
X25264Y207007D01*
X25236Y207085D01*
X25208Y207168D01*
X25186Y207257D01*
X25158Y207357D01*
X25141Y207462D01*
X25125Y207579D01*
X25119Y207701D01*
X25114Y207828D01*
Y207928D01*
X25119Y207967D01*
X25125Y208062D01*
X25136Y208172D01*
X25147Y208283D01*
X25169Y208400D01*
X25197Y208511D01*
Y208517D01*
X25202Y208522D01*
X25214Y208556D01*
X25230Y208611D01*
X25252Y208678D01*
X25286Y208750D01*
X25324Y208827D01*
X25369Y208911D01*
X25419Y208983D01*
X25424Y208988D01*
X25447Y209011D01*
X25474Y209044D01*
X25513Y209083D01*
X25563Y209127D01*
X25619Y209177D01*
X25685Y209216D01*
X25752Y209255D01*
X25763Y209260D01*
X25785Y209266D01*
X25824Y209282D01*
X25874Y209294D01*
X25935Y209310D01*
X26007Y209327D01*
X26079Y209332D01*
X26163Y209338D01*
X26168D01*
X26174D01*
X26207D01*
X26257Y209327D01*
D02*
G37*
%LPC*%
G36*
X70397Y216998D02*
Y218043D01*
X70136D01*
Y218566D01*
X69875D01*
Y219088D01*
X69614D01*
Y219349D01*
X69353D01*
Y219871D01*
X69091D01*
Y220394D01*
X68830D01*
Y220916D01*
X68569D01*
Y221177D01*
X68308D01*
Y221700D01*
X68047D01*
Y222222D01*
X67786D01*
Y222744D01*
X67524D01*
Y223006D01*
X67263D01*
Y223528D01*
X67002D01*
Y224050D01*
X66741D01*
Y224312D01*
X66480D01*
Y224573D01*
X66218D01*
X65957D01*
X65696D01*
X65435D01*
X65174D01*
X64912D01*
X64651D01*
X64390D01*
X64129D01*
X63868D01*
X63607D01*
X63345D01*
Y224312D01*
X63607D01*
Y223789D01*
X63868D01*
Y223267D01*
X64129D01*
Y223006D01*
X64390D01*
Y222483D01*
X64651D01*
Y221961D01*
X64912D01*
Y221439D01*
X65174D01*
Y221177D01*
X65435D01*
Y220655D01*
X65696D01*
Y220133D01*
X65957D01*
Y219610D01*
X66218D01*
Y219349D01*
X66480D01*
Y218827D01*
X66741D01*
Y218304D01*
X67002D01*
Y218043D01*
X67263D01*
Y217260D01*
X67002D01*
Y216998D01*
X66741D01*
Y216476D01*
X66480D01*
Y215954D01*
X66218D01*
Y215431D01*
X65957D01*
Y215170D01*
X65696D01*
Y214648D01*
X65435D01*
Y214125D01*
X65174D01*
Y213864D01*
X64912D01*
Y213342D01*
X64651D01*
Y212820D01*
X64390D01*
Y212297D01*
X64129D01*
Y212036D01*
X63868D01*
Y211513D01*
X63607D01*
Y210991D01*
X63345D01*
Y210730D01*
X63607D01*
X63868D01*
X64129D01*
X64390D01*
X64651D01*
X64912D01*
X65174D01*
X65435D01*
X65696D01*
X65957D01*
X66218D01*
X66480D01*
X66741D01*
Y211252D01*
X67002D01*
Y211775D01*
X67263D01*
Y212297D01*
X67524D01*
Y212558D01*
X67786D01*
Y213081D01*
X68047D01*
Y213603D01*
X68308D01*
Y213864D01*
X68569D01*
Y214387D01*
X68830D01*
Y214909D01*
X69091D01*
Y215431D01*
X69353D01*
Y215692D01*
X69614D01*
Y216215D01*
X69875D01*
Y216737D01*
X70136D01*
Y216998D01*
X70397D01*
D02*
G37*
G36*
X63345Y217260D02*
Y218043D01*
X63084D01*
Y218566D01*
X62823D01*
Y219088D01*
X62562D01*
Y219349D01*
X62301D01*
Y219871D01*
X62040D01*
Y220394D01*
X61778D01*
Y220916D01*
X61517D01*
Y221177D01*
X61256D01*
Y221700D01*
X60995D01*
Y222222D01*
X60734D01*
Y222744D01*
X60472D01*
Y223006D01*
X60211D01*
Y223528D01*
X59950D01*
Y224050D01*
X59689D01*
Y224573D01*
X59428D01*
X59167D01*
X58905D01*
X58644D01*
X58383D01*
X58122D01*
X57860D01*
X57599D01*
X57338D01*
Y224312D01*
X57077D01*
Y224050D01*
X56816D01*
Y223528D01*
X56555D01*
Y223006D01*
X56293D01*
Y222744D01*
X56032D01*
Y222222D01*
X55771D01*
Y221700D01*
X55510D01*
Y221177D01*
X55249D01*
Y220916D01*
X54988D01*
Y220394D01*
X54726D01*
Y219871D01*
X54465D01*
Y219349D01*
X54204D01*
Y219088D01*
X53943D01*
Y218566D01*
X53682D01*
Y218043D01*
X53420D01*
Y217782D01*
X53159D01*
Y217260D01*
X52898D01*
Y216737D01*
X52637D01*
Y216215D01*
X52376D01*
Y215954D01*
X52114D01*
Y216215D01*
X51853D01*
Y216737D01*
X51592D01*
Y217260D01*
X51331D01*
Y218304D01*
X51592D01*
Y218827D01*
X51853D01*
Y219088D01*
X52114D01*
Y219610D01*
X52376D01*
Y220133D01*
X52637D01*
Y220394D01*
X52898D01*
Y220916D01*
X53159D01*
Y221439D01*
X53420D01*
Y221961D01*
X53682D01*
Y222222D01*
X53943D01*
Y222744D01*
X54204D01*
Y223267D01*
X54465D01*
Y223528D01*
X54726D01*
Y224050D01*
X54988D01*
Y224573D01*
X54726D01*
X54465D01*
X54204D01*
X53943D01*
X53682D01*
X53420D01*
X53159D01*
X52898D01*
X52637D01*
X52376D01*
X52114D01*
X51853D01*
X51592D01*
X51331D01*
Y224312D01*
X51070D01*
Y223789D01*
X50809D01*
Y223528D01*
X50547D01*
Y223006D01*
X50286D01*
Y222483D01*
X50025D01*
Y222222D01*
X49764D01*
Y221700D01*
X49503D01*
Y221177D01*
X49241D01*
Y220655D01*
X48980D01*
Y220394D01*
X48719D01*
Y219871D01*
X48458D01*
Y219349D01*
X48197D01*
Y219088D01*
X47936D01*
Y218566D01*
X47674D01*
Y218043D01*
X47413D01*
Y217521D01*
X47674D01*
Y216998D01*
X47936D01*
Y216476D01*
X48197D01*
Y215954D01*
X48458D01*
Y215692D01*
X48719D01*
Y215170D01*
X48980D01*
Y214648D01*
X49241D01*
Y214125D01*
X49503D01*
Y213864D01*
X49764D01*
Y213342D01*
X50025D01*
Y212820D01*
X50286D01*
Y212297D01*
X50547D01*
Y212036D01*
X50809D01*
Y211513D01*
X51070D01*
Y210991D01*
X51331D01*
Y210730D01*
X51592D01*
X51853D01*
X52114D01*
X52376D01*
X52637D01*
X52898D01*
X53159D01*
X53420D01*
Y210991D01*
X53682D01*
Y211252D01*
X53943D01*
Y211775D01*
X54204D01*
Y212297D01*
X54465D01*
Y212820D01*
X54726D01*
Y213081D01*
X54988D01*
Y213603D01*
X55249D01*
Y214125D01*
X55510D01*
Y214387D01*
X55771D01*
Y214909D01*
X56032D01*
Y215431D01*
X56293D01*
Y215954D01*
X56555D01*
Y216215D01*
X56816D01*
Y216737D01*
X57077D01*
Y217260D01*
X57338D01*
Y217782D01*
X57599D01*
Y218043D01*
X57860D01*
Y218566D01*
X58122D01*
Y219088D01*
X58383D01*
Y219349D01*
X58644D01*
X58905D01*
Y218827D01*
X59167D01*
Y218304D01*
X59428D01*
Y217782D01*
X59689D01*
Y217521D01*
X59428D01*
Y216998D01*
X59167D01*
Y216737D01*
X58905D01*
Y216215D01*
X58644D01*
Y215692D01*
X58383D01*
Y215170D01*
X58122D01*
Y214909D01*
X57860D01*
Y214387D01*
X57599D01*
Y213864D01*
X57338D01*
Y213603D01*
X57077D01*
Y213081D01*
X56816D01*
Y212558D01*
X56555D01*
Y212036D01*
X56293D01*
Y211775D01*
X56032D01*
Y211252D01*
X55771D01*
Y210730D01*
X56032D01*
X56293D01*
X56555D01*
X56816D01*
X57077D01*
X57338D01*
X57599D01*
X57860D01*
X58122D01*
X58383D01*
X58644D01*
X58905D01*
X59167D01*
X59428D01*
Y210991D01*
X59689D01*
Y211513D01*
X59950D01*
Y211775D01*
X60211D01*
Y212297D01*
X60472D01*
Y212820D01*
X60734D01*
Y213342D01*
X60995D01*
Y213603D01*
X61256D01*
Y214125D01*
X61517D01*
Y214648D01*
X61778D01*
Y214909D01*
X62040D01*
Y215431D01*
X62301D01*
Y215954D01*
X62562D01*
Y216476D01*
X62823D01*
Y216737D01*
X63084D01*
Y217260D01*
X63345D01*
D02*
G37*
G36*
X57338Y207073D02*
Y207335D01*
X57077D01*
X56816D01*
X56555D01*
X56293D01*
X56032D01*
X55771D01*
X55510D01*
X55249D01*
X54988D01*
X54726D01*
X54465D01*
X54204D01*
X53943D01*
X53682D01*
X53420D01*
X53159D01*
X52898D01*
X52637D01*
X52376D01*
X52114D01*
X51853D01*
X51592D01*
X51331D01*
X51070D01*
X50809D01*
X50547D01*
X50286D01*
X50025D01*
X49764D01*
X49503D01*
X49241D01*
Y207857D01*
X48980D01*
Y208118D01*
X48719D01*
Y208641D01*
X48458D01*
Y209163D01*
X48197D01*
Y209424D01*
X47936D01*
Y209946D01*
X47674D01*
Y210469D01*
X47413D01*
Y210991D01*
X47152D01*
Y211513D01*
X46891D01*
Y211775D01*
X46630D01*
Y212297D01*
X46368D01*
Y212820D01*
X46107D01*
Y213342D01*
X45846D01*
Y213603D01*
X45585D01*
Y214125D01*
X45324D01*
Y213864D01*
X45063D01*
Y213342D01*
X44801D01*
Y212820D01*
X44540D01*
Y212558D01*
X44279D01*
Y212036D01*
X44018D01*
Y211513D01*
X43757D01*
Y210469D01*
X44018D01*
Y210208D01*
X44279D01*
Y209685D01*
X44540D01*
Y209163D01*
X44801D01*
Y208641D01*
X45063D01*
Y208379D01*
X45324D01*
Y207857D01*
X45585D01*
Y207335D01*
X45846D01*
Y206812D01*
X46107D01*
Y206551D01*
X46368D01*
Y206029D01*
X46630D01*
Y205506D01*
X46891D01*
Y204984D01*
X47152D01*
Y204723D01*
X47413D01*
Y204200D01*
X47674D01*
X47936D01*
X48197D01*
X48458D01*
X48719D01*
X48980D01*
X49241D01*
X49503D01*
X49764D01*
X50025D01*
X50286D01*
X50547D01*
X50809D01*
X51070D01*
X51331D01*
X51592D01*
X51853D01*
X52114D01*
X52376D01*
X52637D01*
X52898D01*
X53159D01*
X53420D01*
X53682D01*
X53943D01*
X54204D01*
X54465D01*
X54726D01*
X54988D01*
X55249D01*
X55510D01*
Y204462D01*
X55771D01*
Y204723D01*
X56032D01*
Y205245D01*
X56293D01*
Y205767D01*
X56555D01*
Y206290D01*
X56816D01*
Y206551D01*
X57077D01*
Y207073D01*
X57338D01*
D02*
G37*
G36*
Y227968D02*
Y228229D01*
X57077D01*
Y228752D01*
X56816D01*
Y229274D01*
X56555D01*
Y229535D01*
X56293D01*
Y230058D01*
X56032D01*
Y230580D01*
X55771D01*
Y231102D01*
X55510D01*
X55249D01*
X54988D01*
X54726D01*
X54465D01*
X54204D01*
X53943D01*
X53682D01*
X53420D01*
X53159D01*
X52898D01*
X52637D01*
X52376D01*
X52114D01*
X51853D01*
X51592D01*
X51331D01*
X51070D01*
X50809D01*
X50547D01*
X50286D01*
X50025D01*
X49764D01*
X49503D01*
X49241D01*
X48980D01*
X48719D01*
X48458D01*
X48197D01*
X47936D01*
X47674D01*
X47413D01*
Y230580D01*
X47152D01*
Y230058D01*
X46891D01*
Y229796D01*
X46630D01*
Y229274D01*
X46368D01*
Y228752D01*
X46107D01*
Y228490D01*
X45846D01*
Y227968D01*
X45585D01*
Y227446D01*
X45324D01*
Y226923D01*
X45063D01*
Y226662D01*
X44801D01*
Y226140D01*
X44540D01*
Y225618D01*
X44279D01*
Y225095D01*
X44018D01*
Y224834D01*
X43757D01*
Y223789D01*
X44018D01*
Y223267D01*
X44279D01*
Y223006D01*
X44540D01*
Y222483D01*
X44801D01*
Y221961D01*
X45063D01*
Y221439D01*
X45324D01*
Y221177D01*
X45585D01*
Y221700D01*
X45846D01*
Y221961D01*
X46107D01*
Y222483D01*
X46368D01*
Y223006D01*
X46630D01*
Y223528D01*
X46891D01*
Y223789D01*
X47152D01*
Y224312D01*
X47413D01*
Y224834D01*
X47674D01*
Y225356D01*
X47936D01*
Y225618D01*
X48197D01*
Y226140D01*
X48458D01*
Y226662D01*
X48719D01*
Y227185D01*
X48980D01*
Y227446D01*
X49241D01*
Y227968D01*
X49503D01*
X49764D01*
X50025D01*
X50286D01*
X50547D01*
X50809D01*
X51070D01*
X51331D01*
X51592D01*
X51853D01*
X52114D01*
X52376D01*
X52637D01*
X52898D01*
X53159D01*
X53420D01*
X53682D01*
X53943D01*
X54204D01*
X54465D01*
X54726D01*
X54988D01*
X55249D01*
X55510D01*
X55771D01*
X56032D01*
X56293D01*
X56555D01*
X56816D01*
X57077D01*
X57338D01*
D02*
G37*
G36*
X60508Y48341D02*
X59997D01*
Y46764D01*
X58011D01*
Y48341D01*
X57500D01*
Y44500D01*
X58011D01*
Y46309D01*
X59997D01*
Y44500D01*
X59004D01*
X60508D01*
Y48341D01*
D02*
G37*
G36*
X68556D02*
X65536D01*
Y46010D01*
X65542Y45904D01*
X65548Y45804D01*
X65559Y45710D01*
X65570Y45627D01*
X65581Y45549D01*
X65597Y45477D01*
X65609Y45410D01*
X65620Y45349D01*
X65636Y45299D01*
X65647Y45255D01*
X65658Y45221D01*
X65670Y45194D01*
X65675Y45172D01*
X65681Y45160D01*
Y45155D01*
X65742Y45033D01*
X65819Y44922D01*
X65897Y44833D01*
X65980Y44755D01*
X66053Y44694D01*
X66114Y44650D01*
X66136Y44639D01*
X66152Y44628D01*
X66163Y44617D01*
X66169D01*
X66308Y44556D01*
X66452Y44511D01*
X66602Y44478D01*
X66741Y44456D01*
X66802Y44450D01*
X66863Y44445D01*
X66918Y44439D01*
X66963D01*
X67002Y44433D01*
X67052D01*
X67251Y44445D01*
X67340Y44456D01*
X67423Y44467D01*
X67507Y44483D01*
X67579Y44500D01*
X67645Y44517D01*
X67706Y44539D01*
X67762Y44561D01*
X67806Y44578D01*
X67851Y44594D01*
X67884Y44611D01*
X67912Y44628D01*
X67928Y44633D01*
X67940Y44644D01*
X67945D01*
X68067Y44728D01*
X68167Y44822D01*
X68245Y44911D01*
X68311Y45000D01*
X68361Y45077D01*
X68395Y45138D01*
X68406Y45160D01*
X68417Y45177D01*
X68422Y45188D01*
Y45194D01*
X68445Y45260D01*
X68467Y45333D01*
X68500Y45482D01*
X68522Y45638D01*
X68539Y45788D01*
X68545Y45854D01*
X68550Y45921D01*
Y45976D01*
X68556Y46026D01*
Y44628D01*
Y48341D01*
D02*
G37*
G36*
X72785D02*
X69410D01*
Y44500D01*
X69921D01*
Y46204D01*
X70576D01*
X70637Y46198D01*
X70681D01*
X70720Y46193D01*
X70748Y46187D01*
X70770D01*
X70781Y46182D01*
X70787D01*
X70876Y46154D01*
X70914Y46137D01*
X70948Y46121D01*
X70981Y46104D01*
X71003Y46093D01*
X71014Y46087D01*
X71020Y46082D01*
X71064Y46049D01*
X71109Y46010D01*
X71192Y45926D01*
X71231Y45888D01*
X71258Y45854D01*
X71275Y45832D01*
X71281Y45826D01*
X71336Y45749D01*
X71397Y45665D01*
X71458Y45577D01*
X71519Y45494D01*
X71569Y45416D01*
X71608Y45355D01*
X71625Y45333D01*
X71636Y45316D01*
X71647Y45305D01*
Y45299D01*
X72152Y44500D01*
X72785D01*
X72124Y45543D01*
X72047Y45654D01*
X71974Y45754D01*
X71902Y45838D01*
X71841Y45915D01*
X71786Y45971D01*
X71741Y46015D01*
X71714Y46043D01*
X71702Y46054D01*
X71658Y46087D01*
X71608Y46126D01*
X71508Y46187D01*
X71464Y46209D01*
X71430Y46232D01*
X71408Y46243D01*
X71397Y46248D01*
X71497Y46265D01*
X71591Y46281D01*
X71675Y46309D01*
X71758Y46332D01*
X71830Y46359D01*
X71897Y46393D01*
X71958Y46420D01*
X72013Y46448D01*
X72058Y46481D01*
X72102Y46509D01*
X72135Y46531D01*
X72163Y46554D01*
X72185Y46570D01*
X72202Y46587D01*
X72207Y46592D01*
X72213Y46598D01*
X72257Y46653D01*
X72302Y46709D01*
X72368Y46826D01*
X72413Y46942D01*
X72446Y47053D01*
X72468Y47147D01*
X72474Y47186D01*
Y47225D01*
X72479Y47253D01*
Y47275D01*
Y47286D01*
Y47292D01*
X72474Y47408D01*
X72457Y47514D01*
X72430Y47613D01*
X72402Y47697D01*
X72368Y47769D01*
X72346Y47824D01*
X72324Y47858D01*
X72319Y47863D01*
Y47869D01*
X72252Y47958D01*
X72185Y48035D01*
X72113Y48102D01*
X72047Y48152D01*
X71986Y48191D01*
X71936Y48213D01*
X71902Y48230D01*
X71897Y48235D01*
X71891D01*
X71841Y48252D01*
X71780Y48268D01*
X71658Y48296D01*
X71525Y48313D01*
X71403Y48329D01*
X71286Y48335D01*
X71236D01*
X71192Y48341D01*
X72785D01*
D01*
D02*
G37*
G36*
X64876Y48407D02*
X61202D01*
X63039D01*
X62889Y48402D01*
X62750Y48385D01*
X62617Y48357D01*
X62489Y48324D01*
X62373Y48280D01*
X62262Y48235D01*
X62162Y48185D01*
X62073Y48135D01*
X61990Y48085D01*
X61918Y48035D01*
X61857Y47991D01*
X61807Y47947D01*
X61768Y47913D01*
X61735Y47886D01*
X61718Y47869D01*
X61712Y47863D01*
X61624Y47758D01*
X61546Y47647D01*
X61474Y47525D01*
X61418Y47403D01*
X61368Y47275D01*
X61324Y47153D01*
X61291Y47031D01*
X61268Y46914D01*
X61246Y46803D01*
X61230Y46698D01*
X61219Y46603D01*
X61207Y46526D01*
Y46459D01*
X61202Y46409D01*
Y46365D01*
X61213Y46176D01*
X61235Y46004D01*
X61268Y45838D01*
X61291Y45765D01*
X61313Y45693D01*
X61330Y45632D01*
X61352Y45577D01*
X61368Y45527D01*
X61385Y45482D01*
X61396Y45449D01*
X61407Y45427D01*
X61418Y45410D01*
Y45405D01*
X61513Y45244D01*
X61612Y45105D01*
X61724Y44983D01*
X61829Y44883D01*
X61923Y44800D01*
X61962Y44766D01*
X61996Y44744D01*
X62029Y44722D01*
X62051Y44705D01*
X62062Y44700D01*
X62068Y44694D01*
X62151Y44650D01*
X62234Y44611D01*
X62401Y44544D01*
X62562Y44500D01*
X62712Y44467D01*
X62784Y44456D01*
X62845Y44450D01*
X62900Y44439D01*
X62950D01*
X62983Y44433D01*
X63039D01*
X63222Y44445D01*
X63394Y44472D01*
X63555Y44506D01*
X63627Y44528D01*
X63694Y44550D01*
X63755Y44572D01*
X63810Y44594D01*
X63855Y44611D01*
X63894Y44628D01*
X63927Y44644D01*
X63955Y44655D01*
X63966Y44666D01*
X63971D01*
X64127Y44766D01*
X64260Y44877D01*
X64371Y44994D01*
X64465Y45105D01*
X64543Y45210D01*
X64571Y45249D01*
X64593Y45288D01*
X64615Y45321D01*
X64626Y45344D01*
X64637Y45360D01*
Y45366D01*
X64682Y45455D01*
X64715Y45543D01*
X64776Y45721D01*
X64820Y45899D01*
X64848Y46060D01*
X64854Y46132D01*
X64865Y46198D01*
X64870Y46259D01*
Y46309D01*
X64876Y46354D01*
Y46409D01*
X64865Y46620D01*
X64843Y46814D01*
X64826Y46903D01*
X64804Y46992D01*
X64782Y47070D01*
X64765Y47142D01*
X64743Y47208D01*
X64721Y47269D01*
X64704Y47319D01*
X64682Y47364D01*
X64671Y47397D01*
X64660Y47419D01*
X64648Y47436D01*
Y47442D01*
X64560Y47602D01*
X64454Y47747D01*
X64343Y47869D01*
X64243Y47969D01*
X64149Y48046D01*
X64104Y48080D01*
X64071Y48107D01*
X64038Y48124D01*
X64016Y48141D01*
X64005Y48146D01*
X63999Y48152D01*
X63916Y48196D01*
X63833Y48235D01*
X63672Y48302D01*
X63505Y48346D01*
X63361Y48374D01*
X63294Y48385D01*
X63228Y48396D01*
X63178Y48402D01*
X63128D01*
X63089Y48407D01*
X64876D01*
D02*
G37*
%LPD*%
G36*
X68045Y46121D02*
Y45993D01*
X68034Y45871D01*
X68023Y45765D01*
X68006Y45665D01*
X67989Y45577D01*
X67967Y45494D01*
X67951Y45421D01*
X67928Y45360D01*
X67906Y45310D01*
X67884Y45260D01*
X67862Y45227D01*
X67845Y45194D01*
X67829Y45172D01*
X67817Y45155D01*
X67812Y45149D01*
X67806Y45144D01*
X67756Y45099D01*
X67701Y45061D01*
X67579Y45000D01*
X67451Y44955D01*
X67318Y44927D01*
X67196Y44905D01*
X67146Y44900D01*
X67096D01*
X67063Y44894D01*
X67007D01*
X66891Y44900D01*
X66785Y44916D01*
X66685Y44933D01*
X66608Y44961D01*
X66541Y44983D01*
X66491Y45000D01*
X66463Y45016D01*
X66452Y45022D01*
X66374Y45072D01*
X66308Y45133D01*
X66252Y45194D01*
X66214Y45249D01*
X66180Y45305D01*
X66152Y45344D01*
X66141Y45371D01*
X66136Y45382D01*
X66119Y45432D01*
X66108Y45482D01*
X66086Y45599D01*
X66069Y45721D01*
X66058Y45843D01*
X66053Y45949D01*
Y45998D01*
X66047Y46037D01*
Y46071D01*
Y46098D01*
Y46115D01*
Y46121D01*
Y48341D01*
X68045D01*
Y46121D01*
D02*
G37*
G36*
X71281Y47908D02*
X71408Y47886D01*
X71519Y47858D01*
X71602Y47824D01*
X71675Y47791D01*
X71719Y47763D01*
X71747Y47741D01*
X71758Y47736D01*
X71825Y47664D01*
X71874Y47591D01*
X71908Y47514D01*
X71936Y47447D01*
X71947Y47381D01*
X71952Y47330D01*
X71958Y47297D01*
Y47292D01*
Y47286D01*
X71952Y47219D01*
X71941Y47153D01*
X71925Y47097D01*
X71908Y47047D01*
X71886Y47003D01*
X71869Y46970D01*
X71858Y46948D01*
X71852Y46942D01*
X71813Y46887D01*
X71763Y46837D01*
X71714Y46798D01*
X71664Y46764D01*
X71619Y46742D01*
X71586Y46725D01*
X71564Y46714D01*
X71553Y46709D01*
X71475Y46687D01*
X71386Y46670D01*
X71297Y46659D01*
X71209Y46653D01*
X71131Y46648D01*
X71064Y46642D01*
X69921D01*
Y47913D01*
X71131D01*
X71281Y47908D01*
D02*
G37*
G36*
X63178Y47963D02*
X63311Y47941D01*
X63427Y47908D01*
X63527Y47874D01*
X63611Y47836D01*
X63644Y47819D01*
X63672Y47808D01*
X63699Y47791D01*
X63716Y47786D01*
X63722Y47774D01*
X63727D01*
X63833Y47697D01*
X63927Y47608D01*
X64010Y47519D01*
X64077Y47430D01*
X64127Y47353D01*
X64166Y47286D01*
X64177Y47264D01*
X64188Y47247D01*
X64193Y47236D01*
Y47231D01*
X64249Y47097D01*
X64288Y46953D01*
X64315Y46820D01*
X64332Y46692D01*
X64343Y46631D01*
X64349Y46581D01*
Y46531D01*
X64354Y46492D01*
Y46459D01*
Y46437D01*
Y46420D01*
Y46415D01*
X64349Y46281D01*
X64338Y46154D01*
X64321Y46032D01*
X64299Y45921D01*
X64265Y45821D01*
X64238Y45726D01*
X64204Y45638D01*
X64171Y45560D01*
X64132Y45494D01*
X64099Y45432D01*
X64071Y45382D01*
X64043Y45344D01*
X64016Y45310D01*
X63999Y45283D01*
X63988Y45271D01*
X63982Y45266D01*
X63910Y45194D01*
X63833Y45133D01*
X63755Y45083D01*
X63677Y45033D01*
X63599Y44994D01*
X63516Y44966D01*
X63444Y44938D01*
X63366Y44916D01*
X63300Y44900D01*
X63233Y44888D01*
X63178Y44877D01*
X63128Y44872D01*
X63089D01*
X63061Y44866D01*
X63033D01*
X62928Y44872D01*
X62828Y44883D01*
X62739Y44905D01*
X62650Y44927D01*
X62567Y44961D01*
X62489Y44994D01*
X62417Y45027D01*
X62351Y45066D01*
X62295Y45105D01*
X62245Y45138D01*
X62201Y45172D01*
X62162Y45205D01*
X62134Y45227D01*
X62112Y45249D01*
X62101Y45260D01*
X62095Y45266D01*
X62029Y45344D01*
X61973Y45427D01*
X61923Y45516D01*
X61879Y45605D01*
X61846Y45699D01*
X61812Y45788D01*
X61768Y45965D01*
X61757Y46043D01*
X61746Y46121D01*
X61735Y46187D01*
X61729Y46243D01*
X61724Y46293D01*
Y46332D01*
Y46354D01*
Y46359D01*
X61729Y46515D01*
X61740Y46659D01*
X61757Y46798D01*
X61785Y46920D01*
X61812Y47031D01*
X61846Y47131D01*
X61884Y47225D01*
X61918Y47303D01*
X61957Y47375D01*
X61990Y47436D01*
X62023Y47486D01*
X62051Y47525D01*
X62079Y47558D01*
X62095Y47580D01*
X62107Y47591D01*
X62112Y47597D01*
X62184Y47664D01*
X62262Y47719D01*
X62340Y47769D01*
X62423Y47813D01*
X62501Y47847D01*
X62578Y47880D01*
X62723Y47924D01*
X62789Y47935D01*
X62850Y47947D01*
X62900Y47958D01*
X62950Y47963D01*
X62989Y47969D01*
X63039D01*
X63178Y47963D01*
D02*
G37*
%LPC*%
G36*
X112502Y48341D02*
X112014D01*
Y45321D01*
X109999Y48341D01*
X109477D01*
Y44500D01*
X112502D01*
Y48341D01*
D02*
G37*
G36*
X107163D02*
X106480D01*
X105559Y45665D01*
X105509Y45521D01*
X105470Y45399D01*
X105431Y45294D01*
X105404Y45205D01*
X105381Y45138D01*
X105365Y45088D01*
X105359Y45061D01*
X105354Y45050D01*
X105332Y45127D01*
X105304Y45216D01*
X105271Y45310D01*
X105243Y45405D01*
X105215Y45488D01*
X105193Y45555D01*
X105182Y45582D01*
X105176Y45599D01*
X105171Y45610D01*
Y45616D01*
X104260Y48341D01*
X103500D01*
Y44500D01*
X107163D01*
Y48341D01*
D02*
G37*
G36*
X116382D02*
X115871D01*
Y46121D01*
Y45993D01*
X115860Y45871D01*
X115849Y45765D01*
X115832Y45665D01*
X115815Y45577D01*
X115793Y45494D01*
X115777Y45421D01*
X115754Y45360D01*
X115732Y45310D01*
X115710Y45260D01*
X115688Y45227D01*
X115671Y45194D01*
X115655Y45172D01*
X115643Y45155D01*
X115638Y45149D01*
X115632Y45144D01*
X115582Y45099D01*
X115527Y45061D01*
X115405Y45000D01*
X115277Y44955D01*
X115144Y44927D01*
X115022Y44905D01*
X114972Y44900D01*
X114922D01*
X114889Y44894D01*
X114833D01*
X114717Y44900D01*
X114611Y44916D01*
X114511Y44933D01*
X114434Y44961D01*
X114367Y44983D01*
X114317Y45000D01*
X114289Y45016D01*
X114278Y45022D01*
X114200Y45072D01*
X114134Y45133D01*
X114078Y45194D01*
X114040Y45249D01*
X114006Y45305D01*
X113978Y45344D01*
X113967Y45371D01*
X113962Y45382D01*
X113945Y45432D01*
X113934Y45482D01*
X113912Y45599D01*
X113895Y45721D01*
X113884Y45843D01*
X113879Y45949D01*
Y45998D01*
X113873Y46037D01*
Y46071D01*
Y46098D01*
Y46115D01*
Y46121D01*
Y48341D01*
X113362D01*
Y46010D01*
X113368Y45904D01*
X113373Y45804D01*
X113384Y45710D01*
X113396Y45627D01*
X113407Y45549D01*
X113423Y45477D01*
X113435Y45410D01*
X113446Y45349D01*
X113462Y45299D01*
X113473Y45255D01*
X113484Y45221D01*
X113496Y45194D01*
X113501Y45172D01*
X113507Y45160D01*
Y45155D01*
X113568Y45033D01*
X113645Y44922D01*
X113723Y44833D01*
X113806Y44755D01*
X113879Y44694D01*
X113940Y44650D01*
X113962Y44639D01*
X113978Y44628D01*
X113989Y44617D01*
X113995D01*
X114134Y44556D01*
X114278Y44511D01*
X114428Y44478D01*
X114567Y44456D01*
X114628Y44450D01*
X114689Y44445D01*
X114744Y44439D01*
X114789D01*
X114828Y44433D01*
X113362D01*
D01*
X116382D01*
Y48341D01*
D02*
G37*
G36*
X123386D02*
X120516D01*
Y44500D01*
X123386D01*
Y44983D01*
Y44955D01*
X121027D01*
Y46259D01*
X123152D01*
Y46714D01*
X121027D01*
Y47886D01*
X123297D01*
Y48341D01*
X123386D01*
D02*
G37*
G36*
X119983D02*
X116942D01*
Y47886D01*
X118208D01*
Y44500D01*
X116942D01*
X119983D01*
Y48341D01*
D02*
G37*
G36*
X108584D02*
X108073D01*
Y44500D01*
X108584D01*
Y48341D01*
D02*
G37*
%LPD*%
G36*
X111975Y44500D02*
X109966D01*
Y47514D01*
X111975Y44500D01*
D02*
G37*
G36*
X106675D02*
X105553D01*
X106675Y47714D01*
Y44500D01*
D02*
G37*
G36*
X105098D02*
X103988D01*
Y47769D01*
X105098Y44500D01*
D02*
G37*
G36*
X116382Y44433D02*
X114877D01*
X115077Y44445D01*
X115166Y44456D01*
X115249Y44467D01*
X115333Y44483D01*
X115405Y44500D01*
X115471Y44517D01*
X115532Y44539D01*
X115588Y44561D01*
X115632Y44578D01*
X115677Y44594D01*
X115710Y44611D01*
X115738Y44628D01*
X115754Y44633D01*
X115766Y44644D01*
X115771D01*
X115893Y44728D01*
X115993Y44822D01*
X116071Y44911D01*
X116137Y45000D01*
X116187Y45077D01*
X116221Y45138D01*
X116232Y45160D01*
X116243Y45177D01*
X116248Y45188D01*
Y45194D01*
X116271Y45260D01*
X116293Y45333D01*
X116326Y45482D01*
X116348Y45638D01*
X116365Y45788D01*
X116370Y45854D01*
X116376Y45921D01*
Y45976D01*
X116382Y46026D01*
Y44433D01*
D02*
G37*
G36*
X119983Y44500D02*
X118718D01*
Y47886D01*
X119983D01*
Y44500D01*
D02*
G37*
%LPC*%
G36*
X34453Y229546D02*
Y228669D01*
X35718Y229107D01*
X34453Y229546D01*
D02*
G37*
G36*
Y222208D02*
Y221332D01*
X35718Y221770D01*
X34453Y222208D01*
D02*
G37*
G36*
Y214577D02*
Y213700D01*
X35718Y214139D01*
X34453Y214577D01*
D02*
G37*
G36*
X35996Y210825D02*
X35036D01*
Y210420D01*
X35041Y210359D01*
Y210298D01*
X35047Y210237D01*
X35052Y210182D01*
Y210176D01*
X35058Y210154D01*
X35063Y210126D01*
X35074Y210093D01*
X35102Y210015D01*
X35152Y209932D01*
X35158Y209926D01*
X35163Y209915D01*
X35180Y209899D01*
X35202Y209876D01*
X35252Y209826D01*
X35313Y209788D01*
X35319D01*
X35330Y209782D01*
X35352Y209771D01*
X35380Y209765D01*
X35413Y209754D01*
X35457Y209749D01*
X35502Y209743D01*
X35557D01*
X35563D01*
X35579D01*
X35607D01*
X35635Y209749D01*
X35707Y209765D01*
X35785Y209799D01*
X35790D01*
X35802Y209810D01*
X35818Y209821D01*
X35840Y209843D01*
X35868Y209871D01*
X35890Y209904D01*
X35918Y209943D01*
X35940Y209987D01*
Y209993D01*
X35946Y210004D01*
X35951Y210026D01*
X35957Y210048D01*
X35968Y210082D01*
X35974Y210121D01*
X35985Y210209D01*
Y210232D01*
X35990Y210259D01*
Y210332D01*
X35996Y210381D01*
Y210825D01*
D02*
G37*
G36*
X34453Y206891D02*
Y206014D01*
X35718Y206452D01*
X34453Y206891D01*
D02*
G37*
G36*
X34858Y199132D02*
X34852D01*
X34847D01*
X34830D01*
X34802D01*
X34747Y199126D01*
X34669Y199120D01*
X34586Y199115D01*
X34497Y199098D01*
X34403Y199082D01*
X34314Y199059D01*
X34303Y199054D01*
X34275Y199048D01*
X34236Y199032D01*
X34186Y199010D01*
X34125Y198982D01*
X34064Y198948D01*
X34003Y198910D01*
X33948Y198865D01*
X33942Y198860D01*
X33926Y198843D01*
X33898Y198821D01*
X33870Y198787D01*
X33837Y198749D01*
X33803Y198699D01*
X33770Y198643D01*
X33742Y198588D01*
Y198582D01*
X33731Y198560D01*
X33720Y198527D01*
X33709Y198482D01*
X33698Y198432D01*
X33687Y198371D01*
X33681Y198310D01*
X33676Y198244D01*
Y198216D01*
X33681Y198177D01*
X33687Y198133D01*
X33692Y198083D01*
X33704Y198027D01*
X33720Y197966D01*
X33742Y197905D01*
X33748Y197899D01*
X33753Y197877D01*
X33770Y197850D01*
X33792Y197811D01*
X33826Y197766D01*
X33859Y197716D01*
X33903Y197666D01*
X33953Y197622D01*
X33959Y197616D01*
X33981Y197600D01*
X34020Y197578D01*
X34064Y197544D01*
X34120Y197517D01*
X34186Y197483D01*
X34264Y197450D01*
X34342Y197422D01*
X34353Y197417D01*
X34381Y197411D01*
X34431Y197400D01*
X34492Y197389D01*
X34569Y197378D01*
X34658Y197367D01*
X34753Y197356D01*
X34863D01*
X34869D01*
X34880D01*
X34897D01*
X34919D01*
X34975Y197361D01*
X35052Y197367D01*
X35135Y197372D01*
X35230Y197389D01*
X35319Y197406D01*
X35407Y197433D01*
X35418Y197439D01*
X35446Y197444D01*
X35485Y197461D01*
X35541Y197483D01*
X35596Y197511D01*
X35657Y197544D01*
X35718Y197583D01*
X35774Y197627D01*
X35779Y197633D01*
X35796Y197650D01*
X35824Y197672D01*
X35857Y197711D01*
X35890Y197750D01*
X35924Y197800D01*
X35957Y197850D01*
X35985Y197911D01*
X35990Y197916D01*
X35996Y197938D01*
X36007Y197972D01*
X36018Y198011D01*
X36029Y198060D01*
X36040Y198122D01*
X36051Y198177D01*
Y198271D01*
X36046Y198310D01*
Y198349D01*
X36035Y198405D01*
X36024Y198460D01*
X36007Y198515D01*
X35985Y198577D01*
Y198582D01*
X35974Y198604D01*
X35957Y198632D01*
X35935Y198671D01*
X35907Y198715D01*
X35874Y198760D01*
X35829Y198810D01*
X35779Y198860D01*
X35774Y198865D01*
X35757Y198882D01*
X35724Y198904D01*
X35685Y198932D01*
X35629Y198960D01*
X35568Y198993D01*
X35491Y199026D01*
X35407Y199059D01*
X35396Y199065D01*
X35369Y199071D01*
X35319Y199082D01*
X35252Y199093D01*
X35169Y199109D01*
X35080Y199120D01*
X34975Y199126D01*
X34858Y199132D01*
D02*
G37*
G36*
Y179557D02*
X34852D01*
X34847D01*
X34830D01*
X34802D01*
X34747Y179551D01*
X34669Y179546D01*
X34586Y179540D01*
X34497Y179523D01*
X34403Y179507D01*
X34314Y179485D01*
X34303Y179479D01*
X34275Y179473D01*
X34236Y179457D01*
X34186Y179435D01*
X34125Y179407D01*
X34064Y179374D01*
X34003Y179335D01*
X33948Y179290D01*
X33942Y179285D01*
X33926Y179268D01*
X33898Y179246D01*
X33870Y179213D01*
X33837Y179174D01*
X33803Y179124D01*
X33770Y179068D01*
X33742Y179013D01*
Y179007D01*
X33731Y178985D01*
X33720Y178952D01*
X33709Y178907D01*
X33698Y178857D01*
X33687Y178796D01*
X33681Y178735D01*
X33676Y178669D01*
Y178641D01*
X33681Y178602D01*
X33687Y178558D01*
X33692Y178508D01*
X33704Y178452D01*
X33720Y178391D01*
X33742Y178330D01*
X33748Y178325D01*
X33753Y178302D01*
X33770Y178275D01*
X33792Y178236D01*
X33826Y178191D01*
X33859Y178141D01*
X33903Y178092D01*
X33953Y178047D01*
X33959Y178042D01*
X33981Y178025D01*
X34020Y178003D01*
X34064Y177969D01*
X34120Y177942D01*
X34186Y177908D01*
X34264Y177875D01*
X34342Y177847D01*
X34353Y177842D01*
X34381Y177836D01*
X34431Y177825D01*
X34492Y177814D01*
X34569Y177803D01*
X34658Y177792D01*
X34753Y177781D01*
X34863D01*
X34869D01*
X34880D01*
X34897D01*
X34919D01*
X34975Y177786D01*
X35052Y177792D01*
X35135Y177797D01*
X35230Y177814D01*
X35319Y177831D01*
X35407Y177858D01*
X35418Y177864D01*
X35446Y177869D01*
X35485Y177886D01*
X35541Y177908D01*
X35596Y177936D01*
X35657Y177969D01*
X35718Y178008D01*
X35774Y178053D01*
X35779Y178058D01*
X35796Y178075D01*
X35824Y178097D01*
X35857Y178136D01*
X35890Y178175D01*
X35924Y178225D01*
X35957Y178275D01*
X35985Y178336D01*
X35990Y178341D01*
X35996Y178364D01*
X36007Y178397D01*
X36018Y178436D01*
X36029Y178486D01*
X36040Y178547D01*
X36051Y178602D01*
Y178697D01*
X36046Y178735D01*
Y178774D01*
X36035Y178830D01*
X36024Y178885D01*
X36007Y178941D01*
X35985Y179002D01*
Y179007D01*
X35974Y179030D01*
X35957Y179057D01*
X35935Y179096D01*
X35907Y179140D01*
X35874Y179185D01*
X35829Y179235D01*
X35779Y179285D01*
X35774Y179290D01*
X35757Y179307D01*
X35724Y179329D01*
X35685Y179357D01*
X35629Y179385D01*
X35568Y179418D01*
X35491Y179451D01*
X35407Y179485D01*
X35396Y179490D01*
X35369Y179496D01*
X35319Y179507D01*
X35252Y179518D01*
X35169Y179534D01*
X35080Y179546D01*
X34975Y179551D01*
X34858Y179557D01*
D02*
G37*
G36*
X26579Y232848D02*
Y231971D01*
X27844Y232409D01*
X26579Y232848D01*
D02*
G37*
G36*
X27101Y215388D02*
X26984D01*
X26978D01*
X26956D01*
X26923D01*
X26878D01*
X26829Y215382D01*
X26768D01*
X26701Y215376D01*
X26629Y215371D01*
X26479Y215354D01*
X26324Y215332D01*
X26185Y215304D01*
X26118Y215282D01*
X26063Y215260D01*
X26057D01*
X26052Y215254D01*
X26018Y215238D01*
X25974Y215204D01*
X25924Y215160D01*
X25874Y215099D01*
X25830Y215027D01*
X25796Y214938D01*
X25791Y214894D01*
X25785Y214838D01*
Y214827D01*
X25791Y214788D01*
X25802Y214738D01*
X25818Y214677D01*
X25852Y214611D01*
X25902Y214538D01*
X25935Y214505D01*
X25974Y214477D01*
X26013Y214450D01*
X26063Y214422D01*
X26068D01*
X26074Y214416D01*
X26096Y214411D01*
X26118Y214400D01*
X26146Y214388D01*
X26185Y214377D01*
X26229Y214366D01*
X26285Y214355D01*
X26346Y214344D01*
X26412Y214333D01*
X26490Y214322D01*
X26573Y214311D01*
X26668Y214300D01*
X26768Y214294D01*
X26873Y214289D01*
X26989D01*
X26995D01*
X27017D01*
X27051D01*
X27095D01*
X27150Y214294D01*
X27211D01*
X27278Y214300D01*
X27350Y214305D01*
X27500Y214322D01*
X27656Y214344D01*
X27728Y214355D01*
X27800Y214372D01*
X27861Y214394D01*
X27916Y214416D01*
X27922D01*
X27928Y214422D01*
X27961Y214439D01*
X28005Y214472D01*
X28055Y214516D01*
X28105Y214577D01*
X28150Y214649D01*
X28183Y214733D01*
X28188Y214783D01*
X28194Y214838D01*
Y214866D01*
X28188Y214888D01*
X28177Y214938D01*
X28161Y215005D01*
X28127Y215071D01*
X28077Y215143D01*
X28044Y215177D01*
X28011Y215210D01*
X27966Y215238D01*
X27916Y215265D01*
X27911D01*
X27905Y215271D01*
X27889Y215277D01*
X27861Y215282D01*
X27833Y215293D01*
X27794Y215304D01*
X27750Y215315D01*
X27694Y215326D01*
X27633Y215338D01*
X27567Y215349D01*
X27489Y215360D01*
X27406Y215371D01*
X27311Y215376D01*
X27211Y215382D01*
X27101Y215388D01*
D02*
G37*
G36*
X27911Y208322D02*
X27905D01*
X27889D01*
X27861Y208317D01*
X27828Y208311D01*
X27755Y208289D01*
X27722Y208272D01*
X27689Y208245D01*
X27683Y208239D01*
X27678Y208228D01*
X27661Y208206D01*
X27639Y208178D01*
X27617Y208145D01*
X27589Y208095D01*
X27561Y208045D01*
X27528Y207978D01*
Y207973D01*
X27522Y207967D01*
X27517Y207950D01*
X27511Y207928D01*
X27483Y207873D01*
X27456Y207795D01*
Y207790D01*
X27450Y207773D01*
X27439Y207751D01*
X27428Y207717D01*
X27417Y207673D01*
X27400Y207629D01*
X27384Y207573D01*
X27361Y207512D01*
X27367Y207506D01*
X27384Y207495D01*
X27411Y207473D01*
X27439Y207446D01*
X27517Y207390D01*
X27556Y207368D01*
X27595Y207346D01*
X27600D01*
X27611Y207340D01*
X27639Y207329D01*
X27667Y207318D01*
X27705Y207312D01*
X27750Y207301D01*
X27800Y207296D01*
X27855D01*
X27861D01*
X27883D01*
X27916Y207301D01*
X27961Y207312D01*
X28005Y207329D01*
X28050Y207357D01*
X28100Y207390D01*
X28144Y207440D01*
X28150Y207446D01*
X28161Y207468D01*
X28177Y207495D01*
X28199Y207540D01*
X28222Y207595D01*
X28238Y207662D01*
X28249Y207734D01*
X28255Y207817D01*
Y207873D01*
X28244Y207934D01*
X28233Y208000D01*
Y208006D01*
X28227Y208017D01*
X28222Y208034D01*
X28216Y208056D01*
X28194Y208106D01*
X28166Y208161D01*
Y208167D01*
X28161Y208172D01*
X28138Y208200D01*
X28105Y208239D01*
X28061Y208278D01*
X28055D01*
X28050Y208283D01*
X28016Y208300D01*
X27972Y208317D01*
X27911Y208322D01*
D02*
G37*
G36*
X26274Y208428D02*
X26263D01*
X26235Y208422D01*
X26185Y208417D01*
X26129Y208406D01*
X26068Y208383D01*
X26002Y208350D01*
X25935Y208311D01*
X25874Y208250D01*
X25868Y208239D01*
X25852Y208217D01*
X25830Y208178D01*
X25802Y208123D01*
X25774Y208056D01*
X25752Y207978D01*
X25735Y207890D01*
X25730Y207784D01*
Y207756D01*
X25735Y207734D01*
X25741Y207679D01*
X25752Y207606D01*
Y207601D01*
X25757Y207590D01*
X25763Y207568D01*
X25769Y207545D01*
X25791Y207484D01*
X25818Y207423D01*
Y207418D01*
X25830Y207407D01*
X25857Y207373D01*
X25896Y207329D01*
X25946Y207284D01*
X25952D01*
X25963Y207273D01*
X25979Y207268D01*
X26002Y207257D01*
X26029Y207246D01*
X26068Y207240D01*
X26151Y207229D01*
X26157D01*
X26179D01*
X26212Y207235D01*
X26251Y207240D01*
X26296Y207251D01*
X26340Y207268D01*
X26379Y207290D01*
X26418Y207318D01*
X26423Y207323D01*
X26434Y207334D01*
X26451Y207362D01*
X26479Y207396D01*
X26507Y207446D01*
X26540Y207506D01*
X26579Y207579D01*
X26623Y207673D01*
Y207679D01*
X26629Y207690D01*
X26634Y207706D01*
X26645Y207734D01*
X26656Y207767D01*
X26673Y207806D01*
X26690Y207851D01*
X26706Y207906D01*
Y207912D01*
X26718Y207928D01*
X26729Y207962D01*
X26740Y207995D01*
X26768Y208078D01*
X26801Y208161D01*
X26795Y208167D01*
X26784Y208178D01*
X26762Y208200D01*
X26740Y208223D01*
X26706Y208256D01*
X26668Y208283D01*
X26573Y208350D01*
X26568Y208356D01*
X26551Y208361D01*
X26523Y208372D01*
X26485Y208389D01*
X26440Y208406D01*
X26390Y208417D01*
X26335Y208422D01*
X26274Y208428D01*
D02*
G37*
%LPD*%
D10*
X92575Y160626D02*
G03*
X92575Y160626I-492J0D01*
G01*
D11*
X88933Y152752D02*
G03*
X88933Y152752I-1181J0D01*
G01*
D12*
X82677Y175197D02*
X86614D01*
X82677Y168110D02*
X86614D01*
X65311Y156689D02*
X91689D01*
X65311Y130311D02*
X91689D01*
Y156689D01*
X65311Y130311D02*
Y156689D01*
X132438Y145703D02*
Y150427D01*
X125654Y145705D02*
X128803D01*
X125654Y150429D02*
X128803D01*
X132438Y137006D02*
Y141730D01*
X125654Y137008D02*
X128803D01*
X125654Y141732D02*
X128803D01*
D13*
X16500Y119587D02*
X22500D01*
X16500Y125587D02*
X22500D01*
X16500Y125740D02*
X22500D01*
X16500Y131740D02*
X22500D01*
X104087Y151331D02*
X110087D01*
X104087Y157331D02*
X110087D01*
X59992Y168654D02*
X65992D01*
X59992Y174653D02*
X65992D01*
X124165Y128890D02*
X130165D01*
X124165Y134890D02*
X130165D01*
X124165Y152512D02*
X130165D01*
X124165Y158512D02*
X130165D01*
X69441Y174653D02*
X75441D01*
X69441Y168654D02*
X75441D01*
X93850D02*
X99850D01*
X93850Y174653D02*
X99850D01*
X16500Y107500D02*
X22500D01*
X16500Y101500D02*
X22500D01*
X16500Y107500D02*
X22500D01*
X16500Y113500D02*
X22500D01*
X16500D02*
X22500D01*
X16500Y119500D02*
X22500D01*
X98347Y210000D02*
X104347D01*
X98347Y216000D02*
X104347D01*
X103643Y201090D02*
Y207090D01*
X97643Y201090D02*
Y207090D01*
X104087Y163236D02*
X110087D01*
X104087Y157236D02*
X110087D01*
X79731Y64890D02*
Y70890D01*
X85731Y64890D02*
Y70890D01*
Y77500D02*
Y83500D01*
X79731Y77500D02*
Y83500D01*
X92231Y65000D02*
Y71000D01*
X98231Y65000D02*
Y71000D01*
Y77500D02*
Y83500D01*
X92231Y77500D02*
Y83500D01*
X56150Y132827D02*
Y138827D01*
X50150Y132827D02*
Y138827D01*
X87551Y121504D02*
X93551D01*
X87551Y115504D02*
X93551D01*
X17079Y152512D02*
X23079D01*
X17079Y158512D02*
X23079D01*
X17079Y170323D02*
X23079D01*
X17079Y164323D02*
X23079D01*
X17079Y158417D02*
X23079D01*
X17079Y164417D02*
X23079D01*
X109693Y201090D02*
Y207090D01*
X103693Y201090D02*
Y207090D01*
D14*
X53189Y62191D02*
Y85811D01*
Y62189D02*
X76811D01*
X53189Y85811D02*
X76811D01*
Y62189D02*
Y85809D01*
X125311Y61689D02*
Y85309D01*
X101689Y85311D02*
X125311D01*
X101689Y61689D02*
X125311D01*
X101689Y61691D02*
Y85311D01*
D15*
X11100Y60972D02*
X12500D01*
X11100Y90972D02*
X12500D01*
X791Y57468D02*
Y94476D01*
M02*
