G04*
G04 #@! TF.GenerationSoftware,Altium Limited,Altium Designer,18.1.5 (160)*
G04*
G04 Layer_Color=8388736*
%FSLAX25Y25*%
%MOIN*%
G70*
G01*
G75*
%ADD30R,0.10642X0.08674*%
%ADD31R,0.09855X0.02965*%
%ADD32R,0.04737X0.07887*%
%ADD33R,0.02769X0.04343*%
%ADD34R,0.03162X0.05131*%
%ADD35R,0.05918X0.06902*%
%ADD36R,0.01981X0.05524*%
%ADD37R,0.05524X0.01981*%
%ADD38R,0.06115X0.02375*%
%ADD39R,0.08280X0.07887*%
%ADD40R,0.07099X0.09068*%
%ADD41R,0.04343X0.02769*%
%ADD42R,0.04147X0.04540*%
%ADD43R,0.05918X0.04737*%
%ADD44C,0.04343*%
%ADD45C,0.04737*%
%ADD46C,0.21272*%
D30*
X144882Y234842D02*
D03*
Y191929D02*
D03*
X123228Y234842D02*
D03*
Y191929D02*
D03*
D31*
Y213386D02*
D03*
Y216535D02*
D03*
Y219685D02*
D03*
Y210236D02*
D03*
Y207087D02*
D03*
D32*
X89567Y171653D02*
D03*
X79724D02*
D03*
D33*
X22610Y122587D02*
D03*
X16390D02*
D03*
X22610Y128740D02*
D03*
X16390D02*
D03*
X110197Y154331D02*
D03*
X103976D02*
D03*
X66102Y171653D02*
D03*
X59882D02*
D03*
X130276Y131890D02*
D03*
X124055D02*
D03*
X130276Y155512D02*
D03*
X124055D02*
D03*
X69331Y171653D02*
D03*
X75551D02*
D03*
X99961D02*
D03*
X93740D02*
D03*
X16390Y104500D02*
D03*
X22610D02*
D03*
Y110500D02*
D03*
X16390D02*
D03*
X22610Y116500D02*
D03*
X16390D02*
D03*
X104457Y213000D02*
D03*
X98236D02*
D03*
X103976Y160236D02*
D03*
X110197D02*
D03*
X87441Y118504D02*
D03*
X93661D02*
D03*
X23189Y155512D02*
D03*
X16969D02*
D03*
Y167323D02*
D03*
X23189D02*
D03*
X23189Y161417D02*
D03*
X16969D02*
D03*
D34*
X25591Y147638D02*
D03*
Y136614D02*
D03*
X21850D02*
D03*
X18110Y147638D02*
D03*
Y136614D02*
D03*
D35*
X56142Y89650D02*
D03*
X73858D02*
D03*
Y58350D02*
D03*
X56142D02*
D03*
X122358Y57850D02*
D03*
X104642D02*
D03*
Y89150D02*
D03*
X122358D02*
D03*
D36*
X89327Y160626D02*
D03*
X87358D02*
D03*
X85390D02*
D03*
X83421D02*
D03*
X81453D02*
D03*
X79484D02*
D03*
X77516D02*
D03*
X75547D02*
D03*
X73579D02*
D03*
X71610D02*
D03*
X69642D02*
D03*
X67673D02*
D03*
Y126374D02*
D03*
X69642D02*
D03*
X71610D02*
D03*
X73579D02*
D03*
X75547D02*
D03*
X77516D02*
D03*
X79484D02*
D03*
X85390D02*
D03*
X87358D02*
D03*
X89327D02*
D03*
X83421D02*
D03*
X81453D02*
D03*
D37*
X61374Y154327D02*
D03*
Y152358D02*
D03*
Y150390D02*
D03*
Y148421D02*
D03*
Y146453D02*
D03*
Y144484D02*
D03*
Y142516D02*
D03*
Y140547D02*
D03*
Y138579D02*
D03*
Y136610D02*
D03*
Y134642D02*
D03*
Y132673D02*
D03*
X95626D02*
D03*
Y134642D02*
D03*
Y136610D02*
D03*
Y138579D02*
D03*
Y140547D02*
D03*
Y142516D02*
D03*
Y144484D02*
D03*
Y146453D02*
D03*
Y148421D02*
D03*
Y150390D02*
D03*
Y152358D02*
D03*
Y154327D02*
D03*
D38*
X17031Y70854D02*
D03*
Y81090D02*
D03*
Y78531D02*
D03*
Y73413D02*
D03*
Y75972D02*
D03*
D39*
X6500Y90933D02*
D03*
Y61012D02*
D03*
Y80500D02*
D03*
Y71445D02*
D03*
D40*
X16539Y88374D02*
D03*
Y63571D02*
D03*
D41*
X100643Y200980D02*
D03*
Y207200D02*
D03*
X82731Y64780D02*
D03*
Y71000D02*
D03*
Y83610D02*
D03*
Y77390D02*
D03*
X95231Y64890D02*
D03*
Y71110D02*
D03*
Y83610D02*
D03*
Y77390D02*
D03*
X53150Y138937D02*
D03*
Y132717D02*
D03*
X106693Y200980D02*
D03*
Y207200D02*
D03*
D42*
X130181Y148067D02*
D03*
X124276D02*
D03*
X130181Y139370D02*
D03*
X124276D02*
D03*
D43*
X91732Y206968D02*
D03*
Y199331D02*
D03*
X83858Y206968D02*
D03*
Y199331D02*
D03*
D44*
X133465Y204724D02*
D03*
D45*
Y222047D02*
D03*
D46*
X137795Y255906D02*
D03*
X19685Y19685D02*
D03*
M02*
