G04*
G04 #@! TF.GenerationSoftware,Altium Limited,Altium Designer,18.1.5 (160)*
G04*
G04 Layer_Physical_Order=1*
G04 Layer_Color=255*
%FSLAX25Y25*%
%MOIN*%
G70*
G01*
G75*
%ADD15C,0.01000*%
%ADD16R,0.09843X0.07874*%
%ADD17R,0.09055X0.02165*%
%ADD18R,0.03937X0.07087*%
%ADD19R,0.01968X0.03543*%
%ADD20R,0.02362X0.04331*%
%ADD21R,0.05118X0.06102*%
%ADD22R,0.01181X0.04724*%
%ADD23R,0.04724X0.01181*%
%ADD24R,0.05315X0.01575*%
%ADD25R,0.07480X0.07087*%
%ADD26R,0.06299X0.08268*%
%ADD27R,0.03543X0.01968*%
%ADD28R,0.03347X0.03740*%
%ADD29R,0.05118X0.03937*%
%ADD47C,0.01181*%
%ADD48C,0.01575*%
%ADD49C,0.02165*%
%ADD50C,0.03937*%
%ADD51R,0.09052X0.04720*%
%ADD52R,0.09253X0.09051*%
%ADD53R,0.11807X0.03543*%
%ADD54R,0.14006X0.03129*%
%ADD55R,0.07780X0.04543*%
%ADD56C,0.03543*%
%ADD57C,0.03937*%
%ADD58C,0.20472*%
%ADD59C,0.02362*%
G36*
X98425Y274169D02*
X156059D01*
X156059Y98425D01*
X156078Y98331D01*
X155904Y92567D01*
X155374Y86730D01*
X154492Y80936D01*
X153261Y75205D01*
X151688Y69560D01*
X149776Y64019D01*
X147533Y58605D01*
X144967Y53335D01*
X142088Y48230D01*
X138906Y43308D01*
X135432Y38588D01*
X131680Y34085D01*
X127663Y29818D01*
X123395Y25800D01*
X118893Y22048D01*
X114172Y18575D01*
X109250Y15392D01*
X104145Y12513D01*
X98876Y9947D01*
X93461Y7705D01*
X87921Y5793D01*
X82275Y4219D01*
X76544Y2989D01*
X70750Y2107D01*
X64913Y1577D01*
X59149Y1402D01*
X59055Y1421D01*
X1421D01*
Y56109D01*
X1760Y56468D01*
X1921Y56468D01*
X6000D01*
Y61012D01*
Y65555D01*
X1921D01*
X1760Y65555D01*
X1421Y65915D01*
Y66542D01*
X1760Y66902D01*
X1921Y66902D01*
X11240D01*
Y68756D01*
X11740Y69023D01*
X12058Y68811D01*
X12218Y68773D01*
X12390Y68313D01*
Y58437D01*
X20689D01*
Y65576D01*
X21154Y65950D01*
Y68110D01*
X22153D01*
Y65986D01*
X22505Y66056D01*
X22964Y66363D01*
X23334Y66115D01*
X23685Y66045D01*
Y68170D01*
X24685D01*
Y66045D01*
X25036Y66115D01*
X25632Y66514D01*
X26259Y66095D01*
X26610Y66025D01*
Y68149D01*
X27110D01*
Y68649D01*
X29235D01*
X29165Y69000D01*
X28837Y69492D01*
X29165Y69983D01*
X29235Y70334D01*
X27110D01*
Y70834D01*
X26610D01*
Y72958D01*
X26259Y72888D01*
X25663Y72490D01*
X25036Y72909D01*
X24685Y72979D01*
Y70854D01*
X23685D01*
Y72979D01*
X23334Y72909D01*
X22738Y72510D01*
X22111Y72929D01*
X21760Y72999D01*
Y70875D01*
X20760D01*
Y73321D01*
X20689Y73379D01*
Y78902D01*
X26153D01*
X26543Y78979D01*
X26874Y79200D01*
X27095Y79531D01*
X27172Y79921D01*
Y81995D01*
X27179Y82047D01*
Y104500D01*
X27077Y105275D01*
X26778Y105997D01*
X26302Y106617D01*
X25682Y107093D01*
X24960Y107392D01*
X24955Y107393D01*
X24595Y107728D01*
X24595Y107945D01*
Y110000D01*
X22610D01*
X20626D01*
Y107772D01*
X20626Y107728D01*
Y107272D01*
X20626Y107228D01*
Y101728D01*
X21191D01*
Y84484D01*
X20689D01*
Y93508D01*
X13796D01*
X13644Y94008D01*
X13777Y94097D01*
X14259Y94818D01*
X14329Y95169D01*
X12205D01*
Y95669D01*
X11705D01*
Y97794D01*
X11354Y97724D01*
X10632Y97242D01*
X10150Y96520D01*
X9981Y95669D01*
X9823Y95476D01*
X7000D01*
Y91433D01*
X11240D01*
Y93135D01*
X11740Y93538D01*
X12030Y93480D01*
X12205Y93445D01*
X12390Y93294D01*
Y93063D01*
Y83240D01*
X13326D01*
Y79921D01*
X13374Y79679D01*
Y76744D01*
Y73391D01*
X12988Y73074D01*
X12909Y73089D01*
X12058Y72920D01*
X11740Y72708D01*
X11240Y72975D01*
Y75957D01*
Y85043D01*
X1921D01*
X1760Y85043D01*
X1421Y85403D01*
Y86030D01*
X1760Y86390D01*
X1921Y86390D01*
X6000D01*
Y90933D01*
Y95476D01*
X1921D01*
X1760Y95476D01*
X1421Y95836D01*
Y177165D01*
X1402Y177259D01*
X1577Y183024D01*
X2107Y188860D01*
X2989Y194655D01*
X4219Y200385D01*
X5793Y206031D01*
X7705Y211571D01*
X9947Y216986D01*
X12513Y222255D01*
X15392Y227360D01*
X18575Y232282D01*
X22048Y237003D01*
X25800Y241505D01*
X29818Y245773D01*
X34085Y249790D01*
X38588Y253542D01*
X43308Y257016D01*
X48230Y260198D01*
X53335Y263077D01*
X58605Y265643D01*
X64019Y267886D01*
X69560Y269798D01*
X75205Y271372D01*
X80936Y272602D01*
X86730Y273484D01*
X92567Y274014D01*
X98331Y274188D01*
X98425Y274169D01*
D02*
G37*
%LPC*%
G36*
X109161Y250550D02*
Y248925D01*
X110786D01*
X110716Y249276D01*
X110234Y249998D01*
X109512Y250480D01*
X109161Y250550D01*
D02*
G37*
G36*
X108161D02*
X107810Y250480D01*
X107089Y249998D01*
X106607Y249276D01*
X106537Y248925D01*
X108161D01*
Y250550D01*
D02*
G37*
G36*
X65854D02*
Y248925D01*
X67479D01*
X67409Y249276D01*
X66927Y249998D01*
X66205Y250480D01*
X65854Y250550D01*
D02*
G37*
G36*
X64854D02*
X64503Y250480D01*
X63782Y249998D01*
X63300Y249276D01*
X63230Y248925D01*
X64854D01*
Y250550D01*
D02*
G37*
G36*
X110786Y247925D02*
X109161D01*
Y246301D01*
X109512Y246371D01*
X110234Y246853D01*
X110716Y247574D01*
X110786Y247925D01*
D02*
G37*
G36*
X108161D02*
X106537D01*
X106607Y247574D01*
X107089Y246853D01*
X107810Y246371D01*
X108161Y246301D01*
Y247925D01*
D02*
G37*
G36*
X67479D02*
X65854D01*
Y246301D01*
X66205Y246371D01*
X66927Y246853D01*
X67409Y247574D01*
X67479Y247925D01*
D02*
G37*
G36*
X64854D02*
X63230D01*
X63300Y247574D01*
X63782Y246853D01*
X64503Y246371D01*
X64854Y246301D01*
Y247925D01*
D02*
G37*
G36*
X137795Y267177D02*
X136032Y267038D01*
X134312Y266625D01*
X132678Y265948D01*
X131170Y265024D01*
X129825Y263875D01*
X128677Y262530D01*
X127753Y261022D01*
X127076Y259388D01*
X126663Y257669D01*
X126524Y255906D01*
X126663Y254142D01*
X127076Y252423D01*
X127753Y250789D01*
X128677Y249281D01*
X129825Y247936D01*
X131170Y246787D01*
X132678Y245863D01*
X134312Y245186D01*
X136032Y244773D01*
X137795Y244635D01*
X139558Y244773D01*
X141278Y245186D01*
X142912Y245863D01*
X144420Y246787D01*
X145765Y247936D01*
X146914Y249281D01*
X147838Y250789D01*
X148515Y252423D01*
X148927Y254142D01*
X149066Y255906D01*
X148927Y257669D01*
X148515Y259388D01*
X147838Y261022D01*
X146914Y262530D01*
X145765Y263875D01*
X144420Y265024D01*
X142912Y265948D01*
X141278Y266625D01*
X139558Y267038D01*
X137795Y267177D01*
D02*
G37*
G36*
X150803Y239779D02*
X145382D01*
Y235343D01*
X150803D01*
Y239779D01*
D02*
G37*
G36*
X144382D02*
X138961D01*
Y235343D01*
X144382D01*
Y239779D01*
D02*
G37*
G36*
X129150D02*
X123728D01*
Y235343D01*
X129150D01*
Y239779D01*
D02*
G37*
G36*
X122728D02*
X117307D01*
Y235343D01*
X122728D01*
Y239779D01*
D02*
G37*
G36*
X144382Y234343D02*
X138961D01*
Y230831D01*
X138775Y230650D01*
X138461Y230466D01*
X137795Y230553D01*
X129150D01*
Y234343D01*
X123228D01*
X117307D01*
Y230553D01*
X49606D01*
X48831Y230451D01*
X48109Y230152D01*
X47489Y229676D01*
X8907Y191094D01*
X8431Y190473D01*
X8132Y189751D01*
X8029Y188976D01*
Y136614D01*
Y134106D01*
X8132Y133331D01*
X8431Y132609D01*
X8907Y131989D01*
X13396Y127500D01*
Y122587D01*
Y116500D01*
Y110500D01*
Y104500D01*
X13498Y103725D01*
X13797Y103003D01*
X14273Y102383D01*
X14405Y102281D01*
Y101728D01*
X15324D01*
X15615Y101608D01*
X16390Y101506D01*
X17165Y101608D01*
X17456Y101728D01*
X18374D01*
Y102281D01*
X18507Y102383D01*
X18983Y103003D01*
X19282Y103725D01*
X19384Y104500D01*
Y110500D01*
Y114084D01*
X19884Y114429D01*
X20472Y114312D01*
X20626Y114186D01*
Y113772D01*
X20626Y113728D01*
Y113272D01*
X20626Y113228D01*
Y111000D01*
X22610D01*
X24595D01*
Y113228D01*
X24595Y113272D01*
Y113728D01*
X24595Y113772D01*
Y116000D01*
X22610D01*
Y116500D01*
X22110D01*
Y119272D01*
X20626D01*
Y118885D01*
X20472Y118759D01*
X19884Y118642D01*
X19384Y118987D01*
Y122587D01*
Y126230D01*
X19884Y126529D01*
X20568Y126393D01*
X20626Y126346D01*
Y125969D01*
X22110D01*
Y128740D01*
Y131512D01*
X20626D01*
Y130888D01*
X20568Y130841D01*
X19717Y130672D01*
X19041Y130220D01*
X18983Y130237D01*
X18507Y130857D01*
X18374Y130990D01*
Y131512D01*
X17852D01*
X16415Y132949D01*
X16623Y133449D01*
X21350D01*
Y136614D01*
X22350D01*
Y133449D01*
X27772D01*
Y139779D01*
X27413D01*
Y140551D01*
X27413Y140551D01*
X27274Y141249D01*
X26879Y141840D01*
X25853Y142866D01*
X25262Y143261D01*
X24564Y143400D01*
X24564Y143400D01*
X18743D01*
X18046Y143261D01*
X17454Y142866D01*
X17454Y142866D01*
X16822Y142234D01*
X16427Y141642D01*
X16288Y140945D01*
X16288Y140945D01*
Y139779D01*
X15929D01*
Y138437D01*
X14018D01*
Y187736D01*
X50846Y224565D01*
X118010D01*
X118278Y224065D01*
X118024Y223686D01*
X117954Y223335D01*
X120079D01*
Y222335D01*
X117954D01*
X117968Y222268D01*
X117701Y221768D01*
X117701D01*
Y220185D01*
X123228D01*
X128756D01*
Y221768D01*
X128756D01*
X128489Y222268D01*
X128502Y222335D01*
X126378D01*
Y223335D01*
X128502D01*
X128433Y223686D01*
X128179Y224065D01*
X128446Y224565D01*
X131117D01*
X131271Y224065D01*
X130872Y223544D01*
X130572Y222822D01*
X130471Y222047D01*
X130572Y221272D01*
X130872Y220550D01*
X131347Y219930D01*
X131967Y219454D01*
X132690Y219155D01*
X133465Y219053D01*
X134239Y219155D01*
X134962Y219454D01*
X135582Y219930D01*
X136057Y220550D01*
X136357Y221272D01*
X136459Y222047D01*
X136357Y222822D01*
X136057Y223544D01*
X135658Y224065D01*
X135812Y224565D01*
X136555D01*
X138345Y222776D01*
Y205571D01*
X136627Y203853D01*
X136483Y203899D01*
X136180Y204113D01*
X136260Y204724D01*
X136165Y205448D01*
X135886Y206122D01*
X135441Y206701D01*
X134862Y207145D01*
X134188Y207425D01*
X133465Y207520D01*
X132741Y207425D01*
X132067Y207145D01*
X131488Y206701D01*
X131044Y206122D01*
X130764Y205448D01*
X130669Y204724D01*
X130764Y204001D01*
X131044Y203327D01*
X131217Y203100D01*
X130971Y202600D01*
X128777D01*
Y206693D01*
X128756Y206797D01*
Y208614D01*
X129921D01*
X130542Y208738D01*
X131068Y209089D01*
X131855Y209877D01*
X132207Y210403D01*
X132330Y211024D01*
Y212598D01*
X132207Y213219D01*
X131855Y213745D01*
X131068Y214532D01*
X130542Y214884D01*
X129921Y215007D01*
X128756D01*
Y217602D01*
Y219185D01*
X123228D01*
X117701D01*
Y217602D01*
Y215007D01*
X106441D01*
Y215772D01*
X102472D01*
Y210228D01*
X106441D01*
Y211764D01*
X117701D01*
Y209210D01*
X95291D01*
Y209937D01*
X88173D01*
Y209210D01*
X87417D01*
Y209937D01*
X80299D01*
Y204000D01*
X81410D01*
X81697Y203650D01*
X86019D01*
X86307Y204000D01*
X87417D01*
Y204963D01*
X88173D01*
Y204000D01*
X89284D01*
X89571Y203650D01*
X93893D01*
X94181Y204000D01*
X95291D01*
Y204963D01*
X98294D01*
X98668Y204463D01*
X98663Y204437D01*
X102912D01*
X102907Y204463D01*
X103280Y204963D01*
X104200D01*
X104574Y204463D01*
X104569Y204437D01*
X108817D01*
X108812Y204463D01*
X109186Y204963D01*
X117484D01*
Y197643D01*
X117539Y197366D01*
X117307Y196866D01*
X117307D01*
Y192429D01*
X123228D01*
X129150D01*
Y196612D01*
X136614D01*
X137389Y196714D01*
X138111Y197013D01*
X138731Y197489D01*
X143456Y202214D01*
X143932Y202834D01*
X144231Y203556D01*
X144333Y204331D01*
Y224016D01*
X144231Y224791D01*
X143932Y225513D01*
X143456Y226133D01*
X140183Y229405D01*
X140390Y229906D01*
X144382D01*
Y234343D01*
D02*
G37*
G36*
X150803D02*
X145382D01*
Y229906D01*
X150803D01*
Y234343D01*
D02*
G37*
G36*
X148925Y228121D02*
Y226497D01*
X150550D01*
X150480Y226848D01*
X149998Y227569D01*
X149276Y228051D01*
X148925Y228121D01*
D02*
G37*
G36*
X147925D02*
X147574Y228051D01*
X146853Y227569D01*
X146371Y226848D01*
X146301Y226497D01*
X147925D01*
Y228121D01*
D02*
G37*
G36*
X150550Y225497D02*
X148925D01*
Y223872D01*
X149276Y223942D01*
X149998Y224424D01*
X150480Y225146D01*
X150550Y225497D01*
D02*
G37*
G36*
X147925D02*
X146301D01*
X146371Y225146D01*
X146853Y224424D01*
X147574Y223942D01*
X147925Y223872D01*
Y225497D01*
D02*
G37*
G36*
X100221Y215772D02*
X96252D01*
Y214622D01*
X59457D01*
X58836Y214498D01*
X58310Y214147D01*
X52003Y207840D01*
X51651Y207313D01*
X51528Y206693D01*
Y151969D01*
X51651Y151348D01*
X52003Y150822D01*
X55550Y147274D01*
X56076Y146923D01*
X56697Y146800D01*
X58012D01*
Y142894D01*
Y138957D01*
Y134295D01*
X55921D01*
Y134701D01*
X50378D01*
Y134539D01*
X49141D01*
X49066Y134613D01*
Y153150D01*
X49066Y153150D01*
X48928Y153847D01*
X48533Y154438D01*
X48533Y154438D01*
X46170Y156800D01*
X45579Y157195D01*
X44882Y157334D01*
X44882Y157334D01*
X30563D01*
Y167323D01*
X30424Y168020D01*
X30029Y168612D01*
X29438Y169007D01*
X28740Y169145D01*
X25173D01*
Y170095D01*
X21205D01*
Y164689D01*
X21205Y164189D01*
X21205Y164051D01*
Y161917D01*
X23189D01*
Y160917D01*
X21205D01*
Y158783D01*
X21205Y158646D01*
X21205Y158146D01*
Y152740D01*
X25173D01*
Y153689D01*
X44127D01*
X45422Y152395D01*
Y133858D01*
X45422Y133858D01*
X45560Y133161D01*
X45955Y132570D01*
X47097Y131428D01*
X47097Y131428D01*
X47688Y131033D01*
X48386Y130894D01*
X50378D01*
Y130732D01*
X55921D01*
Y131052D01*
X70291D01*
X70912Y131175D01*
X71438Y131527D01*
X74650Y134738D01*
X74949Y134674D01*
X75150Y134549D01*
Y130709D01*
X75244Y130236D01*
X74953Y129736D01*
X66083D01*
Y123012D01*
X86980D01*
Y126217D01*
X87012Y126374D01*
X87705D01*
Y123476D01*
X87736Y123319D01*
Y123012D01*
X87797D01*
X87828Y122855D01*
X88180Y122329D01*
X88734Y121776D01*
X88526Y121276D01*
X87941D01*
Y118504D01*
Y115732D01*
X89425D01*
Y116043D01*
X89716Y116282D01*
Y118504D01*
X90716D01*
Y116380D01*
X91067Y116449D01*
X91236Y116562D01*
X91677Y116327D01*
Y115732D01*
X95646D01*
Y121276D01*
X95283D01*
Y121764D01*
X95160Y122384D01*
X94808Y122910D01*
X93985Y123733D01*
X93459Y124085D01*
X92838Y124208D01*
X90948D01*
Y126374D01*
Y130757D01*
X90995Y130830D01*
X91448Y131129D01*
X91838Y131052D01*
X95626D01*
X95783Y131083D01*
X98988D01*
Y132028D01*
X99488Y132272D01*
X99712Y132098D01*
Y108860D01*
X86677Y95825D01*
X86325Y95299D01*
X86202Y94678D01*
Y79665D01*
X85975Y79439D01*
X85502Y79374D01*
Y79374D01*
X79959D01*
Y75406D01*
X81109D01*
Y72984D01*
X79959D01*
Y69016D01*
X80550D01*
X80786Y68575D01*
X80676Y68410D01*
X80606Y68059D01*
X84855D01*
X84785Y68410D01*
X84675Y68575D01*
X84911Y69016D01*
X85502D01*
Y72984D01*
X84352D01*
Y75406D01*
X85502D01*
Y75768D01*
X86220D01*
X86840Y75892D01*
X87367Y76243D01*
X88970Y77846D01*
X89157Y78127D01*
X89721Y78164D01*
X89748Y78150D01*
X91655Y76243D01*
X92181Y75892D01*
X92459Y75836D01*
Y75406D01*
X93609D01*
Y73094D01*
X92459D01*
Y69126D01*
X93170D01*
X93406Y68685D01*
X93222Y68410D01*
X93152Y68059D01*
X97401D01*
X97331Y68410D01*
X97148Y68685D01*
X97383Y69126D01*
X98002D01*
Y73094D01*
X96852D01*
Y75406D01*
X98002D01*
Y79374D01*
X93111D01*
X92502Y79983D01*
Y81626D01*
X98002D01*
Y81989D01*
X103020D01*
Y61902D01*
X101083D01*
Y53799D01*
X108201D01*
Y61902D01*
X106263D01*
Y83610D01*
Y85098D01*
X108201D01*
Y93201D01*
X101083D01*
Y85232D01*
X98002D01*
Y85594D01*
X92502D01*
Y93450D01*
X105084Y106032D01*
X105435Y106558D01*
X105559Y107179D01*
Y133679D01*
X105435Y134299D01*
X105084Y134825D01*
X102152Y137757D01*
X101626Y138109D01*
X101005Y138232D01*
X98988D01*
Y140894D01*
X115956D01*
X118627Y138223D01*
X119153Y137872D01*
X119773Y137748D01*
X121602D01*
Y136500D01*
X126949D01*
Y142240D01*
X121602D01*
Y140992D01*
X120445D01*
X118072Y143365D01*
X118049Y144049D01*
X120445Y146445D01*
X121602D01*
Y145197D01*
X126949D01*
Y150937D01*
X121602D01*
Y149689D01*
X119773D01*
X119153Y149565D01*
X118627Y149214D01*
X115519Y146106D01*
X98988D01*
Y148799D01*
Y152718D01*
X101992D01*
Y151559D01*
X105961D01*
Y152193D01*
X106402Y152428D01*
X106629Y152276D01*
X106980Y152206D01*
Y154331D01*
X107980D01*
Y152049D01*
X108213Y151858D01*
Y151559D01*
X109697D01*
Y154331D01*
X110197D01*
Y154831D01*
X112181D01*
Y157102D01*
X112181Y157102D01*
Y157465D01*
X112181D01*
X112181Y157602D01*
Y163008D01*
X108213D01*
Y162130D01*
X107713Y161915D01*
X107150Y162291D01*
X106299Y162460D01*
X105961Y162738D01*
Y163008D01*
X101992D01*
Y161858D01*
X101181D01*
X100560Y161734D01*
X100034Y161383D01*
X96606Y157954D01*
X90917D01*
Y159054D01*
X91290Y159128D01*
X91816Y159479D01*
X92236Y159900D01*
X93001Y160052D01*
X93722Y160534D01*
X94204Y161255D01*
X94373Y162106D01*
X94204Y162957D01*
X93722Y163679D01*
X93001Y164161D01*
X92149Y164330D01*
X91298Y164161D01*
X90917Y163988D01*
X90917Y163988D01*
X90917Y163988D01*
X87011D01*
Y167110D01*
X92535D01*
Y168882D01*
X95724D01*
Y169790D01*
X96224Y169988D01*
X96807Y169599D01*
X97658Y169430D01*
X97976Y169168D01*
Y168882D01*
X99461D01*
Y171653D01*
Y174425D01*
X97976D01*
Y174139D01*
X97658Y173877D01*
X96807Y173708D01*
X96224Y173319D01*
X95724Y173517D01*
Y174425D01*
X92535D01*
Y176197D01*
X86598D01*
Y175063D01*
X86098Y174881D01*
X85497Y175283D01*
X85146Y175353D01*
Y173228D01*
X84146D01*
Y175353D01*
X83795Y175283D01*
X83193Y174881D01*
X82693Y175063D01*
Y176197D01*
X76756D01*
Y174425D01*
X73567D01*
Y173547D01*
X73067Y173332D01*
X72505Y173708D01*
X71653Y173877D01*
X71315Y174155D01*
Y174425D01*
X69831D01*
Y171653D01*
Y168882D01*
X71315D01*
Y169152D01*
X71653Y169430D01*
X72505Y169599D01*
X73067Y169975D01*
X73567Y169760D01*
Y168882D01*
X76756D01*
Y167110D01*
X81800D01*
Y163988D01*
X75925D01*
Y160783D01*
X75894Y160626D01*
X75201D01*
X75169Y160783D01*
Y163988D01*
X66083D01*
Y158911D01*
X65621Y158720D01*
X61504Y162837D01*
Y168882D01*
X61866D01*
Y169790D01*
X62366Y169988D01*
X62949Y169599D01*
X63800Y169430D01*
X64118Y169168D01*
Y168882D01*
X65602D01*
Y171653D01*
Y174425D01*
X64118D01*
Y174139D01*
X63800Y173877D01*
X62949Y173708D01*
X62366Y173319D01*
X61866Y173517D01*
Y174425D01*
X57898D01*
Y168882D01*
X58260D01*
Y162165D01*
X58384Y161545D01*
X58735Y161019D01*
X63375Y156379D01*
X63183Y155917D01*
X58012D01*
Y152736D01*
Y150043D01*
X57369D01*
X54771Y152640D01*
Y206021D01*
X60128Y211378D01*
X96252D01*
Y210228D01*
X100221D01*
Y215772D01*
D02*
G37*
G36*
X148925Y204499D02*
Y202875D01*
X150550D01*
X150480Y203226D01*
X149998Y203947D01*
X149276Y204429D01*
X148925Y204499D01*
D02*
G37*
G36*
X147925D02*
X147574Y204429D01*
X146853Y203947D01*
X146371Y203226D01*
X146301Y202875D01*
X147925D01*
Y204499D01*
D02*
G37*
G36*
X108844Y203437D02*
X104542D01*
X104164Y202964D01*
X103921D01*
Y201480D01*
X106693D01*
X109465D01*
Y202964D01*
X109222D01*
X108844Y203437D01*
D02*
G37*
G36*
X102939D02*
X98636D01*
X98259Y202964D01*
X97871D01*
Y201480D01*
X100643D01*
X103414D01*
Y202964D01*
X103316D01*
X102939Y203437D01*
D02*
G37*
G36*
X150550Y201875D02*
X148925D01*
Y200250D01*
X149276Y200320D01*
X149998Y200802D01*
X150480Y201524D01*
X150550Y201875D01*
D02*
G37*
G36*
X147925D02*
X146301D01*
X146371Y201524D01*
X146853Y200802D01*
X147574Y200320D01*
X147925Y200250D01*
Y201875D01*
D02*
G37*
G36*
X93893Y202650D02*
X89571D01*
X89284Y202299D01*
X88173D01*
Y199831D01*
X91732D01*
X95291D01*
Y202299D01*
X94181D01*
X93893Y202650D01*
D02*
G37*
G36*
X86019Y202650D02*
X81697D01*
X81410Y202299D01*
X80299D01*
Y199831D01*
X83858D01*
X87417D01*
Y202299D01*
X86307D01*
X86019Y202650D01*
D02*
G37*
G36*
X109465Y200480D02*
X107193D01*
Y198996D01*
X109465D01*
Y200480D01*
D02*
G37*
G36*
X106193D02*
X103921D01*
Y198996D01*
X106193D01*
Y200480D01*
D02*
G37*
G36*
X103414Y200480D02*
X101143D01*
Y198996D01*
X103414D01*
Y200480D01*
D02*
G37*
G36*
X100143D02*
X97871D01*
Y198996D01*
X100143D01*
Y200480D01*
D02*
G37*
G36*
X65854Y199369D02*
Y197744D01*
X67479D01*
X67409Y198095D01*
X66927Y198817D01*
X66205Y199299D01*
X65854Y199369D01*
D02*
G37*
G36*
X64854D02*
X64503Y199299D01*
X63782Y198817D01*
X63300Y198095D01*
X63230Y197744D01*
X64854D01*
Y199369D01*
D02*
G37*
G36*
X95291Y198831D02*
X92232D01*
Y196362D01*
X95291D01*
Y198831D01*
D02*
G37*
G36*
X91232D02*
X88173D01*
Y196362D01*
X91232D01*
Y198831D01*
D02*
G37*
G36*
X87417Y198831D02*
X84358D01*
Y196362D01*
X87417D01*
Y198831D01*
D02*
G37*
G36*
X83358D02*
X80299D01*
Y196362D01*
X83358D01*
Y198831D01*
D02*
G37*
G36*
X67479Y196744D02*
X65854D01*
Y195120D01*
X66205Y195189D01*
X66927Y195672D01*
X67409Y196393D01*
X67479Y196744D01*
D02*
G37*
G36*
X64854D02*
X63230D01*
X63300Y196393D01*
X63782Y195672D01*
X64503Y195189D01*
X64854Y195120D01*
Y196744D01*
D02*
G37*
G36*
X150803Y196866D02*
X145382D01*
Y192429D01*
X150803D01*
Y196866D01*
D02*
G37*
G36*
X144382D02*
X138961D01*
Y192429D01*
X144382D01*
Y196866D01*
D02*
G37*
G36*
X150803Y191429D02*
X145382D01*
Y186992D01*
X150803D01*
Y191429D01*
D02*
G37*
G36*
X144382D02*
X138961D01*
Y186992D01*
X144382D01*
Y191429D01*
D02*
G37*
G36*
X129150Y191429D02*
X123728D01*
Y186992D01*
X129150D01*
Y191429D01*
D02*
G37*
G36*
X122728D02*
X117307D01*
Y186992D01*
X122728D01*
Y191429D01*
D02*
G37*
G36*
X137902Y186376D02*
Y184752D01*
X139526D01*
X139456Y185103D01*
X138974Y185825D01*
X138253Y186307D01*
X137902Y186376D01*
D02*
G37*
G36*
X136902D02*
X136550Y186307D01*
X135829Y185825D01*
X135347Y185103D01*
X135277Y184752D01*
X136902D01*
Y186376D01*
D02*
G37*
G36*
X31209D02*
Y184752D01*
X32833D01*
X32763Y185103D01*
X32281Y185825D01*
X31560Y186307D01*
X31209Y186376D01*
D02*
G37*
G36*
X30209D02*
X29858Y186307D01*
X29136Y185825D01*
X28654Y185103D01*
X28584Y184752D01*
X30209D01*
Y186376D01*
D02*
G37*
G36*
X139526Y183752D02*
X137902D01*
Y182128D01*
X138253Y182197D01*
X138974Y182679D01*
X139456Y183401D01*
X139526Y183752D01*
D02*
G37*
G36*
X136902D02*
X135277D01*
X135347Y183401D01*
X135829Y182679D01*
X136550Y182197D01*
X136902Y182128D01*
Y183752D01*
D02*
G37*
G36*
X32833D02*
X31209D01*
Y182128D01*
X31560Y182197D01*
X32281Y182679D01*
X32763Y183401D01*
X32833Y183752D01*
D02*
G37*
G36*
X30209D02*
X28584D01*
X28654Y183401D01*
X29136Y182679D01*
X29858Y182197D01*
X30209Y182128D01*
Y183752D01*
D02*
G37*
G36*
X20579Y175746D02*
Y174122D01*
X22203D01*
X22133Y174473D01*
X21651Y175195D01*
X20930Y175677D01*
X20579Y175746D01*
D02*
G37*
G36*
X19579D02*
X19228Y175677D01*
X18506Y175195D01*
X18024Y174473D01*
X17954Y174122D01*
X19579D01*
Y175746D01*
D02*
G37*
G36*
X101945Y174425D02*
X100461D01*
Y172153D01*
X101945D01*
Y174425D01*
D02*
G37*
G36*
X22203Y173122D02*
X20579D01*
Y171498D01*
X20930Y171567D01*
X21651Y172050D01*
X22133Y172771D01*
X22203Y173122D01*
D02*
G37*
G36*
X19579D02*
X17954D01*
X18024Y172771D01*
X18506Y172050D01*
X19228Y171567D01*
X19579Y171498D01*
Y173122D01*
D02*
G37*
G36*
X101945Y171153D02*
X100461D01*
Y168882D01*
X101945D01*
Y171153D01*
D02*
G37*
G36*
X68831Y174425D02*
X66602D01*
Y171653D01*
Y168882D01*
X68831D01*
Y171653D01*
Y174425D01*
D02*
G37*
G36*
X18953Y170095D02*
X17469D01*
Y167823D01*
X18953D01*
Y170095D01*
D02*
G37*
G36*
X16468D02*
X14984D01*
Y167823D01*
X16468D01*
Y170095D01*
D02*
G37*
G36*
X132260Y158283D02*
X128291D01*
Y157545D01*
X127791Y157217D01*
X127665Y157243D01*
Y155118D01*
Y152994D01*
X127791Y153019D01*
X128291Y152740D01*
Y152740D01*
X128559Y152351D01*
Y150937D01*
X127508D01*
Y145197D01*
X132854D01*
Y150937D01*
X131803D01*
Y152740D01*
X132260D01*
Y158283D01*
D02*
G37*
G36*
X123555D02*
X122071D01*
Y156012D01*
X123555D01*
Y158283D01*
D02*
G37*
G36*
X126039D02*
X124555D01*
Y155512D01*
Y152740D01*
X126039D01*
Y152740D01*
X126539Y153019D01*
X126665Y152994D01*
Y155118D01*
Y157243D01*
X126539Y157217D01*
X126039Y157545D01*
Y158283D01*
D02*
G37*
G36*
X123555Y155012D02*
X122071D01*
Y152740D01*
X123555D01*
Y155012D01*
D02*
G37*
G36*
X112181Y153831D02*
X110697D01*
Y151559D01*
X112181D01*
Y153831D01*
D02*
G37*
G36*
X137402Y150649D02*
X136550Y150480D01*
X135829Y149998D01*
X135347Y149276D01*
X135178Y148425D01*
X135347Y147574D01*
X135829Y146853D01*
X136550Y146371D01*
X137402Y146201D01*
X138253Y146371D01*
X138974Y146853D01*
X139456Y147574D01*
X139625Y148425D01*
X139456Y149276D01*
X138974Y149998D01*
X138253Y150480D01*
X137402Y150649D01*
D02*
G37*
G36*
X27772Y150803D02*
X23410D01*
Y144472D01*
X27772D01*
Y150803D01*
D02*
G37*
G36*
X18953Y166823D02*
X14984D01*
Y164689D01*
X14984Y164189D01*
X14984Y164051D01*
Y158646D01*
X14984D01*
X14984Y158283D01*
X14984D01*
Y152740D01*
X15209D01*
Y151512D01*
X15209Y151512D01*
X15348Y150814D01*
X15743Y150223D01*
X15929Y150037D01*
Y144472D01*
X20291D01*
Y150803D01*
X19859D01*
X19794Y151130D01*
X19399Y151722D01*
X19399Y151722D01*
X18880Y152240D01*
X18918Y152740D01*
X18953D01*
Y158283D01*
X18953D01*
X18953Y158646D01*
X18953D01*
Y164051D01*
X18953Y164551D01*
X18953Y164689D01*
Y166823D01*
D02*
G37*
G36*
X55921Y140921D02*
X53650D01*
Y139437D01*
X55921D01*
Y140921D01*
D02*
G37*
G36*
X52650D02*
X50378D01*
Y139437D01*
X52650D01*
Y140921D01*
D02*
G37*
G36*
X55921Y138437D02*
X53650D01*
Y136953D01*
X55921D01*
Y138437D01*
D02*
G37*
G36*
X52650D02*
X50378D01*
Y136953D01*
X52650D01*
Y138437D01*
D02*
G37*
G36*
X132854Y142240D02*
X127508D01*
Y136500D01*
X128654D01*
Y134661D01*
X128291D01*
Y134146D01*
X127850Y133911D01*
X127800Y133944D01*
X127449Y134014D01*
Y131890D01*
Y129765D01*
X127800Y129835D01*
X127850Y129869D01*
X128291Y129633D01*
Y129118D01*
X132260D01*
Y134661D01*
X131897D01*
Y136500D01*
X132854D01*
Y142240D01*
D02*
G37*
G36*
X123555Y134661D02*
X122071D01*
Y132390D01*
X123555D01*
Y134661D01*
D02*
G37*
G36*
X24595Y131512D02*
X23110D01*
Y129240D01*
X24595D01*
Y131512D01*
D02*
G37*
G36*
X126039Y134661D02*
X124555D01*
Y131890D01*
Y129118D01*
X126039D01*
Y129337D01*
X126449Y129673D01*
Y131890D01*
Y134107D01*
X126039Y134442D01*
Y134661D01*
D02*
G37*
G36*
X123555Y131390D02*
X122071D01*
Y129118D01*
X123555D01*
Y131390D01*
D02*
G37*
G36*
X24595Y128240D02*
X23110D01*
Y125969D01*
X24595D01*
Y128240D01*
D02*
G37*
G36*
Y125358D02*
X23110D01*
Y123087D01*
X24595D01*
Y125358D01*
D02*
G37*
G36*
X22110D02*
X20626D01*
Y123087D01*
X22110D01*
Y125358D01*
D02*
G37*
G36*
X24595Y122087D02*
X23110D01*
Y119815D01*
X24595D01*
Y122087D01*
D02*
G37*
G36*
X22110D02*
X20626D01*
Y119815D01*
X22110D01*
Y122087D01*
D02*
G37*
G36*
X86941Y121276D02*
X85457D01*
Y119004D01*
X86941D01*
Y121276D01*
D02*
G37*
G36*
X24595Y119272D02*
X23110D01*
Y117000D01*
X24595D01*
Y119272D01*
D02*
G37*
G36*
X113492Y117872D02*
Y116248D01*
X115117D01*
X115047Y116599D01*
X114565Y117321D01*
X113843Y117803D01*
X113492Y117872D01*
D02*
G37*
G36*
X112492D02*
X112141Y117803D01*
X111420Y117321D01*
X110938Y116599D01*
X110868Y116248D01*
X112492D01*
Y117872D01*
D02*
G37*
G36*
X78059D02*
Y116248D01*
X79683D01*
X79614Y116599D01*
X79132Y117321D01*
X78410Y117803D01*
X78059Y117872D01*
D02*
G37*
G36*
X77059D02*
X76708Y117803D01*
X75987Y117321D01*
X75504Y116599D01*
X75435Y116248D01*
X77059D01*
Y117872D01*
D02*
G37*
G36*
X42626D02*
Y116248D01*
X44250D01*
X44181Y116599D01*
X43698Y117321D01*
X42977Y117803D01*
X42626Y117872D01*
D02*
G37*
G36*
X41626D02*
X41275Y117803D01*
X40554Y117321D01*
X40071Y116599D01*
X40002Y116248D01*
X41626D01*
Y117872D01*
D02*
G37*
G36*
X86941Y118004D02*
X85457D01*
Y115732D01*
X86941D01*
Y118004D01*
D02*
G37*
G36*
X115117Y115248D02*
X113492D01*
Y113624D01*
X113843Y113693D01*
X114565Y114175D01*
X115047Y114897D01*
X115117Y115248D01*
D02*
G37*
G36*
X112492D02*
X110868D01*
X110938Y114897D01*
X111420Y114175D01*
X112141Y113693D01*
X112492Y113624D01*
Y115248D01*
D02*
G37*
G36*
X79683D02*
X78059D01*
Y113624D01*
X78410Y113693D01*
X79132Y114175D01*
X79614Y114897D01*
X79683Y115248D01*
D02*
G37*
G36*
X77059D02*
X75435D01*
X75504Y114897D01*
X75987Y114175D01*
X76708Y113693D01*
X77059Y113624D01*
Y115248D01*
D02*
G37*
G36*
X44250D02*
X42626D01*
Y113624D01*
X42977Y113693D01*
X43698Y114175D01*
X44181Y114897D01*
X44250Y115248D01*
D02*
G37*
G36*
X41626D02*
X40002D01*
X40071Y114897D01*
X40554Y114175D01*
X41275Y113693D01*
X41626Y113624D01*
Y115248D01*
D02*
G37*
G36*
X148925Y108030D02*
Y106405D01*
X150550D01*
X150480Y106756D01*
X149998Y107478D01*
X149276Y107960D01*
X148925Y108030D01*
D02*
G37*
G36*
X147925D02*
X147574Y107960D01*
X146853Y107478D01*
X146371Y106756D01*
X146301Y106405D01*
X147925D01*
Y108030D01*
D02*
G37*
G36*
X113492D02*
Y106405D01*
X115117D01*
X115047Y106756D01*
X114565Y107478D01*
X113843Y107960D01*
X113492Y108030D01*
D02*
G37*
G36*
X112492D02*
X112141Y107960D01*
X111420Y107478D01*
X110938Y106756D01*
X110868Y106405D01*
X112492D01*
Y108030D01*
D02*
G37*
G36*
X78059D02*
Y106405D01*
X79683D01*
X79614Y106756D01*
X79132Y107478D01*
X78410Y107960D01*
X78059Y108030D01*
D02*
G37*
G36*
X77059D02*
X76708Y107960D01*
X75987Y107478D01*
X75504Y106756D01*
X75435Y106405D01*
X77059D01*
Y108030D01*
D02*
G37*
G36*
X42626D02*
Y106405D01*
X44250D01*
X44181Y106756D01*
X43698Y107478D01*
X42977Y107960D01*
X42626Y108030D01*
D02*
G37*
G36*
X41626D02*
X41275Y107960D01*
X40554Y107478D01*
X40071Y106756D01*
X40002Y106405D01*
X41626D01*
Y108030D01*
D02*
G37*
G36*
X150550Y105405D02*
X148925D01*
Y103781D01*
X149276Y103851D01*
X149998Y104333D01*
X150480Y105054D01*
X150550Y105405D01*
D02*
G37*
G36*
X147925D02*
X146301D01*
X146371Y105054D01*
X146853Y104333D01*
X147574Y103851D01*
X147925Y103781D01*
Y105405D01*
D02*
G37*
G36*
X115117D02*
X113492D01*
Y103781D01*
X113843Y103851D01*
X114565Y104333D01*
X115047Y105054D01*
X115117Y105405D01*
D02*
G37*
G36*
X112492D02*
X110868D01*
X110938Y105054D01*
X111420Y104333D01*
X112141Y103851D01*
X112492Y103781D01*
Y105405D01*
D02*
G37*
G36*
X79683D02*
X78059D01*
Y103781D01*
X78410Y103851D01*
X79132Y104333D01*
X79614Y105054D01*
X79683Y105405D01*
D02*
G37*
G36*
X77059D02*
X75435D01*
X75504Y105054D01*
X75987Y104333D01*
X76708Y103851D01*
X77059Y103781D01*
Y105405D01*
D02*
G37*
G36*
X44250D02*
X42626D01*
Y103781D01*
X42977Y103851D01*
X43698Y104333D01*
X44181Y105054D01*
X44250Y105405D01*
D02*
G37*
G36*
X41626D02*
X40002D01*
X40071Y105054D01*
X40554Y104333D01*
X41275Y103851D01*
X41626Y103781D01*
Y105405D01*
D02*
G37*
G36*
X12705Y97794D02*
Y96169D01*
X14329D01*
X14259Y96520D01*
X13777Y97242D01*
X13056Y97724D01*
X12705Y97794D01*
D02*
G37*
G36*
X59701Y93701D02*
X56642D01*
Y90150D01*
X59701D01*
Y93701D01*
D02*
G37*
G36*
X55642D02*
X52583D01*
Y90150D01*
X55642D01*
Y93701D01*
D02*
G37*
G36*
X125917Y93201D02*
X122858D01*
Y89650D01*
X125917D01*
Y93201D01*
D02*
G37*
G36*
X121858D02*
X118799D01*
Y89650D01*
X121858D01*
Y93201D01*
D02*
G37*
G36*
X11240Y90433D02*
X7000D01*
Y86390D01*
X11240D01*
Y90433D01*
D02*
G37*
G36*
X59701Y89150D02*
X56642D01*
Y85598D01*
X59701D01*
Y89150D01*
D02*
G37*
G36*
X55642D02*
X52583D01*
Y85598D01*
X55642D01*
Y89150D01*
D02*
G37*
G36*
X125917Y88650D02*
X122858D01*
Y85098D01*
X125917D01*
Y88650D01*
D02*
G37*
G36*
X121858D02*
X118799D01*
Y85098D01*
X121858D01*
Y88650D01*
D02*
G37*
G36*
X77417Y93701D02*
X70299D01*
Y85598D01*
X72237D01*
Y83610D01*
Y62402D01*
X70299D01*
Y54299D01*
X77417D01*
Y62402D01*
X75480D01*
Y81989D01*
X79959D01*
Y81626D01*
X85502D01*
Y85594D01*
X79959D01*
Y85232D01*
X77740D01*
X77417Y85598D01*
Y93701D01*
D02*
G37*
G36*
X37913Y75771D02*
Y74147D01*
X39537D01*
X39467Y74498D01*
X38985Y75220D01*
X38264Y75702D01*
X37913Y75771D01*
D02*
G37*
G36*
X36913D02*
X36562Y75702D01*
X35840Y75220D01*
X35358Y74498D01*
X35288Y74147D01*
X36913D01*
Y75771D01*
D02*
G37*
G36*
X114672Y75538D02*
Y73913D01*
X116296D01*
X116227Y74264D01*
X115744Y74986D01*
X115023Y75468D01*
X114672Y75538D01*
D02*
G37*
G36*
X113672D02*
X113321Y75468D01*
X112600Y74986D01*
X112118Y74264D01*
X112048Y73913D01*
X113672D01*
Y75538D01*
D02*
G37*
G36*
X65239D02*
Y73913D01*
X66864D01*
X66794Y74264D01*
X66312Y74986D01*
X65590Y75468D01*
X65239Y75538D01*
D02*
G37*
G36*
X64239D02*
X63888Y75468D01*
X63167Y74986D01*
X62685Y74264D01*
X62615Y73913D01*
X64239D01*
Y75538D01*
D02*
G37*
G36*
X39537Y73147D02*
X37913D01*
Y71523D01*
X38264Y71592D01*
X38985Y72075D01*
X39467Y72796D01*
X39537Y73147D01*
D02*
G37*
G36*
X36913D02*
X35288D01*
X35358Y72796D01*
X35840Y72075D01*
X36562Y71592D01*
X36913Y71523D01*
Y73147D01*
D02*
G37*
G36*
X27610Y72958D02*
Y71334D01*
X29235D01*
X29165Y71685D01*
X28683Y72406D01*
X27961Y72888D01*
X27610Y72958D01*
D02*
G37*
G36*
X116296Y72913D02*
X114672D01*
Y71289D01*
X115023Y71359D01*
X115744Y71841D01*
X116227Y72562D01*
X116296Y72913D01*
D02*
G37*
G36*
X113672D02*
X112048D01*
X112118Y72562D01*
X112600Y71841D01*
X113321Y71359D01*
X113672Y71289D01*
Y72913D01*
D02*
G37*
G36*
X66864D02*
X65239D01*
Y71289D01*
X65590Y71359D01*
X66312Y71841D01*
X66794Y72562D01*
X66864Y72913D01*
D02*
G37*
G36*
X64239D02*
X62615D01*
X62685Y72562D01*
X63167Y71841D01*
X63888Y71359D01*
X64239Y71289D01*
Y72913D01*
D02*
G37*
G36*
X29235Y67649D02*
X27610D01*
Y66025D01*
X27961Y66095D01*
X28683Y66577D01*
X29165Y67298D01*
X29235Y67649D01*
D02*
G37*
G36*
X97606Y67059D02*
X92947D01*
X92795Y66874D01*
X92459D01*
Y65390D01*
X95231D01*
X98002D01*
Y66874D01*
X97758D01*
X97606Y67059D01*
D02*
G37*
G36*
X84948D02*
X80513D01*
X80271Y66764D01*
X79959D01*
Y65280D01*
X82731D01*
X85502D01*
Y66764D01*
X85190D01*
X84948Y67059D01*
D02*
G37*
G36*
X98002Y64390D02*
X95731D01*
Y62906D01*
X98002D01*
Y64390D01*
D02*
G37*
G36*
X94731D02*
X92459D01*
Y62906D01*
X94731D01*
Y64390D01*
D02*
G37*
G36*
X85502Y64280D02*
X83231D01*
Y62795D01*
X85502D01*
Y64280D01*
D02*
G37*
G36*
X82231D02*
X79959D01*
Y62795D01*
X82231D01*
Y64280D01*
D02*
G37*
G36*
X7000Y65555D02*
Y61512D01*
X11240D01*
Y65555D01*
X7000D01*
D02*
G37*
G36*
X59701Y62402D02*
X56642D01*
Y58850D01*
X59701D01*
Y62402D01*
D02*
G37*
G36*
X55642D02*
X52583D01*
Y58850D01*
X55642D01*
Y62402D01*
D02*
G37*
G36*
X125917Y61902D02*
X122858D01*
Y58350D01*
X125917D01*
Y61902D01*
D02*
G37*
G36*
X121858D02*
X118799D01*
Y58350D01*
X121858D01*
Y61902D01*
D02*
G37*
G36*
X11240Y60512D02*
X7000D01*
Y56468D01*
X11240D01*
Y60512D01*
D02*
G37*
G36*
X59701Y57850D02*
X56642D01*
Y54299D01*
X59701D01*
Y57850D01*
D02*
G37*
G36*
X55642D02*
X52583D01*
Y54299D01*
X55642D01*
Y57850D01*
D02*
G37*
G36*
X125917Y57350D02*
X122858D01*
Y53799D01*
X125917D01*
Y57350D01*
D02*
G37*
G36*
X121858D02*
X118799D01*
Y53799D01*
X121858D01*
Y57350D01*
D02*
G37*
G36*
X19685Y30956D02*
X17922Y30817D01*
X16202Y30404D01*
X14568Y29728D01*
X13060Y28803D01*
X11715Y27655D01*
X10567Y26310D01*
X9642Y24802D01*
X8966Y23168D01*
X8553Y21448D01*
X8414Y19685D01*
X8553Y17922D01*
X8966Y16202D01*
X9642Y14568D01*
X10567Y13060D01*
X11715Y11715D01*
X13060Y10567D01*
X14568Y9642D01*
X16202Y8966D01*
X17922Y8553D01*
X19685Y8414D01*
X21448Y8553D01*
X23168Y8966D01*
X24802Y9642D01*
X26310Y10567D01*
X27655Y11715D01*
X28803Y13060D01*
X29728Y14568D01*
X30404Y16202D01*
X30817Y17922D01*
X30956Y19685D01*
X30817Y21448D01*
X30404Y23168D01*
X29728Y24802D01*
X28803Y26310D01*
X27655Y27655D01*
X26310Y28803D01*
X24802Y29728D01*
X23168Y30404D01*
X21448Y30817D01*
X19685Y30956D01*
D02*
G37*
%LPD*%
G36*
X65705Y154720D02*
X67699D01*
X67851Y154220D01*
X67423Y153935D01*
X66941Y153213D01*
X66872Y152862D01*
X71120D01*
X71051Y153213D01*
X70569Y153935D01*
X70141Y154220D01*
X70293Y154720D01*
X71754D01*
X71957Y154287D01*
Y136632D01*
X69620Y134295D01*
X64736D01*
Y138957D01*
Y142894D01*
Y146831D01*
Y150768D01*
Y154521D01*
X65236Y154814D01*
X65705Y154720D01*
D02*
G37*
%LPC*%
G36*
X71120Y151862D02*
X69496D01*
Y150238D01*
X69847Y150308D01*
X70569Y150790D01*
X71051Y151511D01*
X71120Y151862D01*
D02*
G37*
G36*
X68496D02*
X66872D01*
X66941Y151511D01*
X67423Y150790D01*
X68145Y150308D01*
X68496Y150238D01*
Y151862D01*
D02*
G37*
G36*
X69496Y143069D02*
Y141445D01*
X71120D01*
X71051Y141796D01*
X70569Y142517D01*
X69847Y142999D01*
X69496Y143069D01*
D02*
G37*
G36*
X68496D02*
X68145Y142999D01*
X67423Y142517D01*
X66941Y141796D01*
X66872Y141445D01*
X68496D01*
Y143069D01*
D02*
G37*
G36*
X71120Y140445D02*
X69496D01*
Y138821D01*
X69847Y138890D01*
X70569Y139372D01*
X71051Y140094D01*
X71120Y140445D01*
D02*
G37*
G36*
X68496D02*
X66872D01*
X66941Y140094D01*
X67423Y139372D01*
X68145Y138890D01*
X68496Y138821D01*
Y140445D01*
D02*
G37*
%LPD*%
D15*
X24185Y70854D02*
X36965D01*
X17031D02*
X24185D01*
X36985Y70905D02*
X37413Y71332D01*
X36985Y70875D02*
Y70905D01*
X36965Y70854D02*
X36985Y70875D01*
X37000Y70890D01*
X22487Y128617D02*
X22610Y128740D01*
X20568Y128617D02*
X22487D01*
X36985Y70905D02*
X37000Y70890D01*
X37413Y71302D01*
X12909Y70866D02*
X12920Y70854D01*
X37413Y71302D02*
Y71332D01*
Y73647D01*
X11715Y69672D02*
X12909Y70866D01*
X11715Y61999D02*
Y69672D01*
X10728Y61012D02*
X11715Y61999D01*
X6500Y61012D02*
X10728D01*
X6500Y90933D02*
X6500Y90933D01*
X12920Y70854D02*
X17031D01*
D16*
X144882Y234842D02*
D03*
Y191929D02*
D03*
X123228Y234842D02*
D03*
Y191929D02*
D03*
D17*
Y213386D02*
D03*
Y216535D02*
D03*
Y219685D02*
D03*
Y210236D02*
D03*
Y207087D02*
D03*
D18*
X89567Y171653D02*
D03*
X79724D02*
D03*
D19*
X22610Y122587D02*
D03*
X16390D02*
D03*
X22610Y128740D02*
D03*
X16390D02*
D03*
X110197Y154331D02*
D03*
X103976D02*
D03*
X66102Y171653D02*
D03*
X59882D02*
D03*
X130276Y131890D02*
D03*
X124055D02*
D03*
X130276Y155512D02*
D03*
X124055D02*
D03*
X69331Y171653D02*
D03*
X75551D02*
D03*
X99961D02*
D03*
X93740D02*
D03*
X16390Y104500D02*
D03*
X22610D02*
D03*
Y110500D02*
D03*
X16390D02*
D03*
X22610Y116500D02*
D03*
X16390D02*
D03*
X104457Y213000D02*
D03*
X98236D02*
D03*
X103976Y160236D02*
D03*
X110197D02*
D03*
X87441Y118504D02*
D03*
X93661D02*
D03*
X23189Y155512D02*
D03*
X16969D02*
D03*
Y167323D02*
D03*
X23189D02*
D03*
X23189Y161417D02*
D03*
X16969D02*
D03*
D20*
X25591Y147638D02*
D03*
Y136614D02*
D03*
X21850D02*
D03*
X18110Y147638D02*
D03*
Y136614D02*
D03*
D21*
X56142Y89650D02*
D03*
X73858D02*
D03*
Y58350D02*
D03*
X56142D02*
D03*
X122358Y57850D02*
D03*
X104642D02*
D03*
Y89150D02*
D03*
X122358D02*
D03*
D22*
X89327Y160626D02*
D03*
X87358D02*
D03*
X85390D02*
D03*
X83421D02*
D03*
X81453D02*
D03*
X79484D02*
D03*
X77516D02*
D03*
X75547D02*
D03*
X73579D02*
D03*
X71610D02*
D03*
X69642D02*
D03*
X67673D02*
D03*
Y126374D02*
D03*
X69642D02*
D03*
X71610D02*
D03*
X73579D02*
D03*
X75547D02*
D03*
X77516D02*
D03*
X79484D02*
D03*
X85390D02*
D03*
X87358D02*
D03*
X89327D02*
D03*
X83421D02*
D03*
X81453D02*
D03*
D23*
X61374Y154327D02*
D03*
Y152358D02*
D03*
Y150390D02*
D03*
Y148421D02*
D03*
Y146453D02*
D03*
Y144484D02*
D03*
Y142516D02*
D03*
Y140547D02*
D03*
Y138579D02*
D03*
Y136610D02*
D03*
Y134642D02*
D03*
Y132673D02*
D03*
X95626D02*
D03*
Y134642D02*
D03*
Y136610D02*
D03*
Y138579D02*
D03*
Y140547D02*
D03*
Y142516D02*
D03*
Y144484D02*
D03*
Y146453D02*
D03*
Y148421D02*
D03*
Y150390D02*
D03*
Y152358D02*
D03*
Y154327D02*
D03*
D24*
X17031Y70854D02*
D03*
Y81090D02*
D03*
Y78531D02*
D03*
Y73413D02*
D03*
Y75972D02*
D03*
D25*
X6500Y90933D02*
D03*
Y61012D02*
D03*
Y80500D02*
D03*
Y71445D02*
D03*
D26*
X16539Y88374D02*
D03*
Y63571D02*
D03*
D27*
X100643Y200980D02*
D03*
Y207200D02*
D03*
X82731Y64780D02*
D03*
Y71000D02*
D03*
Y83610D02*
D03*
Y77390D02*
D03*
X95231Y64890D02*
D03*
Y71110D02*
D03*
Y83610D02*
D03*
Y77390D02*
D03*
X53150Y138937D02*
D03*
Y132717D02*
D03*
X106693Y200980D02*
D03*
Y207200D02*
D03*
D28*
X130181Y148067D02*
D03*
X124276D02*
D03*
X130181Y139370D02*
D03*
X124276D02*
D03*
D29*
X91732Y206968D02*
D03*
Y199331D02*
D03*
X83858Y206968D02*
D03*
Y199331D02*
D03*
D47*
X95626Y152358D02*
X100004D01*
X95626Y154339D02*
X103968D01*
X53150Y151969D02*
Y206693D01*
Y151969D02*
X56697Y148421D01*
X61374D01*
X53150Y206693D02*
X59457Y213000D01*
X98236D01*
X65705Y156342D02*
X73579D01*
X59882Y162165D02*
X65705Y156342D01*
X59882Y162165D02*
Y171653D01*
X53150Y138937D02*
X55158D01*
X56299Y137795D01*
Y135827D02*
Y137795D01*
Y135827D02*
X57484Y134642D01*
X61374D01*
X53150Y132717D02*
X53193Y132673D01*
X61374D01*
X90669Y160626D02*
X92149Y162106D01*
X78289Y156333D02*
X97277D01*
X77516Y157105D02*
X78289Y156333D01*
X97277D02*
X101181Y160236D01*
X89327Y160626D02*
X90669D01*
X76772Y130709D02*
Y151575D01*
X73618Y154327D02*
X86750D01*
X73579Y154288D02*
X73618Y154327D01*
X77516Y157105D02*
Y160626D01*
X79921Y130315D02*
Y148425D01*
X79484Y129878D02*
X79921Y130315D01*
X79484Y126374D02*
Y129878D01*
X76772Y130709D02*
X77516Y129965D01*
Y126374D02*
Y129965D01*
X97658Y171653D02*
X99961D01*
X63800D02*
X66102D01*
X107480Y154331D02*
X110197D01*
Y159409D02*
Y160236D01*
Y159016D02*
Y159409D01*
X107874Y157087D02*
X110197Y159409D01*
X104724Y157087D02*
X107874D01*
X103976Y156339D02*
X104724Y157087D01*
X103976Y154331D02*
Y156339D01*
X110197Y148779D02*
Y154331D01*
X107870Y146453D02*
X110197Y148779D01*
X95626Y146453D02*
X107870D01*
X103968Y154339D02*
X103976Y154331D01*
Y160236D02*
X106299D01*
X101181D02*
X103976D01*
X90941Y152358D02*
X95626D01*
X89764Y151181D02*
X90941Y152358D01*
X89764Y148819D02*
Y151181D01*
Y147244D02*
Y148819D01*
Y147244D02*
X90555Y146453D01*
X95626D01*
X66102Y171653D02*
X69331D01*
X79921Y172047D02*
X83421Y168547D01*
X90881Y79311D02*
Y94122D01*
X87823Y78993D02*
Y94678D01*
X90881Y94122D02*
X103937Y107179D01*
X87823Y94678D02*
X101333Y108188D01*
X130709Y211024D02*
Y212598D01*
X129921Y210236D02*
X130709Y211024D01*
X123228Y210236D02*
X129921D01*
X123228Y213386D02*
X129921D01*
X130709Y212598D01*
X104842Y213386D02*
X123228D01*
X104457Y213000D02*
X104842Y213386D01*
X106693Y200980D02*
Y203937D01*
X100643Y203792D02*
X100787Y203937D01*
X100643Y200980D02*
Y203792D01*
X91732Y203150D02*
X91732Y203150D01*
Y199606D02*
Y203150D01*
X83858D02*
X83858Y203150D01*
Y199606D02*
Y203150D01*
X69291Y171614D02*
X69331Y171653D01*
X69291Y169795D02*
Y171614D01*
Y169795D02*
X75547Y163539D01*
X73579Y154287D02*
X73579Y154288D01*
Y156342D01*
X73579Y135960D02*
Y154287D01*
Y156342D02*
Y160626D01*
Y156342D02*
X73579Y156342D01*
X75551Y171653D02*
X79724D01*
X89764D02*
X93740D01*
X85390Y168461D02*
X88583Y171653D01*
X85390Y160626D02*
Y168461D01*
X83421Y160626D02*
Y168547D01*
X95626Y144484D02*
X116191D01*
X119773Y148067D01*
X124276D01*
X95626Y142516D02*
X116628D01*
X119773Y139370D01*
X124276D01*
X130276Y131890D02*
Y139276D01*
X130181Y139370D02*
X130276Y139276D01*
X130181Y148067D02*
Y155417D01*
X130276Y155512D01*
X75547Y160626D02*
Y163539D01*
X73858Y83610D02*
X82731D01*
X73858Y58350D02*
Y83610D01*
Y89650D01*
X95231Y83610D02*
X104642D01*
Y57850D02*
Y83610D01*
Y89150D01*
X82731Y71000D02*
Y77390D01*
X95231Y71110D02*
Y77390D01*
X82731D02*
X86220D01*
X87823Y78993D01*
X92802Y77390D02*
X95231D01*
X90881Y79311D02*
X92802Y77390D01*
X95626Y136610D02*
X101005D01*
X101333Y108188D02*
Y132901D01*
X99592Y134642D02*
X101333Y132901D01*
X95626Y134642D02*
X99592D01*
X91838Y132673D02*
X95626D01*
X89790Y134721D02*
X91838Y132673D01*
X89790Y134721D02*
Y140027D01*
X85390Y126374D02*
Y130058D01*
X83558Y131890D02*
X85390Y130058D01*
X83558Y131890D02*
Y140318D01*
X89327Y126374D02*
Y131273D01*
X86504Y134096D02*
X89327Y131273D01*
X86504Y154081D02*
X86750Y154327D01*
X95626D01*
X86504Y134096D02*
Y136610D01*
Y154081D01*
X61374Y132673D02*
X70291D01*
X73579Y135960D01*
X61374Y134642D02*
X68018D01*
X68996Y135619D01*
Y140945D01*
X87358Y118587D02*
Y126374D01*
X89327Y123476D02*
Y126374D01*
Y123476D02*
X90216Y122587D01*
X92838D01*
X93661Y121764D01*
Y118504D02*
Y121764D01*
X124055Y131890D02*
X126949D01*
X56150Y73413D02*
X64739D01*
X56142Y73405D02*
X56150Y73413D01*
X56142Y58350D02*
Y73405D01*
Y89650D01*
X114172Y73413D02*
X122272D01*
X122358Y73500D01*
Y57850D02*
Y73500D01*
Y89150D01*
X95231Y64890D02*
Y67513D01*
X95277Y67559D01*
X82731Y64780D02*
Y67559D01*
X87441Y118504D02*
X90216D01*
X124449Y155118D02*
X127165D01*
X124055Y155512D02*
X124449Y155118D01*
X103937Y107179D02*
Y133679D01*
X101005Y136610D02*
X103937Y133679D01*
D48*
X48386Y132717D02*
X53150D01*
X28740Y155512D02*
X44882D01*
X47244Y153150D01*
Y133858D02*
Y153150D01*
Y133858D02*
X48386Y132717D01*
X28740Y155512D02*
Y167323D01*
X23189Y155512D02*
X28740D01*
X100643Y207200D02*
X100756Y207087D01*
X21654Y81090D02*
X24185Y82047D01*
X16390Y128740D02*
Y130169D01*
X22610Y110500D02*
Y116500D01*
Y122587D01*
Y128740D01*
X21850Y133043D02*
Y136614D01*
X22610Y128740D02*
Y132283D01*
X21850Y133043D02*
X22610Y132283D01*
X18110Y147638D02*
Y150433D01*
X17031Y151512D02*
X18110Y150433D01*
X17031Y151512D02*
Y155449D01*
X16969Y155512D02*
X17031Y155449D01*
X16969Y155512D02*
Y161417D01*
X16969Y161417D02*
X16969Y161417D01*
X21260Y161417D02*
X23189D01*
X20079Y162598D02*
X21260Y161417D01*
X20079Y162598D02*
Y166535D01*
X19291Y167323D02*
X20079Y166535D01*
X16969Y167323D02*
X19291D01*
X87358Y118587D02*
X87441Y118504D01*
X25591Y136614D02*
Y140551D01*
X18110Y136614D02*
Y140945D01*
X18743Y141578D01*
X24564D01*
X25591Y140551D01*
X23189Y167323D02*
X28740D01*
X11024Y136614D02*
X18110D01*
X20691Y128740D02*
X22610D01*
X20568Y128617D02*
X20691Y128740D01*
D49*
X100756Y207087D02*
X123228D01*
X83858Y207244D02*
X84016Y207087D01*
X100756D01*
D50*
X11024Y188976D02*
X49606Y227559D01*
X24185Y82047D02*
Y104500D01*
X124392Y199606D02*
X136614D01*
X141339Y204331D01*
Y224016D01*
X137795Y227559D02*
X141339Y224016D01*
X49606Y227559D02*
X137795D01*
X16390Y104500D02*
Y110500D01*
Y116500D01*
Y122587D01*
Y128740D01*
X11024Y134106D02*
X16390Y128740D01*
X11024Y134106D02*
Y136614D01*
Y188976D01*
D51*
X123231Y221656D02*
D03*
D52*
X123131Y202168D02*
D03*
D53*
X20249Y81693D02*
D03*
D54*
X21374Y70221D02*
D03*
D55*
X24498Y68583D02*
D03*
D56*
X133465Y204724D02*
D03*
D57*
Y222047D02*
D03*
D58*
X137795Y255906D02*
D03*
X19685Y19685D02*
D03*
D59*
X148425Y202375D02*
D03*
Y225997D02*
D03*
X71653Y171653D02*
D03*
X84646Y173228D02*
D03*
X20472Y116535D02*
D03*
X108661Y248425D02*
D03*
X65354D02*
D03*
X92149Y162106D02*
D03*
X76772Y151575D02*
D03*
X79921Y148425D02*
D03*
X97658Y171653D02*
D03*
X107480Y154331D02*
D03*
X106299Y160236D02*
D03*
X89764Y148819D02*
D03*
X126378Y222835D02*
D03*
X123228D02*
D03*
X120079D02*
D03*
X89790Y140027D02*
D03*
X83558Y140318D02*
D03*
X86504Y136610D02*
D03*
X68996Y140945D02*
D03*
X126949Y131890D02*
D03*
X64739Y73413D02*
D03*
X114172D02*
D03*
X90216Y118504D02*
D03*
X95277Y67559D02*
D03*
X82731D02*
D03*
X20568Y128617D02*
D03*
X37413Y73647D02*
D03*
X12909Y70866D02*
D03*
X63800Y171653D02*
D03*
X21260Y70875D02*
D03*
X24185Y70854D02*
D03*
Y68170D02*
D03*
X27110Y70834D02*
D03*
Y68149D02*
D03*
X21654Y68110D02*
D03*
X12205Y95669D02*
D03*
X127165Y155118D02*
D03*
X77559Y115748D02*
D03*
Y105905D02*
D03*
X112992D02*
D03*
X42126D02*
D03*
Y115748D02*
D03*
X148425Y105905D02*
D03*
X112992Y115748D02*
D03*
X30709Y184252D02*
D03*
X137402D02*
D03*
Y148425D02*
D03*
X65354Y197244D02*
D03*
X83858Y203150D02*
D03*
X20079Y173622D02*
D03*
X68996Y152362D02*
D03*
X100787Y203937D02*
D03*
X106693D02*
D03*
X91732Y203150D02*
D03*
M02*
