G04*
G04 #@! TF.GenerationSoftware,Altium Limited,Altium Designer,18.1.5 (160)*
G04*
G04 Layer_Color=128*
%FSLAX25Y25*%
%MOIN*%
G70*
G01*
G75*
%ADD68C,0.00200*%
D68*
X131890Y204724D02*
X135039D01*
X133465Y203150D02*
Y206299D01*
X131890Y222047D02*
X135039D01*
X133465Y220472D02*
Y223622D01*
X131890Y255906D02*
X143701D01*
X137795Y250000D02*
Y261811D01*
X13780Y19685D02*
X25591D01*
X19685Y13780D02*
Y25591D01*
X147835Y202375D02*
X149016D01*
X148425Y201784D02*
Y202965D01*
X147835Y225997D02*
X149016D01*
X148425Y225406D02*
Y226587D01*
X71063Y171653D02*
X72244D01*
X71653Y171063D02*
Y172244D01*
X84055Y173228D02*
X85236D01*
X84646Y172638D02*
Y173819D01*
X19882Y116535D02*
X21063D01*
X20472Y115945D02*
Y117126D01*
X108071Y248425D02*
X109252D01*
X108661Y247835D02*
Y249016D01*
X64764Y248425D02*
X65945D01*
X65354Y247835D02*
Y249016D01*
X91559Y162106D02*
X92740D01*
X92149Y161516D02*
Y162697D01*
X76181Y151575D02*
X77362D01*
X76772Y150984D02*
Y152165D01*
X79331Y148425D02*
X80512D01*
X79921Y147835D02*
Y149016D01*
X97067Y171653D02*
X98248D01*
X97658Y171063D02*
Y172244D01*
X106890Y154331D02*
X108071D01*
X107480Y153740D02*
Y154921D01*
X105709Y160236D02*
X106890D01*
X106299Y159646D02*
Y160827D01*
X89173Y148819D02*
X90354D01*
X89764Y148228D02*
Y149409D01*
X125787Y222835D02*
X126969D01*
X126378Y222244D02*
Y223425D01*
X122638Y222835D02*
X123819D01*
X123228Y222244D02*
Y223425D01*
X119488Y222835D02*
X120669D01*
X120079Y222244D02*
Y223425D01*
X89200Y140027D02*
X90381D01*
X89790Y139437D02*
Y140618D01*
X82968Y140318D02*
X84149D01*
X83558Y139728D02*
Y140909D01*
X85913Y136610D02*
X87094D01*
X86504Y136020D02*
Y137201D01*
X68405Y140945D02*
X69586D01*
X68996Y140354D02*
Y141535D01*
X126358Y131890D02*
X127539D01*
X126949Y131299D02*
Y132480D01*
X64149Y73413D02*
X65330D01*
X64739Y72823D02*
Y74004D01*
X113582Y73413D02*
X114763D01*
X114172Y72823D02*
Y74004D01*
X89625Y118504D02*
X90807D01*
X90216Y117913D02*
Y119095D01*
X94686Y67559D02*
X95867D01*
X95277Y66969D02*
Y68150D01*
X82140Y67559D02*
X83321D01*
X82731Y66969D02*
Y68150D01*
X19977Y128617D02*
X21159D01*
X20568Y128026D02*
Y129208D01*
X36822Y73647D02*
X38003D01*
X37413Y73057D02*
Y74238D01*
X12318Y70866D02*
X13499D01*
X12909Y70275D02*
Y71456D01*
X63209Y171653D02*
X64390D01*
X63800Y171063D02*
Y172244D01*
X20669Y70875D02*
X21850D01*
X21260Y70284D02*
Y71465D01*
X23595Y70854D02*
X24776D01*
X24185Y70264D02*
Y71445D01*
X23595Y68170D02*
X24776D01*
X24185Y67579D02*
Y68760D01*
X26520Y70834D02*
X27701D01*
X27110Y70243D02*
Y71425D01*
X26520Y68149D02*
X27701D01*
X27110Y67559D02*
Y68740D01*
X21063Y68110D02*
X22244D01*
X21654Y67520D02*
Y68701D01*
X11614Y95669D02*
X12795D01*
X12205Y95079D02*
Y96260D01*
X126575Y155118D02*
X127756D01*
X127165Y154528D02*
Y155709D01*
X76968Y115748D02*
X78150D01*
X77559Y115157D02*
Y116339D01*
X76968Y105905D02*
X78150D01*
X77559Y105315D02*
Y106496D01*
X112402Y105905D02*
X113583D01*
X112992Y105315D02*
Y106496D01*
X41535Y105905D02*
X42717D01*
X42126Y105315D02*
Y106496D01*
X41535Y115748D02*
X42717D01*
X42126Y115157D02*
Y116339D01*
X147835Y105905D02*
X149016D01*
X148425Y105315D02*
Y106496D01*
X112402Y115748D02*
X113583D01*
X112992Y115157D02*
Y116339D01*
X30118Y184252D02*
X31299D01*
X30709Y183661D02*
Y184843D01*
X136811Y184252D02*
X137992D01*
X137402Y183661D02*
Y184843D01*
X136811Y148425D02*
X137992D01*
X137402Y147835D02*
Y149016D01*
X64764Y197244D02*
X65945D01*
X65354Y196653D02*
Y197835D01*
X83268Y203150D02*
X84449D01*
X83858Y202559D02*
Y203740D01*
X19488Y173622D02*
X20669D01*
X20079Y173031D02*
Y174213D01*
X68405Y152362D02*
X69586D01*
X68996Y151772D02*
Y152953D01*
X100197Y203937D02*
X101378D01*
X100787Y203346D02*
Y204528D01*
X106102Y203937D02*
X107283D01*
X106693Y203346D02*
Y204528D01*
X91142Y203150D02*
X92323D01*
X91732Y202559D02*
Y203740D01*
M02*
